{
copyright = "Copyright (c) 2015, Cadson Demak (info@cadsondemak.com)";
customParameters = (
{
name = vendorID;
value = CDK;
},
{
name = description;
value = "Copyright (c) 2015, Cadson Demak (info@cadsondemak.com)";
},
{
name = license;

glyphs = (
{
glyphname = A;
lastChange = "2015-10-27 10:05:37 +0000";
layers = (
{
layerId = "79FE4770-DCAD-4138-A5DB-2166FBC61C29";
name = Bold;
paths = (
{
closed = 1;
nodes = (
"238 0 LINE",
"238 14 LINE",
"213 24 OFFCURVE",
"188 32 OFFCURVE",
"156 36 CURVE",
"350 576 LINE",
"540 37 LINE",
"518 34 OFFCURVE",
"492 29 OFFCURVE",
"460 17 CURVE",
"460 0 LINE",
"752 0 LINE",
"752 16 LINE",
"726 25 OFFCURVE",
"699 32 OFFCURVE",
"674 37 CURVE",
"427 704 LINE",
"331 704 LINE",
"85 39 LINE",
"73 37 OFFCURVE",
"32 27 OFFCURVE",
"6 18 CURVE",
"6 0 LINE"
);
},
{
closed = 1;
nodes = (
"527 179 LINE",
"527 224 LINE",
"185 224 LINE",
"185 179 LINE"
);
}
);
width = 759;
}
);
leftKerningGroup = A;
note = A;
rightKerningGroup = A;
unicode = 0041;
},
{
glyphname = Aacute;
lastChange = "2015-10-27 10:05:37 +0000";
layers = (
{
layerId = "79FE4770-DCAD-4138-A5DB-2166FBC61C29";
name = Bold;
paths = (
{
closed = 1;
nodes = (
"238 0 LINE",
"238 14 LINE",
"213 24 OFFCURVE",
"188 32 OFFCURVE",
"156 36 CURVE",
"350 576 LINE",
"540 37 LINE",
"518 34 OFFCURVE",
"492 29 OFFCURVE",
"460 17 CURVE",
"460 0 LINE",
"752 0 LINE",
"752 16 LINE",
"726 25 OFFCURVE",
"699 32 OFFCURVE",
"674 37 CURVE",
"427 704 LINE",
"331 704 LINE",
"85 39 LINE",
"73 37 OFFCURVE",
"32 27 OFFCURVE",
"6 18 CURVE",
"6 0 LINE"
);
},
{
closed = 1;
nodes = (
"527 179 LINE",
"527 224 LINE",
"185 224 LINE",
"185 179 LINE"
);
},
{
closed = 1;
nodes = (
"468 875 LINE SMOOTH",
"497 892 OFFCURVE",
"512 909 OFFCURVE",
"512 930 CURVE SMOOTH",
"512 947 OFFCURVE",
"501 967 OFFCURVE",
"471 967 CURVE SMOOTH",
"441 967 OFFCURVE",
"418 943 OFFCURVE",
"412 936 CURVE",
"292 817 LINE",
"314 786 LINE"
);
}
);
width = 759;
}
);
leftKerningGroup = A;
note = Aacute;
rightKerningGroup = A;
unicode = 00C1;
},
{
glyphname = Abreve;
lastChange = "2015-10-27 10:05:38 +0000";
layers = (
{
layerId = "79FE4770-DCAD-4138-A5DB-2166FBC61C29";
name = Bold;
paths = (
{
closed = 1;
nodes = (
"238 0 LINE",
"238 14 LINE",
"213 24 OFFCURVE",
"188 32 OFFCURVE",
"156 36 CURVE",
"350 576 LINE",
"540 37 LINE",
"518 34 OFFCURVE",
"492 29 OFFCURVE",
"460 17 CURVE",
"460 0 LINE",
"752 0 LINE",
"752 16 LINE",
"726 25 OFFCURVE",
"699 32 OFFCURVE",
"674 37 CURVE",
"427 704 LINE",
"331 704 LINE",
"85 39 LINE",
"73 37 OFFCURVE",
"32 27 OFFCURVE",
"6 18 CURVE",
"6 0 LINE"
);
},
{
closed = 1;
nodes = (
"527 179 LINE",
"527 224 LINE",
"185 224 LINE",
"185 179 LINE"
);
},
{
closed = 1;
nodes = (
"472 779 OFFCURVE",
"538 821 OFFCURVE",
"551 910 CURVE",
"475 910 LINE",
"467 836 OFFCURVE",
"420 826 OFFCURVE",
"379 826 CURVE SMOOTH",
"338 826 OFFCURVE",
"290 836 OFFCURVE",
"282 910 CURVE",
"206 910 LINE",
"220 821 OFFCURVE",
"285 779 OFFCURVE",
"379 779 CURVE SMOOTH"
);
}
);
width = 759;
}
);
leftKerningGroup = A;
note = Abreve;
rightKerningGroup = A;
unicode = 0102;
},
{
glyphname = Abreveacute;
lastChange = "2015-10-27 10:05:37 +0000";
layers = (
{
layerId = "79FE4770-DCAD-4138-A5DB-2166FBC61C29";
name = Bold;
paths = (
{
closed = 1;
nodes = (
"238 0 LINE",
"238 14 LINE",
"213 24 OFFCURVE",
"188 32 OFFCURVE",
"156 36 CURVE",
"350 576 LINE",
"540 37 LINE",
"518 34 OFFCURVE",
"492 29 OFFCURVE",
"460 17 CURVE",
"460 0 LINE",
"752 0 LINE",
"752 16 LINE",
"726 25 OFFCURVE",
"699 32 OFFCURVE",
"674 37 CURVE",
"427 704 LINE",
"331 704 LINE",
"85 39 LINE",
"73 37 OFFCURVE",
"32 27 OFFCURVE",
"6 18 CURVE",
"6 0 LINE"
);
},
{
closed = 1;
nodes = (
"527 179 LINE",
"527 224 LINE",
"185 224 LINE",
"185 179 LINE"
);
},
{
closed = 1;
nodes = (
"480 785 OFFCURVE",
"545 827 OFFCURVE",
"559 916 CURVE",
"483 916 LINE",
"475 842 OFFCURVE",
"427 832 OFFCURVE",
"386 832 CURVE SMOOTH",
"345 832 OFFCURVE",
"297 842 OFFCURVE",
"290 916 CURVE",
"214 916 LINE",
"227 827 OFFCURVE",
"293 785 OFFCURVE",
"386 785 CURVE SMOOTH"
);
},
{
closed = 1;
nodes = (
"467 972 LINE SMOOTH",
"507 992 OFFCURVE",
"525 1017 OFFCURVE",
"525 1038 CURVE SMOOTH",
"525 1055 OFFCURVE",
"512 1071 OFFCURVE",
"488 1071 CURVE SMOOTH",
"466 1071 OFFCURVE",
"441 1056 OFFCURVE",
"417 1029 CURVE SMOOTH",
"343 947 LINE",
"364 920 LINE"
);
}
);
width = 759;
}
);
leftKerningGroup = A;
note = Abreveacute;
rightKerningGroup = A;
unicode = 1EAE;
},
{
glyphname = Abrevedotbelow;
lastChange = "2015-10-27 10:05:37 +0000";
layers = (
{
layerId = "79FE4770-DCAD-4138-A5DB-2166FBC61C29";
name = Bold;
paths = (
{
closed = 1;
nodes = (
"238 0 LINE",
"238 14 LINE",
"213 24 OFFCURVE",
"188 32 OFFCURVE",
"156 36 CURVE",
"350 576 LINE",
"540 37 LINE",
"518 34 OFFCURVE",
"492 29 OFFCURVE",
"460 17 CURVE",
"460 0 LINE",
"752 0 LINE",
"752 16 LINE",
"726 25 OFFCURVE",
"699 32 OFFCURVE",
"674 37 CURVE",
"427 704 LINE",
"331 704 LINE",
"85 39 LINE",
"73 37 OFFCURVE",
"32 27 OFFCURVE",
"6 18 CURVE",
"6 0 LINE"
);
},
{
closed = 1;
nodes = (
"408 -169 OFFCURVE",
"430 -145 OFFCURVE",
"430 -113 CURVE SMOOTH",
"430 -80 OFFCURVE",
"408 -56 OFFCURVE",
"374 -56 CURVE SMOOTH",
"340 -56 OFFCURVE",
"318 -80 OFFCURVE",
"318 -113 CURVE SMOOTH",
"318 -145 OFFCURVE",
"340 -169 OFFCURVE",
"374 -169 CURVE SMOOTH"
);
},
{
closed = 1;
nodes = (
"527 179 LINE",
"527 224 LINE",
"185 224 LINE",
"185 179 LINE"
);
},
{
closed = 1;
nodes = (
"467 778 OFFCURVE",
"533 820 OFFCURVE",
"546 909 CURVE",
"470 909 LINE",
"462 835 OFFCURVE",
"415 825 OFFCURVE",
"374 825 CURVE SMOOTH",
"333 825 OFFCURVE",
"285 835 OFFCURVE",
"277 909 CURVE",
"201 909 LINE",
"215 820 OFFCURVE",
"280 778 OFFCURVE",
"374 778 CURVE SMOOTH"
);
}
);
width = 759;
}
);
leftKerningGroup = A;
note = Abrevedotbelow;
rightKerningGroup = A;
unicode = 1EB6;
},
{
glyphname = Abrevegrave;
lastChange = "2015-10-27 10:05:37 +0000";
layers = (
{
layerId = "79FE4770-DCAD-4138-A5DB-2166FBC61C29";
name = Bold;
paths = (
{
closed = 1;
nodes = (
"238 0 LINE",
"238 14 LINE",
"213 24 OFFCURVE",
"188 32 OFFCURVE",
"156 36 CURVE",
"350 576 LINE",
"540 37 LINE",
"518 34 OFFCURVE",
"492 29 OFFCURVE",
"460 17 CURVE",
"460 0 LINE",
"752 0 LINE",
"752 16 LINE",
"726 25 OFFCURVE",
"699 32 OFFCURVE",
"674 37 CURVE",
"427 704 LINE",
"331 704 LINE",
"85 39 LINE",
"73 37 OFFCURVE",
"32 27 OFFCURVE",
"6 18 CURVE",
"6 0 LINE"
);
},
{
closed = 1;
nodes = (
"527 179 LINE",
"527 224 LINE",
"185 224 LINE",
"185 179 LINE"
);
},
{
closed = 1;
nodes = (
"481 785 OFFCURVE",
"546 827 OFFCURVE",
"560 916 CURVE",
"484 916 LINE",
"476 842 OFFCURVE",
"428 832 OFFCURVE",
"387 832 CURVE SMOOTH",
"346 832 OFFCURVE",
"298 842 OFFCURVE",
"291 916 CURVE",
"215 916 LINE",
"228 827 OFFCURVE",
"294 785 OFFCURVE",
"387 785 CURVE SMOOTH"
);
},
{
closed = 1;
nodes = (
"437 947 LINE",
"363 1029 LINE SMOOTH",
"339 1056 OFFCURVE",
"314 1071 OFFCURVE",
"292 1071 CURVE SMOOTH",
"268 1071 OFFCURVE",
"255 1055 OFFCURVE",
"255 1038 CURVE SMOOTH",
"255 1017 OFFCURVE",
"273 992 OFFCURVE",
"313 972 CURVE SMOOTH",
"416 920 LINE"
);
}
);
width = 759;
}
);
leftKerningGroup = A;
note = Abrevegrave;
rightKerningGroup = A;
unicode = 1EB0;
},
{
glyphname = Abrevehookabove;
lastChange = "2015-10-27 10:05:37 +0000";
layers = (
{
layerId = "79FE4770-DCAD-4138-A5DB-2166FBC61C29";
name = Bold;
paths = (
{
closed = 1;
nodes = (
"238 0 LINE",
"238 14 LINE",
"213 24 OFFCURVE",
"188 32 OFFCURVE",
"156 36 CURVE",
"350 576 LINE",
"540 37 LINE",
"518 34 OFFCURVE",
"492 29 OFFCURVE",
"460 17 CURVE",
"460 0 LINE",
"752 0 LINE",
"752 16 LINE",
"726 25 OFFCURVE",
"699 32 OFFCURVE",
"674 37 CURVE",
"427 704 LINE",
"331 704 LINE",
"85 39 LINE",
"73 37 OFFCURVE",
"32 27 OFFCURVE",
"6 18 CURVE",
"6 0 LINE"
);
},
{
closed = 1;
nodes = (
"527 179 LINE",
"527 224 LINE",
"185 224 LINE",
"185 179 LINE"
);
},
{
closed = 1;
nodes = (
"480 785 OFFCURVE",
"545 827 OFFCURVE",
"559 916 CURVE",
"483 916 LINE",
"475 842 OFFCURVE",
"427 832 OFFCURVE",
"386 832 CURVE SMOOTH",
"345 832 OFFCURVE",
"297 842 OFFCURVE",
"290 916 CURVE",
"214 916 LINE",
"227 827 OFFCURVE",
"293 785 OFFCURVE",
"386 785 CURVE SMOOTH"
);
},
{
closed = 1;
nodes = (
"407 923 LINE",
"416 974 LINE",
"463 978 OFFCURVE",
"496 997 OFFCURVE",
"496 1045 CURVE SMOOTH",
"496 1098 OFFCURVE",
"447 1119 OFFCURVE",
"397 1119 CURVE SMOOTH",
"369 1119 OFFCURVE",
"342 1112 OFFCURVE",
"324 1105 CURVE",
"330 1072 LINE",
"348 1080 OFFCURVE",
"368 1084 OFFCURVE",
"383 1084 CURVE SMOOTH",
"419 1084 OFFCURVE",
"436 1067 OFFCURVE",
"436 1046 CURVE SMOOTH",
"436 1015 OFFCURVE",
"413 1002 OFFCURVE",
"384 1002 CURVE SMOOTH",
"355 1002 LINE",
"359 923 LINE"
);
}
);
width = 759;
}
);
leftKerningGroup = A;
note = Abrevehookabove;
rightKerningGroup = A;
unicode = 1EB2;
},
{
glyphname = Abrevetilde;
lastChange = "2015-10-27 10:05:38 +0000";
layers = (
{
layerId = "79FE4770-DCAD-4138-A5DB-2166FBC61C29";
name = Bold;
paths = (
{
closed = 1;
nodes = (
"238 0 LINE",
"238 14 LINE",
"213 24 OFFCURVE",
"188 32 OFFCURVE",
"156 36 CURVE",
"350 576 LINE",
"540 37 LINE",
"518 34 OFFCURVE",
"492 29 OFFCURVE",
"460 17 CURVE",
"460 0 LINE",
"752 0 LINE",
"752 16 LINE",
"726 25 OFFCURVE",
"699 32 OFFCURVE",
"674 37 CURVE",
"427 704 LINE",
"331 704 LINE",
"85 39 LINE",
"73 37 OFFCURVE",
"32 27 OFFCURVE",
"6 18 CURVE",
"6 0 LINE"
);
},
{
closed = 1;
nodes = (
"527 179 LINE",
"527 224 LINE",
"185 224 LINE",
"185 179 LINE"
);
},
{
closed = 1;
nodes = (
"480 785 OFFCURVE",
"545 827 OFFCURVE",
"559 916 CURVE",
"483 916 LINE",
"475 842 OFFCURVE",
"427 832 OFFCURVE",
"386 832 CURVE SMOOTH",
"345 832 OFFCURVE",
"297 842 OFFCURVE",
"290 916 CURVE",
"214 916 LINE",
"227 827 OFFCURVE",
"293 785 OFFCURVE",
"386 785 CURVE SMOOTH"
);
},
{
closed = 1;
nodes = (
"249 980 LINE",
"256 1013 OFFCURVE",
"281 1034 OFFCURVE",
"312 1034 CURVE SMOOTH",
"354 1034 OFFCURVE",
"397 981 OFFCURVE",
"453 981 CURVE SMOOTH",
"523 981 OFFCURVE",
"559 1026 OFFCURVE",
"567 1094 CURVE",
"523 1094 LINE",
"512 1049 OFFCURVE",
"479 1038 OFFCURVE",
"453 1038 CURVE SMOOTH",
"412 1038 OFFCURVE",
"382 1090 OFFCURVE",
"316 1090 CURVE SMOOTH",
"253 1090 OFFCURVE",
"213 1054 OFFCURVE",
"203 980 CURVE"
);
}
);
width = 759;
}
);
leftKerningGroup = A;
note = Abrevetilde;
rightKerningGroup = A;
unicode = 1EB4;
},
{
glyphname = Acaron;
lastChange = "2015-10-27 10:05:38 +0000";
layers = (
{
layerId = "79FE4770-DCAD-4138-A5DB-2166FBC61C29";
name = Bold;
paths = (
{
closed = 1;
nodes = (
"238 0 LINE",
"238 14 LINE",
"213 24 OFFCURVE",
"188 32 OFFCURVE",
"156 36 CURVE",
"350 576 LINE",
"540 37 LINE",
"518 34 OFFCURVE",
"492 29 OFFCURVE",
"460 17 CURVE",
"460 0 LINE",
"752 0 LINE",
"752 16 LINE",
"726 25 OFFCURVE",
"699 32 OFFCURVE",
"674 37 CURVE",
"427 704 LINE",
"331 704 LINE",
"85 39 LINE",
"73 37 OFFCURVE",
"32 27 OFFCURVE",
"6 18 CURVE",
"6 0 LINE"
);
},
{
closed = 1;
nodes = (
"527 179 LINE",
"527 224 LINE",
"185 224 LINE",
"185 179 LINE"
);
},
{
closed = 1;
nodes = (
"410 786 LINE",
"436 824 OFFCURVE",
"514 894 OFFCURVE",
"557 922 CURVE",
"503 963 LINE",
"463 932 OFFCURVE",
"406 877 OFFCURVE",
"381 841 CURVE",
"377 841 LINE",
"353 877 OFFCURVE",
"295 932 OFFCURVE",
"255 963 CURVE",
"201 922 LINE",
"244 894 OFFCURVE",
"322 824 OFFCURVE",
"348 786 CURVE"
);
}
);
width = 759;
}
);
leftKerningGroup = A;
note = Acaron;
rightKerningGroup = A;
unicode = 01CD;
},
{
glyphname = Acircumflex;
lastChange = "2015-10-27 10:05:37 +0000";
layers = (
{
layerId = "79FE4770-DCAD-4138-A5DB-2166FBC61C29";
name = Bold;
paths = (
{
closed = 1;
nodes = (
"238 0 LINE",
"238 14 LINE",
"213 24 OFFCURVE",
"188 32 OFFCURVE",
"156 36 CURVE",
"350 576 LINE",
"540 37 LINE",
"518 34 OFFCURVE",
"492 29 OFFCURVE",
"460 17 CURVE",
"460 0 LINE",
"752 0 LINE",
"752 16 LINE",
"726 25 OFFCURVE",
"699 32 OFFCURVE",
"674 37 CURVE",
"427 704 LINE",
"331 704 LINE",
"85 39 LINE",
"73 37 OFFCURVE",
"32 27 OFFCURVE",
"6 18 CURVE",
"6 0 LINE"
);
},
{
closed = 1;
nodes = (
"527 179 LINE",
"527 224 LINE",
"185 224 LINE",
"185 179 LINE"
);
},
{
closed = 1;
nodes = (
"295 813 OFFCURVE",
"353 868 OFFCURVE",
"377 904 CURVE",
"381 904 LINE",
"406 868 OFFCURVE",
"463 813 OFFCURVE",
"503 782 CURVE",
"557 823 LINE",
"514 851 OFFCURVE",
"436 922 OFFCURVE",
"410 959 CURVE",
"348 959 LINE",
"322 922 OFFCURVE",
"244 851 OFFCURVE",
"201 823 CURVE",
"255 782 LINE"
);
}
);
width = 759;
}
);
leftKerningGroup = A;
note = Acircumflex;
rightKerningGroup = A;
unicode = 00C2;
},
{
glyphname = Acircumflexacute;
lastChange = "2015-10-27 10:05:37 +0000";
layers = (
{
layerId = "79FE4770-DCAD-4138-A5DB-2166FBC61C29";
name = Bold;
paths = (
{
closed = 1;
nodes = (
"238 0 LINE",
"238 14 LINE",
"213 24 OFFCURVE",
"188 32 OFFCURVE",
"156 36 CURVE",
"350 576 LINE",
"540 37 LINE",
"518 34 OFFCURVE",
"492 29 OFFCURVE",
"460 17 CURVE",
"460 0 LINE",
"752 0 LINE",
"752 16 LINE",
"726 25 OFFCURVE",
"699 32 OFFCURVE",
"674 37 CURVE",
"427 704 LINE",
"331 704 LINE",
"85 39 LINE",
"73 37 OFFCURVE",
"32 27 OFFCURVE",
"6 18 CURVE",
"6 0 LINE"
);
},
{
closed = 1;
nodes = (
"527 179 LINE",
"527 224 LINE",
"185 224 LINE",
"185 179 LINE"
);
},
{
closed = 1;
nodes = (
"296 813 OFFCURVE",
"352 868 OFFCURVE",
"377 904 CURVE",
"381 904 LINE",
"406 868 OFFCURVE",
"463 813 OFFCURVE",
"503 782 CURVE",
"557 823 LINE",
"515 851 OFFCURVE",
"436 922 OFFCURVE",
"410 959 CURVE",
"348 959 LINE",
"322 922 OFFCURVE",
"244 851 OFFCURVE",
"201 823 CURVE",
"256 782 LINE"
);
},
{
closed = 1;
nodes = (
"617 967 LINE SMOOTH",
"657 987 OFFCURVE",
"675 1012 OFFCURVE",
"675 1033 CURVE SMOOTH",
"675 1050 OFFCURVE",
"662 1066 OFFCURVE",
"638 1066 CURVE SMOOTH",
"616 1066 OFFCURVE",
"591 1051 OFFCURVE",
"567 1024 CURVE SMOOTH",
"493 942 LINE",
"514 915 LINE"
);
}
);
width = 759;
}
);
leftKerningGroup = A;
note = Acircumflexacute;
rightKerningGroup = A;
unicode = 1EA4;
},
{
glyphname = Acircumflexdotbelow;
lastChange = "2015-10-27 10:05:37 +0000";
layers = (
{
layerId = "79FE4770-DCAD-4138-A5DB-2166FBC61C29";
name = Bold;
paths = (
{
closed = 1;
nodes = (
"238 0 LINE",
"238 14 LINE",
"213 24 OFFCURVE",
"188 32 OFFCURVE",
"156 36 CURVE",
"350 576 LINE",
"540 37 LINE",
"518 34 OFFCURVE",
"492 29 OFFCURVE",
"460 17 CURVE",
"460 0 LINE",
"752 0 LINE",
"752 16 LINE",
"726 25 OFFCURVE",
"699 32 OFFCURVE",
"674 37 CURVE",
"427 704 LINE",
"331 704 LINE",
"85 39 LINE",
"73 37 OFFCURVE",
"32 27 OFFCURVE",
"6 18 CURVE",
"6 0 LINE"
);
},
{
closed = 1;
nodes = (
"414 -169 OFFCURVE",
"436 -145 OFFCURVE",
"436 -113 CURVE SMOOTH",
"436 -80 OFFCURVE",
"414 -56 OFFCURVE",
"380 -56 CURVE SMOOTH",
"346 -56 OFFCURVE",
"324 -80 OFFCURVE",
"324 -113 CURVE SMOOTH",
"324 -145 OFFCURVE",
"346 -169 OFFCURVE",
"380 -169 CURVE SMOOTH"
);
},
{
closed = 1;
nodes = (
"527 179 LINE",
"527 224 LINE",
"185 224 LINE",
"185 179 LINE"
);
},
{
closed = 1;
nodes = (
"296 812 OFFCURVE",
"354 867 OFFCURVE",
"378 903 CURVE",
"382 903 LINE",
"407 867 OFFCURVE",
"464 812 OFFCURVE",
"504 781 CURVE",
"558 822 LINE",
"515 850 OFFCURVE",
"437 921 OFFCURVE",
"411 958 CURVE",
"349 958 LINE",
"323 921 OFFCURVE",
"245 850 OFFCURVE",
"202 822 CURVE",
"256 781 LINE"
);
}
);
width = 759;
}
);
leftKerningGroup = A;
note = Acircumflexdotbelow;
rightKerningGroup = A;
unicode = 1EAC;
},
{
glyphname = Acircumflexgrave;
lastChange = "2015-10-27 10:05:37 +0000";
layers = (
{
layerId = "79FE4770-DCAD-4138-A5DB-2166FBC61C29";
name = Bold;
paths = (
{
closed = 1;
nodes = (
"238 0 LINE",
"238 14 LINE",
"213 24 OFFCURVE",
"188 32 OFFCURVE",
"156 36 CURVE",
"350 576 LINE",
"540 37 LINE",
"518 34 OFFCURVE",
"492 29 OFFCURVE",
"460 17 CURVE",
"460 0 LINE",
"752 0 LINE",
"752 16 LINE",
"726 25 OFFCURVE",
"699 32 OFFCURVE",
"674 37 CURVE",
"427 704 LINE",
"331 704 LINE",
"85 39 LINE",
"73 37 OFFCURVE",
"32 27 OFFCURVE",
"6 18 CURVE",
"6 0 LINE"
);
},
{
closed = 1;
nodes = (
"527 179 LINE",
"527 224 LINE",
"185 224 LINE",
"185 179 LINE"
);
},
{
closed = 1;
nodes = (
"268 942 LINE",
"195 1024 LINE SMOOTH",
"170 1051 OFFCURVE",
"145 1066 OFFCURVE",
"123 1066 CURVE SMOOTH",
"99 1066 OFFCURVE",
"86 1050 OFFCURVE",
"86 1033 CURVE SMOOTH",
"86 1012 OFFCURVE",
"105 988 OFFCURVE",
"145 967 CURVE SMOOTH",
"247 915 LINE"
);
},
{
closed = 1;
nodes = (
"296 813 OFFCURVE",
"352 868 OFFCURVE",
"377 904 CURVE",
"381 904 LINE",
"406 868 OFFCURVE",
"463 813 OFFCURVE",
"503 782 CURVE",
"557 823 LINE",
"515 851 OFFCURVE",
"436 922 OFFCURVE",
"410 959 CURVE",
"348 959 LINE",
"322 922 OFFCURVE",
"244 851 OFFCURVE",
"201 823 CURVE",
"256 782 LINE"
);
}
);
width = 759;
}
);
leftKerningGroup = A;
note = Acircumflexgrave;
rightKerningGroup = A;
unicode = 1EA6;
},
{
glyphname = Acircumflexhookabove;
lastChange = "2015-10-27 10:05:38 +0000";
layers = (
{
layerId = "79FE4770-DCAD-4138-A5DB-2166FBC61C29";
name = Bold;
paths = (
{
closed = 1;
nodes = (
"238 0 LINE",
"238 14 LINE",
"213 24 OFFCURVE",
"188 32 OFFCURVE",
"156 36 CURVE",
"350 576 LINE",
"540 37 LINE",
"518 34 OFFCURVE",
"492 29 OFFCURVE",
"460 17 CURVE",
"460 0 LINE",
"752 0 LINE",
"752 16 LINE",
"726 25 OFFCURVE",
"699 32 OFFCURVE",
"674 37 CURVE",
"427 704 LINE",
"331 704 LINE",
"85 39 LINE",
"73 37 OFFCURVE",
"32 27 OFFCURVE",
"6 18 CURVE",
"6 0 LINE"
);
},
{
closed = 1;
nodes = (
"527 179 LINE",
"527 224 LINE",
"185 224 LINE",
"185 179 LINE"
);
},
{
closed = 1;
nodes = (
"296 813 OFFCURVE",
"352 868 OFFCURVE",
"377 904 CURVE",
"381 904 LINE",
"406 868 OFFCURVE",
"463 813 OFFCURVE",
"503 782 CURVE",
"557 823 LINE",
"515 851 OFFCURVE",
"436 922 OFFCURVE",
"410 959 CURVE",
"348 959 LINE",
"322 922 OFFCURVE",
"244 851 OFFCURVE",
"201 823 CURVE",
"256 782 LINE"
);
},
{
closed = 1;
nodes = (
"541 918 LINE",
"550 969 LINE",
"596 973 OFFCURVE",
"630 992 OFFCURVE",
"630 1040 CURVE SMOOTH",
"630 1093 OFFCURVE",
"580 1114 OFFCURVE",
"530 1114 CURVE SMOOTH",
"502 1114 OFFCURVE",
"475 1107 OFFCURVE",
"458 1100 CURVE",
"464 1067 LINE",
"481 1075 OFFCURVE",
"501 1079 OFFCURVE",
"517 1079 CURVE SMOOTH",
"552 1079 OFFCURVE",
"570 1062 OFFCURVE",
"570 1041 CURVE SMOOTH",
"570 1010 OFFCURVE",
"546 997 OFFCURVE",
"518 997 CURVE SMOOTH",
"489 997 LINE",
"493 918 LINE"
);
}
);
width = 759;
}
);
leftKerningGroup = A;
note = Acircumflexhookabove;
rightKerningGroup = A;
unicode = 1EA8;
},
{
glyphname = Acircumflextilde;
lastChange = "2015-10-27 10:05:38 +0000";
layers = (
{
layerId = "79FE4770-DCAD-4138-A5DB-2166FBC61C29";
name = Bold;
paths = (
{
closed = 1;
nodes = (
"238 0 LINE",
"238 14 LINE",
"213 24 OFFCURVE",
"188 32 OFFCURVE",
"156 36 CURVE",
"350 576 LINE",
"540 37 LINE",
"518 34 OFFCURVE",
"492 29 OFFCURVE",
"460 17 CURVE",
"460 0 LINE",
"752 0 LINE",
"752 16 LINE",
"726 25 OFFCURVE",
"699 32 OFFCURVE",
"674 37 CURVE",
"427 704 LINE",
"331 704 LINE",
"85 39 LINE",
"73 37 OFFCURVE",
"32 27 OFFCURVE",
"6 18 CURVE",
"6 0 LINE"
);
},
{
closed = 1;
nodes = (
"527 179 LINE",
"527 224 LINE",
"185 224 LINE",
"185 179 LINE"
);
},
{
closed = 1;
nodes = (
"296 813 OFFCURVE",
"352 868 OFFCURVE",
"377 904 CURVE",
"381 904 LINE",
"406 868 OFFCURVE",
"463 813 OFFCURVE",
"503 782 CURVE",
"557 823 LINE",
"515 851 OFFCURVE",
"436 922 OFFCURVE",
"410 959 CURVE",
"348 959 LINE",
"322 922 OFFCURVE",
"244 851 OFFCURVE",
"201 823 CURVE",
"256 782 LINE"
);
},
{
closed = 1;
nodes = (
"246 988 LINE",
"253 1021 OFFCURVE",
"278 1042 OFFCURVE",
"309 1042 CURVE SMOOTH",
"351 1042 OFFCURVE",
"401 989 OFFCURVE",
"457 989 CURVE SMOOTH",
"527 989 OFFCURVE",
"562 1033 OFFCURVE",
"570 1101 CURVE",
"525 1101 LINE",
"515 1057 OFFCURVE",
"483 1045 OFFCURVE",
"457 1045 CURVE SMOOTH",
"416 1045 OFFCURVE",
"379 1098 OFFCURVE",
"313 1098 CURVE SMOOTH",
"250 1098 OFFCURVE",
"210 1062 OFFCURVE",
"200 988 CURVE"
);
}
);
width = 759;
}
);
leftKerningGroup = A;
note = Acircumflextilde;
rightKerningGroup = A;
unicode = 1EAA;
},
{
glyphname = Adieresis;
lastChange = "2015-10-27 10:05:38 +0000";
layers = (
{
layerId = "79FE4770-DCAD-4138-A5DB-2166FBC61C29";
name = Bold;
paths = (
{
closed = 1;
nodes = (
"238 0 LINE",
"238 14 LINE",
"213 24 OFFCURVE",
"188 32 OFFCURVE",
"156 36 CURVE",
"350 576 LINE",
"540 37 LINE",
"518 34 OFFCURVE",
"492 29 OFFCURVE",
"460 17 CURVE",
"460 0 LINE",
"752 0 LINE",
"752 16 LINE",
"726 25 OFFCURVE",
"699 32 OFFCURVE",
"674 37 CURVE",
"427 704 LINE",
"331 704 LINE",
"85 39 LINE",
"73 37 OFFCURVE",
"32 27 OFFCURVE",
"6 18 CURVE",
"6 0 LINE"
);
},
{
closed = 1;
nodes = (
"527 179 LINE",
"527 224 LINE",
"185 224 LINE",
"185 179 LINE"
);
},
{
closed = 1;
nodes = (
"283 785 OFFCURVE",
"305 809 OFFCURVE",
"305 841 CURVE SMOOTH",
"305 874 OFFCURVE",
"283 898 OFFCURVE",
"248 898 CURVE SMOOTH",
"215 898 OFFCURVE",
"193 874 OFFCURVE",
"193 841 CURVE SMOOTH",
"193 809 OFFCURVE",
"215 785 OFFCURVE",
"248 785 CURVE SMOOTH"
);
},
{
closed = 1;
nodes = (
"516 785 OFFCURVE",
"538 809 OFFCURVE",
"538 841 CURVE SMOOTH",
"538 874 OFFCURVE",
"516 898 OFFCURVE",
"482 898 CURVE SMOOTH",
"447 898 OFFCURVE",
"426 874 OFFCURVE",
"426 841 CURVE SMOOTH",
"426 809 OFFCURVE",
"447 785 OFFCURVE",
"482 785 CURVE SMOOTH"
);
}
);
width = 759;
}
);
leftKerningGroup = A;
note = Adieresis;
rightKerningGroup = A;
unicode = 00C4;
},
{
glyphname = Adotbelow;
lastChange = "2015-10-27 10:05:37 +0000";
layers = (
{
layerId = "79FE4770-DCAD-4138-A5DB-2166FBC61C29";
name = Bold;
paths = (
{
closed = 1;
nodes = (
"238 0 LINE",
"238 14 LINE",
"213 24 OFFCURVE",
"188 32 OFFCURVE",
"156 36 CURVE",
"350 576 LINE",
"540 37 LINE",
"518 34 OFFCURVE",
"492 29 OFFCURVE",
"460 17 CURVE",
"460 0 LINE",
"752 0 LINE",
"752 16 LINE",
"726 25 OFFCURVE",
"699 32 OFFCURVE",
"674 37 CURVE",
"427 704 LINE",
"331 704 LINE",
"85 39 LINE",
"73 37 OFFCURVE",
"32 27 OFFCURVE",
"6 18 CURVE",
"6 0 LINE"
);
},
{
closed = 1;
nodes = (
"412 -169 OFFCURVE",
"434 -145 OFFCURVE",
"434 -113 CURVE SMOOTH",
"434 -80 OFFCURVE",
"412 -56 OFFCURVE",
"378 -56 CURVE SMOOTH",
"344 -56 OFFCURVE",
"322 -80 OFFCURVE",
"322 -113 CURVE SMOOTH",
"322 -145 OFFCURVE",
"344 -169 OFFCURVE",
"378 -169 CURVE SMOOTH"
);
},
{
closed = 1;
nodes = (
"527 179 LINE",
"527 224 LINE",
"185 224 LINE",
"185 179 LINE"
);
}
);
width = 759;
}
);
leftKerningGroup = A;
note = Adotbelow;
rightKerningGroup = A;
unicode = 1EA0;
},
{
glyphname = Agrave;
lastChange = "2015-10-27 10:05:38 +0000";
layers = (
{
layerId = "79FE4770-DCAD-4138-A5DB-2166FBC61C29";
name = Bold;
paths = (
{
closed = 1;
nodes = (
"238 0 LINE",
"238 14 LINE",
"213 24 OFFCURVE",
"188 32 OFFCURVE",
"156 36 CURVE",
"350 576 LINE",
"540 37 LINE",
"518 34 OFFCURVE",
"492 29 OFFCURVE",
"460 17 CURVE",
"460 0 LINE",
"752 0 LINE",
"752 16 LINE",
"726 25 OFFCURVE",
"699 32 OFFCURVE",
"674 37 CURVE",
"427 704 LINE",
"331 704 LINE",
"85 39 LINE",
"73 37 OFFCURVE",
"32 27 OFFCURVE",
"6 18 CURVE",
"6 0 LINE"
);
},
{
closed = 1;
nodes = (
"527 179 LINE",
"527 224 LINE",
"185 224 LINE",
"185 179 LINE"
);
},
{
closed = 1;
nodes = (
"469 817 LINE",
"348 937 LINE",
"341 945 OFFCURVE",
"315 967 OFFCURVE",
"287 967 CURVE SMOOTH",
"261 967 OFFCURVE",
"248 946 OFFCURVE",
"248 929 CURVE SMOOTH",
"248 908 OFFCURVE",
"264 892 OFFCURVE",
"293 875 CURVE SMOOTH",
"447 786 LINE"
);
}
);
width = 759;
}
);
leftKerningGroup = A;
note = Agrave;
rightKerningGroup = A;
unicode = 00C0;
},
{
glyphname = Ahookabove;
lastChange = "2015-10-27 10:05:37 +0000";
layers = (
{
layerId = "79FE4770-DCAD-4138-A5DB-2166FBC61C29";
name = Bold;
paths = (
{
closed = 1;
nodes = (
"238 0 LINE",
"238 14 LINE",
"213 24 OFFCURVE",
"188 32 OFFCURVE",
"156 36 CURVE",
"350 576 LINE",
"540 37 LINE",
"518 34 OFFCURVE",
"492 29 OFFCURVE",
"460 17 CURVE",
"460 0 LINE",
"752 0 LINE",
"752 16 LINE",
"726 25 OFFCURVE",
"699 32 OFFCURVE",
"674 37 CURVE",
"427 704 LINE",
"331 704 LINE",
"85 39 LINE",
"73 37 OFFCURVE",
"32 27 OFFCURVE",
"6 18 CURVE",
"6 0 LINE"
);
},
{
closed = 1;
nodes = (
"527 179 LINE",
"527 224 LINE",
"185 224 LINE",
"185 179 LINE"
);
},
{
closed = 1;
nodes = (
"409 781 LINE",
"419 849 LINE",
"473 854 OFFCURVE",
"511 876 OFFCURVE",
"511 931 CURVE SMOOTH",
"511 994 OFFCURVE",
"454 1018 OFFCURVE",
"397 1018 CURVE SMOOTH",
"365 1018 OFFCURVE",
"334 1010 OFFCURVE",
"314 1001 CURVE",
"321 965 LINE",
"342 976 OFFCURVE",
"364 981 OFFCURVE",
"382 981 CURVE SMOOTH",
"422 981 OFFCURVE",
"443 958 OFFCURVE",
"443 933 CURVE SMOOTH",
"443 897 OFFCURVE",
"415 881 OFFCURVE",
"383 881 CURVE SMOOTH",
"350 881 LINE",
"355 781 LINE"
);
}
);
width = 759;
}
);
leftKerningGroup = A;
note = Ahookabove;
rightKerningGroup = A;
unicode = 1EA2;
},
{
glyphname = Amacron;
lastChange = "2015-10-27 10:05:38 +0000";
layers = (
{
layerId = "79FE4770-DCAD-4138-A5DB-2166FBC61C29";
name = Bold;
paths = (
{
closed = 1;
nodes = (
"238 0 LINE",
"238 14 LINE",
"213 24 OFFCURVE",
"188 32 OFFCURVE",
"156 36 CURVE",
"350 576 LINE",
"540 37 LINE",
"518 34 OFFCURVE",
"492 29 OFFCURVE",
"460 17 CURVE",
"460 0 LINE",
"752 0 LINE",
"752 16 LINE",
"726 25 OFFCURVE",
"699 32 OFFCURVE",
"674 37 CURVE",
"427 704 LINE",
"331 704 LINE",
"85 39 LINE",
"73 37 OFFCURVE",
"32 27 OFFCURVE",
"6 18 CURVE",
"6 0 LINE"
);
},
{
closed = 1;
nodes = (
"527 179 LINE",
"527 224 LINE",
"185 224 LINE",
"185 179 LINE"
);
},
{
closed = 1;
nodes = (
"566 785 LINE",
"566 829 LINE",
"195 829 LINE",
"195 785 LINE"
);
}
);
width = 759;
}
);
leftKerningGroup = A;
note = Amacron;
rightKerningGroup = A;
unicode = 0100;
},
{
glyphname = Aogonek;
lastChange = "2015-10-27 10:05:37 +0000";
layers = (
{
layerId = "79FE4770-DCAD-4138-A5DB-2166FBC61C29";
name = Bold;
paths = (
{
closed = 1;
nodes = (
"238 0 LINE",
"238 14 LINE",
"213 24 OFFCURVE",
"188 32 OFFCURVE",
"156 36 CURVE",
"350 576 LINE",
"540 37 LINE",
"518 34 OFFCURVE",
"492 29 OFFCURVE",
"460 17 CURVE",
"460 0 LINE",
"752 0 LINE",
"752 16 LINE",
"726 25 OFFCURVE",
"699 32 OFFCURVE",
"674 37 CURVE",
"427 704 LINE",
"331 704 LINE",
"85 39 LINE",
"73 37 OFFCURVE",
"32 27 OFFCURVE",
"6 18 CURVE",
"6 0 LINE"
);
},
{
closed = 1;
nodes = (
"527 179 LINE",
"527 224 LINE",
"185 224 LINE",
"185 179 LINE"
);
},
{
closed = 1;
nodes = (
"751 -200 OFFCURVE",
"789 -191 OFFCURVE",
"814 -177 CURVE",
"814 -121 LINE",
"791 -134 OFFCURVE",
"769 -140 OFFCURVE",
"751 -140 CURVE SMOOTH",
"715 -140 OFFCURVE",
"689 -120 OFFCURVE",
"689 -88 CURVE SMOOTH",
"689 -55 OFFCURVE",
"717 -19 OFFCURVE",
"745 0 CURVE",
"680 0 LINE",
"622 -19 OFFCURVE",
"589 -68 OFFCURVE",
"589 -113 CURVE SMOOTH",
"589 -163 OFFCURVE",
"633 -200 OFFCURVE",
"711 -200 CURVE SMOOTH"
);
}
);
width = 759;
}
);
leftKerningGroup = A;
note = Aogonek;
rightKerningGroup = A;
unicode = 0104;
},
{
glyphname = Aring;
lastChange = "2015-10-27 10:05:38 +0000";
layers = (
{
layerId = "79FE4770-DCAD-4138-A5DB-2166FBC61C29";
name = Bold;
paths = (
{
closed = 1;
nodes = (
"238 0 LINE",
"238 14 LINE",
"213 24 OFFCURVE",
"188 32 OFFCURVE",
"156 36 CURVE",
"350 576 LINE",
"540 37 LINE",
"518 34 OFFCURVE",
"492 29 OFFCURVE",
"460 17 CURVE",
"460 0 LINE",
"752 0 LINE",
"752 16 LINE",
"726 25 OFFCURVE",
"699 32 OFFCURVE",
"674 37 CURVE",
"427 704 LINE",
"331 704 LINE",
"85 39 LINE",
"73 37 OFFCURVE",
"32 27 OFFCURVE",
"6 18 CURVE",
"6 0 LINE"
);
},
{
closed = 1;
nodes = (
"527 179 LINE",
"527 224 LINE",
"185 224 LINE",
"185 179 LINE"
);
},
{
closed = 1;
nodes = (
"439 743 OFFCURVE",
"481 782 OFFCURVE",
"481 840 CURVE SMOOTH",
"481 898 OFFCURVE",
"439 938 OFFCURVE",
"378 938 CURVE SMOOTH",
"316 938 OFFCURVE",
"274 898 OFFCURVE",
"274 840 CURVE SMOOTH",
"274 782 OFFCURVE",
"316 743 OFFCURVE",
"378 743 CURVE SMOOTH"
);
},
{
closed = 1;
nodes = (
"345 784 OFFCURVE",
"319 806 OFFCURVE",
"319 840 CURVE SMOOTH",
"319 874 OFFCURVE",
"345 896 OFFCURVE",
"378 896 CURVE SMOOTH",
"411 896 OFFCURVE",
"435 874 OFFCURVE",
"435 840 CURVE SMOOTH",
"435 806 OFFCURVE",
"411 784 OFFCURVE",
"378 784 CURVE SMOOTH"
);
}
);
width = 759;
}
);
leftKerningGroup = A;
note = Aring;
rightKerningGroup = A;
unicode = 00C5;
},
{
glyphname = Aringacute;
lastChange = "2015-10-27 10:05:37 +0000";
layers = (
{
layerId = "79FE4770-DCAD-4138-A5DB-2166FBC61C29";
name = Bold;
paths = (
{
closed = 1;
nodes = (
"238 0 LINE",
"238 14 LINE",
"213 24 OFFCURVE",
"188 32 OFFCURVE",
"156 36 CURVE",
"350 576 LINE",
"540 37 LINE",
"518 34 OFFCURVE",
"492 29 OFFCURVE",
"460 17 CURVE",
"460 0 LINE",
"752 0 LINE",
"752 16 LINE",
"726 25 OFFCURVE",
"699 32 OFFCURVE",
"674 37 CURVE",
"427 704 LINE",
"331 704 LINE",
"85 39 LINE",
"73 37 OFFCURVE",
"32 27 OFFCURVE",
"6 18 CURVE",
"6 0 LINE"
);
},
{
closed = 1;
nodes = (
"527 179 LINE",
"527 224 LINE",
"185 224 LINE",
"185 179 LINE"
);
},
{
closed = 1;
nodes = (
"439 741 OFFCURVE",
"481 780 OFFCURVE",
"481 838 CURVE SMOOTH",
"481 896 OFFCURVE",
"439 936 OFFCURVE",
"378 936 CURVE SMOOTH",
"316 936 OFFCURVE",
"274 896 OFFCURVE",
"274 838 CURVE SMOOTH",
"274 780 OFFCURVE",
"316 741 OFFCURVE",
"378 741 CURVE SMOOTH"
);
},
{
closed = 1;
nodes = (
"345 782 OFFCURVE",
"319 804 OFFCURVE",
"319 838 CURVE SMOOTH",
"319 872 OFFCURVE",
"345 894 OFFCURVE",
"378 894 CURVE SMOOTH",
"411 894 OFFCURVE",
"435 872 OFFCURVE",
"435 838 CURVE SMOOTH",
"435 804 OFFCURVE",
"411 782 OFFCURVE",
"378 782 CURVE SMOOTH"
);
},
{
closed = 1;
nodes = (
"466 1049 LINE SMOOTH",
"495 1066 OFFCURVE",
"510 1083 OFFCURVE",
"510 1104 CURVE SMOOTH",
"510 1121 OFFCURVE",
"499 1141 OFFCURVE",
"469 1141 CURVE SMOOTH",
"439 1141 OFFCURVE",
"416 1117 OFFCURVE",
"410 1110 CURVE",
"290 991 LINE",
"312 960 LINE"
);
}
);
width = 759;
}
);
leftKerningGroup = A;
note = Aringacute;
rightKerningGroup = A;
unicode = 01FA;
},
{
glyphname = Atilde;
lastChange = "2015-10-27 10:05:37 +0000";
layers = (
{
layerId = "79FE4770-DCAD-4138-A5DB-2166FBC61C29";
name = Bold;
paths = (
{
closed = 1;
nodes = (
"238 0 LINE",
"238 14 LINE",
"213 24 OFFCURVE",
"188 32 OFFCURVE",
"156 36 CURVE",
"350 576 LINE",
"540 37 LINE",
"518 34 OFFCURVE",
"492 29 OFFCURVE",
"460 17 CURVE",
"460 0 LINE",
"752 0 LINE",
"752 16 LINE",
"726 25 OFFCURVE",
"699 32 OFFCURVE",
"674 37 CURVE",
"427 704 LINE",
"331 704 LINE",
"85 39 LINE",
"73 37 OFFCURVE",
"32 27 OFFCURVE",
"6 18 CURVE",
"6 0 LINE"
);
},
{
closed = 1;
nodes = (
"527 179 LINE",
"527 224 LINE",
"185 224 LINE",
"185 179 LINE"
);
},
{
closed = 1;
nodes = (
"238 786 LINE",
"245 819 OFFCURVE",
"268 840 OFFCURVE",
"298 840 CURVE SMOOTH",
"336 840 OFFCURVE",
"397 786 OFFCURVE",
"453 786 CURVE SMOOTH",
"524 786 OFFCURVE",
"559 832 OFFCURVE",
"567 900 CURVE",
"515 900 LINE",
"505 855 OFFCURVE",
"478 844 OFFCURVE",
"451 844 CURVE SMOOTH",
"410 844 OFFCURVE",
"366 897 OFFCURVE",
"299 897 CURVE SMOOTH",
"236 897 OFFCURVE",
"195 860 OFFCURVE",
"185 786 CURVE"
);
}
);
width = 759;
}
);
leftKerningGroup = A;
note = Atilde;
rightKerningGroup = A;
unicode = 00C3;
},
{
glyphname = AE;
lastChange = "2015-10-27 10:05:38 +0000";
layers = (
{
layerId = "79FE4770-DCAD-4138-A5DB-2166FBC61C29";
name = Bold;
paths = (
{
closed = 1;
nodes = (
"245 0 LINE",
"245 14 LINE",
"220 24 OFFCURVE",
"190 32 OFFCURVE",
"158 36 CURVE",
"242 179 LINE",
"496 179 LINE",
"496 36 LINE",
"465 32 OFFCURVE",
"436 24 OFFCURVE",
"411 16 CURVE",
"411 0 LINE",
"962 0 LINE",
"979 165 LINE",
"949 165 LINE",
"934 144 OFFCURVE",
"906 78 OFFCURVE",
"903 44 CURVE",
"630 44 LINE",
"630 336 LINE",
"816 336 LINE",
"818 319 OFFCURVE",
"826 280 OFFCURVE",
"836 251 CURVE",
"858 251 LINE",
"858 467 LINE",
"836 467 LINE",
"825 440 OFFCURVE",
"818 400 OFFCURVE",
"816 382 CURVE",
"630 382 LINE",
"630 654 LINE",
"898 654 LINE",
"900 625 OFFCURVE",
"920 555 OFFCURVE",
"933 533 CURVE",
"963 533 LINE",
"963 700 LINE",
"408 700 LINE",
"408 684 LINE",
"425 677 OFFCURVE",
"442 673 OFFCURVE",
"459 669 CURVE",
"82 38 LINE",
"57 32 OFFCURVE",
"33 26 OFFCURVE",
"6 16 CURVE",
"6 0 LINE"
);
},
{
closed = 1;
nodes = (
"496 613 LINE",
"496 224 LINE",
"268 224 LINE"
);
}
);
width = 1022;
}
);
leftKerningGroup = A;
note = AE;
unicode = 00C6;
},
{
glyphname = AEacute;
lastChange = "2015-10-27 10:05:37 +0000";
layers = (
{
layerId = "79FE4770-DCAD-4138-A5DB-2166FBC61C29";
name = Bold;
paths = (
{
closed = 1;
nodes = (
"245 0 LINE",
"245 14 LINE",
"220 24 OFFCURVE",
"190 32 OFFCURVE",
"158 36 CURVE",
"242 179 LINE",
"496 179 LINE",
"496 36 LINE",
"465 32 OFFCURVE",
"436 24 OFFCURVE",
"411 16 CURVE",
"411 0 LINE",
"962 0 LINE",
"979 165 LINE",
"949 165 LINE",
"934 144 OFFCURVE",
"906 78 OFFCURVE",
"903 44 CURVE",
"630 44 LINE",
"630 336 LINE",
"816 336 LINE",
"818 319 OFFCURVE",
"826 280 OFFCURVE",
"836 251 CURVE",
"858 251 LINE",
"858 467 LINE",
"836 467 LINE",
"825 440 OFFCURVE",
"818 400 OFFCURVE",
"816 382 CURVE",
"630 382 LINE",
"630 654 LINE",
"898 654 LINE",
"900 625 OFFCURVE",
"920 555 OFFCURVE",
"933 533 CURVE",
"963 533 LINE",
"963 700 LINE",
"408 700 LINE",
"408 684 LINE",
"425 677 OFFCURVE",
"442 673 OFFCURVE",
"459 669 CURVE",
"82 38 LINE",
"57 32 OFFCURVE",
"33 26 OFFCURVE",
"6 16 CURVE",
"6 0 LINE"
);
},
{
closed = 1;
nodes = (
"496 613 LINE",
"496 224 LINE",
"268 224 LINE"
);
},
{
closed = 1;
nodes = (
"778 875 LINE SMOOTH",
"807 892 OFFCURVE",
"822 909 OFFCURVE",
"822 930 CURVE SMOOTH",
"822 947 OFFCURVE",
"811 967 OFFCURVE",
"781 967 CURVE SMOOTH",
"751 967 OFFCURVE",
"728 943 OFFCURVE",
"722 936 CURVE",
"602 817 LINE",
"624 786 LINE"
);
}
);
width = 1022;
}
);
leftKerningGroup = A;
note = AEacute;
unicode = 01FC;
},
{
glyphname = B;
lastChange = "2015-10-27 10:05:37 +0000";
layers = (
{
layerId = "79FE4770-DCAD-4138-A5DB-2166FBC61C29";
name = Bold;
paths = (
{
closed = 1;
nodes = (
"371 0 LINE SMOOTH",
"543 0 OFFCURVE",
"606 68 OFFCURVE",
"606 193 CURVE SMOOTH",
"606 261 OFFCURVE",
"568 344 OFFCURVE",
"449 367 CURVE",
"449 373 LINE",
"538 396 OFFCURVE",
"577 466 OFFCURVE",
"577 536 CURVE SMOOTH",
"577 644 OFFCURVE",
"514 700 OFFCURVE",
"340 700 CURVE SMOOTH",
"27 700 LINE",
"27 683 LINE",
"56 673 OFFCURVE",
"83 667 OFFCURVE",
"108 663 CURVE",
"108 38 LINE",
"85 35 OFFCURVE",
"67 30 OFFCURVE",
"27 15 CURVE",
"27 0 LINE"
);
},
{
closed = 1;
nodes = (
"243 345 LINE",
"341 345 LINE SMOOTH",
"424 345 OFFCURVE",
"472 294 OFFCURVE",
"472 198 CURVE SMOOTH",
"472 99 OFFCURVE",
"436 44 OFFCURVE",
"354 44 CURVE SMOOTH",
"243 44 LINE"
);
},
{
closed = 1;
nodes = (
"243 654 LINE",
"323 654 LINE SMOOTH",
"407 654 OFFCURVE",
"441 615 OFFCURVE",
"441 529 CURVE SMOOTH",
"441 445 OFFCURVE",
"401 390 OFFCURVE",
"319 390 CURVE SMOOTH",
"243 390 LINE"
);
}
);
width = 630;
}
);
note = B;
unicode = 0042;
},
{
glyphname = C;
lastChange = "2015-10-27 10:05:37 +0000";
layers = (
{
layerId = "79FE4770-DCAD-4138-A5DB-2166FBC61C29";
name = Bold;
paths = (
{
closed = 1;
nodes = (
"472 -10 OFFCURVE",
"552 15 OFFCURVE",
"603 59 CURVE",
"584 96 LINE",
"523 54 OFFCURVE",
"451 37 OFFCURVE",
"401 37 CURVE SMOOTH",
"249 37 OFFCURVE",
"180 161 OFFCURVE",
"180 350 CURVE SMOOTH",
"180 538 OFFCURVE",
"261 663 OFFCURVE",
"413 663 CURVE SMOOTH",
"462 663 OFFCURVE",
"505 649 OFFCURVE",
"539 622 CURVE",
"543 581 OFFCURVE",
"551 528 OFFCURVE",
"562 496 CURVE",
"595 496 LINE",
"607 634 LINE",
"557 681 OFFCURVE",
"488 710 OFFCURVE",
"378 710 CURVE SMOOTH",
"159 710 OFFCURVE",
"42 572 OFFCURVE",
"42 350 CURVE SMOOTH",
"42 127 OFFCURVE",
"155 -10 OFFCURVE",
"381 -10 CURVE SMOOTH"
);
}
);
width = 649;
}
);
leftKerningGroup = C;
note = C;
unicode = 0043;
},
{
glyphname = Cacute;
lastChange = "2015-10-27 10:05:37 +0000";
layers = (
{
layerId = "79FE4770-DCAD-4138-A5DB-2166FBC61C29";
name = Bold;
paths = (
{
closed = 1;
nodes = (
"472 -10 OFFCURVE",
"552 15 OFFCURVE",
"603 59 CURVE",
"584 96 LINE",
"523 54 OFFCURVE",
"451 37 OFFCURVE",
"401 37 CURVE SMOOTH",
"249 37 OFFCURVE",
"180 161 OFFCURVE",
"180 350 CURVE SMOOTH",
"180 538 OFFCURVE",
"261 663 OFFCURVE",
"413 663 CURVE SMOOTH",
"462 663 OFFCURVE",
"505 649 OFFCURVE",
"539 622 CURVE",
"543 581 OFFCURVE",
"551 528 OFFCURVE",
"562 496 CURVE",
"595 496 LINE",
"607 634 LINE",
"557 681 OFFCURVE",
"488 710 OFFCURVE",
"378 710 CURVE SMOOTH",
"159 710 OFFCURVE",
"42 572 OFFCURVE",
"42 350 CURVE SMOOTH",
"42 127 OFFCURVE",
"155 -10 OFFCURVE",
"381 -10 CURVE SMOOTH"
);
},
{
closed = 1;
nodes = (
"484 875 LINE SMOOTH",
"513 892 OFFCURVE",
"528 909 OFFCURVE",
"528 930 CURVE SMOOTH",
"528 947 OFFCURVE",
"517 967 OFFCURVE",
"487 967 CURVE SMOOTH",
"457 967 OFFCURVE",
"434 943 OFFCURVE",
"428 936 CURVE",
"308 817 LINE",
"330 786 LINE"
);
}
);
width = 649;
}
);
leftKerningGroup = C;
note = Cacute;
unicode = 0106;
},
{
glyphname = Ccaron;
lastChange = "2015-10-27 10:05:38 +0000";
layers = (
{
layerId = "79FE4770-DCAD-4138-A5DB-2166FBC61C29";
name = Bold;
paths = (
{
closed = 1;
nodes = (
"472 -10 OFFCURVE",
"552 15 OFFCURVE",
"603 59 CURVE",
"584 96 LINE",
"523 54 OFFCURVE",
"451 37 OFFCURVE",
"401 37 CURVE SMOOTH",
"249 37 OFFCURVE",
"180 161 OFFCURVE",
"180 350 CURVE SMOOTH",
"180 538 OFFCURVE",
"261 663 OFFCURVE",
"413 663 CURVE SMOOTH",
"462 663 OFFCURVE",
"505 649 OFFCURVE",
"539 622 CURVE",
"543 581 OFFCURVE",
"551 528 OFFCURVE",
"562 496 CURVE",
"595 496 LINE",
"607 634 LINE",
"557 681 OFFCURVE",
"488 710 OFFCURVE",
"378 710 CURVE SMOOTH",
"159 710 OFFCURVE",
"42 572 OFFCURVE",
"42 350 CURVE SMOOTH",
"42 127 OFFCURVE",
"155 -10 OFFCURVE",
"381 -10 CURVE SMOOTH"
);
},
{
closed = 1;
nodes = (
"431 786 LINE",
"457 824 OFFCURVE",
"535 894 OFFCURVE",
"578 922 CURVE",
"524 963 LINE",
"484 932 OFFCURVE",
"427 877 OFFCURVE",
"402 841 CURVE",
"398 841 LINE",
"374 877 OFFCURVE",
"316 932 OFFCURVE",
"276 963 CURVE",
"222 922 LINE",
"265 894 OFFCURVE",
"343 824 OFFCURVE",
"369 786 CURVE"
);
}
);
width = 649;
}
);
leftKerningGroup = C;
note = Ccaron;
unicode = 010C;
},
{
glyphname = Ccedilla;
lastChange = "2015-10-27 10:05:37 +0000";
layers = (
{
layerId = "79FE4770-DCAD-4138-A5DB-2166FBC61C29";
name = Bold;
paths = (
{
closed = 1;
nodes = (
"472 -10 OFFCURVE",
"552 15 OFFCURVE",
"603 59 CURVE",
"584 96 LINE",
"523 54 OFFCURVE",
"451 37 OFFCURVE",
"401 37 CURVE SMOOTH",
"249 37 OFFCURVE",
"180 161 OFFCURVE",
"180 350 CURVE SMOOTH",
"180 538 OFFCURVE",
"261 663 OFFCURVE",
"413 663 CURVE SMOOTH",
"462 663 OFFCURVE",
"505 649 OFFCURVE",
"539 622 CURVE",
"543 581 OFFCURVE",
"551 528 OFFCURVE",
"562 496 CURVE",
"595 496 LINE",
"607 634 LINE",
"557 681 OFFCURVE",
"488 710 OFFCURVE",
"378 710 CURVE SMOOTH",
"159 710 OFFCURVE",
"42 572 OFFCURVE",
"42 350 CURVE SMOOTH",
"42 127 OFFCURVE",
"155 -10 OFFCURVE",
"381 -10 CURVE SMOOTH"
);
},
{
closed = 1;
nodes = (
"429 -246 OFFCURVE",
"490 -213 OFFCURVE",
"490 -146 CURVE SMOOTH",
"490 -102 OFFCURVE",
"453 -67 OFFCURVE",
"375 -67 CURVE",
"414 15 LINE",
"355 15 LINE",
"310 -75 LINE",
"334 -107 LINE",
"341 -106 OFFCURVE",
"350 -105 OFFCURVE",
"358 -105 CURVE SMOOTH",
"388 -105 OFFCURVE",
"423 -114 OFFCURVE",
"423 -146 CURVE SMOOTH",
"423 -186 OFFCURVE",
"387 -200 OFFCURVE",
"343 -200 CURVE SMOOTH",
"318 -200 OFFCURVE",
"290 -194 OFFCURVE",
"270 -184 CURVE",
"249 -219 LINE",
"277 -237 OFFCURVE",
"318 -246 OFFCURVE",
"353 -246 CURVE SMOOTH"
);
}
);
width = 649;
}
);
leftKerningGroup = C;
note = Ccedilla;
unicode = 00C7;
},
{
glyphname = Ccircumflex;
lastChange = "2015-10-27 10:05:37 +0000";
layers = (
{
layerId = "79FE4770-DCAD-4138-A5DB-2166FBC61C29";
name = Bold;
paths = (
{
closed = 1;
nodes = (
"472 -10 OFFCURVE",
"552 15 OFFCURVE",
"603 59 CURVE",
"584 96 LINE",
"523 54 OFFCURVE",
"451 37 OFFCURVE",
"401 37 CURVE SMOOTH",
"249 37 OFFCURVE",
"180 161 OFFCURVE",
"180 350 CURVE SMOOTH",
"180 538 OFFCURVE",
"261 663 OFFCURVE",
"413 663 CURVE SMOOTH",
"462 663 OFFCURVE",
"505 649 OFFCURVE",
"539 622 CURVE",
"543 581 OFFCURVE",
"551 528 OFFCURVE",
"562 496 CURVE",
"595 496 LINE",
"607 634 LINE",
"557 681 OFFCURVE",
"488 710 OFFCURVE",
"378 710 CURVE SMOOTH",
"159 710 OFFCURVE",
"42 572 OFFCURVE",
"42 350 CURVE SMOOTH",
"42 127 OFFCURVE",
"155 -10 OFFCURVE",
"381 -10 CURVE SMOOTH"
);
},
{
closed = 1;
nodes = (
"306 813 OFFCURVE",
"364 868 OFFCURVE",
"388 904 CURVE",
"392 904 LINE",
"417 868 OFFCURVE",
"474 813 OFFCURVE",
"514 782 CURVE",
"568 823 LINE",
"525 851 OFFCURVE",
"447 922 OFFCURVE",
"421 959 CURVE",
"359 959 LINE",
"333 922 OFFCURVE",
"255 851 OFFCURVE",
"212 823 CURVE",
"266 782 LINE"
);
}
);
width = 649;
}
);
leftKerningGroup = C;
note = Ccircumflex;
unicode = 0108;
},
{
glyphname = Cdotaccent;
lastChange = "2015-10-27 10:05:37 +0000";
layers = (
{
layerId = "79FE4770-DCAD-4138-A5DB-2166FBC61C29";
name = Bold;
paths = (
{
closed = 1;
nodes = (
"472 -10 OFFCURVE",
"552 15 OFFCURVE",
"603 59 CURVE",
"584 96 LINE",
"523 54 OFFCURVE",
"451 37 OFFCURVE",
"401 37 CURVE SMOOTH",
"249 37 OFFCURVE",
"180 161 OFFCURVE",
"180 350 CURVE SMOOTH",
"180 538 OFFCURVE",
"261 663 OFFCURVE",
"413 663 CURVE SMOOTH",
"462 663 OFFCURVE",
"505 649 OFFCURVE",
"539 622 CURVE",
"543 581 OFFCURVE",
"551 528 OFFCURVE",
"562 496 CURVE",
"595 496 LINE",
"607 634 LINE",
"557 681 OFFCURVE",
"488 710 OFFCURVE",
"378 710 CURVE SMOOTH",
"159 710 OFFCURVE",
"42 572 OFFCURVE",
"42 350 CURVE SMOOTH",
"42 127 OFFCURVE",
"155 -10 OFFCURVE",
"381 -10 CURVE SMOOTH"
);
},
{
closed = 1;
nodes = (
"434 785 OFFCURVE",
"456 809 OFFCURVE",
"456 841 CURVE SMOOTH",
"456 874 OFFCURVE",
"434 898 OFFCURVE",
"401 898 CURVE SMOOTH",
"366 898 OFFCURVE",
"345 874 OFFCURVE",
"345 841 CURVE SMOOTH",
"345 809 OFFCURVE",
"366 785 OFFCURVE",
"401 785 CURVE SMOOTH"
);
}
);
width = 649;
}
);
leftKerningGroup = C;
note = Cdotaccent;
unicode = 010A;
},
{
glyphname = D;
lastChange = "2015-10-27 10:05:37 +0000";
layers = (
{
layerId = "79FE4770-DCAD-4138-A5DB-2166FBC61C29";
name = Bold;
paths = (
{
closed = 1;
nodes = (
"353 0 LINE SMOOTH",
"574 0 OFFCURVE",
"664 127 OFFCURVE",
"664 350 CURVE SMOOTH",
"664 573 OFFCURVE",
"575 700 OFFCURVE",
"354 700 CURVE SMOOTH",
"33 700 LINE",
"33 684 LINE",
"60 675 OFFCURVE",
"87 668 OFFCURVE",
"112 663 CURVE",
"112 37 LINE",
"89 34 OFFCURVE",
"59 25 OFFCURVE",
"33 17 CURVE",
"33 0 LINE"
);
},
{
closed = 1;
nodes = (
"246 654 LINE",
"353 654 LINE SMOOTH",
"484 654 OFFCURVE",
"526 532 OFFCURVE",
"526 350 CURVE SMOOTH",
"526 167 OFFCURVE",
"484 44 OFFCURVE",
"351 44 CURVE SMOOTH",
"246 44 LINE"
);
}
);
width = 700;
}
);
note = D;
rightKerningGroup = D;
unicode = 0044;
},
{
glyphname = Eth;
lastChange = "2015-10-27 10:05:37 +0000";
layers = (
{
layerId = "79FE4770-DCAD-4138-A5DB-2166FBC61C29";
name = Bold;
paths = (
{
closed = 1;
nodes = (
"353 0 LINE SMOOTH",
"574 0 OFFCURVE",
"664 127 OFFCURVE",
"664 350 CURVE SMOOTH",
"664 573 OFFCURVE",
"575 700 OFFCURVE",
"354 700 CURVE SMOOTH",
"33 700 LINE",
"33 684 LINE",
"60 675 OFFCURVE",
"87 668 OFFCURVE",
"112 663 CURVE",
"112 37 LINE",
"89 34 OFFCURVE",
"59 25 OFFCURVE",
"33 17 CURVE",
"33 0 LINE"
);
},
{
closed = 1;
nodes = (
"398 311 LINE",
"398 355 LINE",
"45 355 LINE",
"45 311 LINE"
);
},
{
closed = 1;
nodes = (
"246 654 LINE",
"353 654 LINE SMOOTH",
"484 654 OFFCURVE",
"526 532 OFFCURVE",
"526 350 CURVE SMOOTH",
"526 167 OFFCURVE",
"484 44 OFFCURVE",
"351 44 CURVE SMOOTH",
"246 44 LINE"
);
}
);
width = 701;
}
);
note = Eth;
rightKerningGroup = D;
unicode = 00D0;
},
{
glyphname = Dcaron;
lastChange = "2015-10-27 10:05:38 +0000";
layers = (
{
layerId = "79FE4770-DCAD-4138-A5DB-2166FBC61C29";
name = Bold;
paths = (
{
closed = 1;
nodes = (
"353 0 LINE SMOOTH",
"574 0 OFFCURVE",
"664 127 OFFCURVE",
"664 350 CURVE SMOOTH",
"664 573 OFFCURVE",
"575 700 OFFCURVE",
"354 700 CURVE SMOOTH",
"33 700 LINE",
"33 684 LINE",
"60 675 OFFCURVE",
"87 668 OFFCURVE",
"112 663 CURVE",
"112 37 LINE",
"89 34 OFFCURVE",
"59 25 OFFCURVE",
"33 17 CURVE",
"33 0 LINE"
);
},
{
closed = 1;
nodes = (
"246 654 LINE",
"353 654 LINE SMOOTH",
"484 654 OFFCURVE",
"526 532 OFFCURVE",
"526 350 CURVE SMOOTH",
"526 167 OFFCURVE",
"484 44 OFFCURVE",
"351 44 CURVE SMOOTH",
"246 44 LINE"
);
},
{
closed = 1;
nodes = (
"373 786 LINE",
"399 824 OFFCURVE",
"477 894 OFFCURVE",
"520 922 CURVE",
"466 963 LINE",
"426 932 OFFCURVE",
"369 877 OFFCURVE",
"344 841 CURVE",
"340 841 LINE",
"316 877 OFFCURVE",
"258 932 OFFCURVE",
"218 963 CURVE",
"164 922 LINE",
"207 894 OFFCURVE",
"285 824 OFFCURVE",
"311 786 CURVE"
);
}
);
width = 700;
}
);
note = Dcaron;
rightKerningGroup = D;
unicode = 010E;
},
{
glyphname = Dcroat;
lastChange = "2015-10-27 10:05:38 +0000";
layers = (
{
layerId = "79FE4770-DCAD-4138-A5DB-2166FBC61C29";
name = Bold;
paths = (
{
closed = 1;
nodes = (
"353 0 LINE SMOOTH",
"574 0 OFFCURVE",
"664 127 OFFCURVE",
"664 350 CURVE SMOOTH",
"664 573 OFFCURVE",
"575 700 OFFCURVE",
"354 700 CURVE SMOOTH",
"33 700 LINE",
"33 684 LINE",
"60 675 OFFCURVE",
"87 668 OFFCURVE",
"112 663 CURVE",
"112 37 LINE",
"89 34 OFFCURVE",
"59 25 OFFCURVE",
"33 17 CURVE",
"33 0 LINE"
);
},
{
closed = 1;
nodes = (
"398 311 LINE",
"398 355 LINE",
"45 355 LINE",
"45 311 LINE"
);
},
{
closed = 1;
nodes = (
"246 654 LINE",
"353 654 LINE SMOOTH",
"484 654 OFFCURVE",
"526 532 OFFCURVE",
"526 350 CURVE SMOOTH",
"526 167 OFFCURVE",
"484 44 OFFCURVE",
"351 44 CURVE SMOOTH",
"246 44 LINE"
);
}
);
width = 700;
}
);
note = Dcroat;
rightKerningGroup = D;
unicode = 0110;
},
{
glyphname = Ddotbelow;
lastChange = "2015-10-27 10:05:37 +0000";
layers = (
{
layerId = "79FE4770-DCAD-4138-A5DB-2166FBC61C29";
name = Bold;
paths = (
{
closed = 1;
nodes = (
"353 0 LINE SMOOTH",
"574 0 OFFCURVE",
"664 127 OFFCURVE",
"664 350 CURVE SMOOTH",
"664 573 OFFCURVE",
"575 700 OFFCURVE",
"354 700 CURVE SMOOTH",
"33 700 LINE",
"33 684 LINE",
"60 675 OFFCURVE",
"87 668 OFFCURVE",
"112 663 CURVE",
"112 37 LINE",
"89 34 OFFCURVE",
"59 25 OFFCURVE",
"33 17 CURVE",
"33 0 LINE"
);
},
{
closed = 1;
nodes = (
"377 -169 OFFCURVE",
"399 -145 OFFCURVE",
"399 -113 CURVE SMOOTH",
"399 -80 OFFCURVE",
"377 -56 OFFCURVE",
"343 -56 CURVE SMOOTH",
"309 -56 OFFCURVE",
"287 -80 OFFCURVE",
"287 -113 CURVE SMOOTH",
"287 -145 OFFCURVE",
"309 -169 OFFCURVE",
"343 -169 CURVE SMOOTH"
);
},
{
closed = 1;
nodes = (
"246 654 LINE",
"353 654 LINE SMOOTH",
"484 654 OFFCURVE",
"526 532 OFFCURVE",
"526 350 CURVE SMOOTH",
"526 167 OFFCURVE",
"484 44 OFFCURVE",
"351 44 CURVE SMOOTH",
"246 44 LINE"
);
}
);
width = 700;
}
);
note = Ddotbelow;
rightKerningGroup = D;
unicode = 1E0C;
},
{
glyphname = Dlinebelow;
lastChange = "2015-10-27 10:05:37 +0000";
layers = (
{
layerId = "79FE4770-DCAD-4138-A5DB-2166FBC61C29";
name = Bold;
paths = (
{
closed = 1;
nodes = (
"353 0 LINE SMOOTH",
"574 0 OFFCURVE",
"664 127 OFFCURVE",
"664 350 CURVE SMOOTH",
"664 573 OFFCURVE",
"575 700 OFFCURVE",
"354 700 CURVE SMOOTH",
"33 700 LINE",
"33 684 LINE",
"60 675 OFFCURVE",
"87 668 OFFCURVE",
"112 663 CURVE",
"112 37 LINE",
"89 34 OFFCURVE",
"59 25 OFFCURVE",
"33 17 CURVE",
"33 0 LINE"
);
},
{
closed = 1;
nodes = (
"519 -107 LINE",
"519 -64 LINE",
"148 -64 LINE",
"148 -107 LINE"
);
},
{
closed = 1;
nodes = (
"246 654 LINE",
"353 654 LINE SMOOTH",
"484 654 OFFCURVE",
"526 532 OFFCURVE",
"526 350 CURVE SMOOTH",
"526 167 OFFCURVE",
"484 44 OFFCURVE",
"351 44 CURVE SMOOTH",
"246 44 LINE"
);
}
);
width = 700;
}
);
note = Dlinebelow;
rightKerningGroup = D;
unicode = 1E0E;
},
{
glyphname = E;
lastChange = "2015-10-27 10:05:38 +0000";
layers = (
{
layerId = "79FE4770-DCAD-4138-A5DB-2166FBC61C29";
name = Bold;
paths = (
{
closed = 1;
nodes = (
"585 0 LINE",
"602 165 LINE",
"572 165 LINE",
"557 144 OFFCURVE",
"529 78 OFFCURVE",
"526 44 CURVE",
"254 44 LINE",
"254 654 LINE",
"521 654 LINE",
"523 625 OFFCURVE",
"543 555 OFFCURVE",
"556 533 CURVE",
"586 533 LINE",
"586 700 LINE",
"33 700 LINE",
"33 684 LINE",
"61 675 OFFCURVE",
"92 667 OFFCURVE",
"118 663 CURVE",
"118 37 LINE",
"92 34 OFFCURVE",
"59 25 OFFCURVE",
"33 16 CURVE",
"33 0 LINE"
);
},
{
closed = 1;
nodes = (
"481 237 LINE",
"481 453 LINE",
"459 453 LINE",
"448 426 OFFCURVE",
"441 386 OFFCURVE",
"439 368 CURVE",
"168 368 LINE",
"168 322 LINE",
"439 322 LINE",
"441 305 OFFCURVE",
"448 265 OFFCURVE",
"459 237 CURVE"
);
}
);
width = 644;
}
);
note = E;
unicode = 0045;
},
{
glyphname = Eacute;
lastChange = "2015-10-27 10:05:38 +0000";
layers = (
{
layerId = "79FE4770-DCAD-4138-A5DB-2166FBC61C29";
name = Bold;
paths = (
{
closed = 1;
nodes = (
"585 0 LINE",
"602 165 LINE",
"572 165 LINE",
"557 144 OFFCURVE",
"529 78 OFFCURVE",
"526 44 CURVE",
"254 44 LINE",
"254 654 LINE",
"521 654 LINE",
"523 625 OFFCURVE",
"543 555 OFFCURVE",
"556 533 CURVE",
"586 533 LINE",
"586 700 LINE",
"33 700 LINE",
"33 684 LINE",
"61 675 OFFCURVE",
"92 667 OFFCURVE",
"118 663 CURVE",
"118 37 LINE",
"92 34 OFFCURVE",
"59 25 OFFCURVE",
"33 16 CURVE",
"33 0 LINE"
);
},
{
closed = 1;
nodes = (
"481 237 LINE",
"481 453 LINE",
"459 453 LINE",
"448 426 OFFCURVE",
"441 386 OFFCURVE",
"439 368 CURVE",
"168 368 LINE",
"168 322 LINE",
"439 322 LINE",
"441 305 OFFCURVE",
"448 265 OFFCURVE",
"459 237 CURVE"
);
},
{
closed = 1;
nodes = (
"423 875 LINE SMOOTH",
"452 892 OFFCURVE",
"467 909 OFFCURVE",
"467 930 CURVE SMOOTH",
"467 947 OFFCURVE",
"456 967 OFFCURVE",
"426 967 CURVE SMOOTH",
"396 967 OFFCURVE",
"373 943 OFFCURVE",
"367 936 CURVE",
"247 817 LINE",
"269 786 LINE"
);
}
);
width = 644;
}
);
note = Eacute;
unicode = 00C9;
},
{
glyphname = Ebreve;
lastChange = "2015-10-27 10:05:37 +0000";
layers = (
{
layerId = "79FE4770-DCAD-4138-A5DB-2166FBC61C29";
name = Bold;
paths = (
{
closed = 1;
nodes = (
"585 0 LINE",
"602 165 LINE",
"572 165 LINE",
"557 144 OFFCURVE",
"529 78 OFFCURVE",
"526 44 CURVE",
"254 44 LINE",
"254 654 LINE",
"521 654 LINE",
"523 625 OFFCURVE",
"543 555 OFFCURVE",
"556 533 CURVE",
"586 533 LINE",
"586 700 LINE",
"33 700 LINE",
"33 684 LINE",
"61 675 OFFCURVE",
"92 667 OFFCURVE",
"118 663 CURVE",
"118 37 LINE",
"92 34 OFFCURVE",
"59 25 OFFCURVE",
"33 16 CURVE",
"33 0 LINE"
);
},
{
closed = 1;
nodes = (
"481 237 LINE",
"481 453 LINE",
"459 453 LINE",
"448 426 OFFCURVE",
"441 386 OFFCURVE",
"439 368 CURVE",
"168 368 LINE",
"168 322 LINE",
"439 322 LINE",
"441 305 OFFCURVE",
"448 265 OFFCURVE",
"459 237 CURVE"
);
},
{
closed = 1;
nodes = (
"458 780 OFFCURVE",
"524 822 OFFCURVE",
"537 911 CURVE",
"461 911 LINE",
"453 837 OFFCURVE",
"406 827 OFFCURVE",
"365 827 CURVE SMOOTH",
"324 827 OFFCURVE",
"276 837 OFFCURVE",
"268 911 CURVE",
"192 911 LINE",
"206 822 OFFCURVE",
"271 780 OFFCURVE",
"365 780 CURVE SMOOTH"
);
}
);
width = 644;
}
);
note = Ebreve;
unicode = 0114;
},
{
glyphname = Ecaron;
lastChange = "2015-10-27 10:05:37 +0000";
layers = (
{
layerId = "79FE4770-DCAD-4138-A5DB-2166FBC61C29";
name = Bold;
paths = (
{
closed = 1;
nodes = (
"585 0 LINE",
"602 165 LINE",
"572 165 LINE",
"557 144 OFFCURVE",
"529 78 OFFCURVE",
"526 44 CURVE",
"254 44 LINE",
"254 654 LINE",
"521 654 LINE",
"523 625 OFFCURVE",
"543 555 OFFCURVE",
"556 533 CURVE",
"586 533 LINE",
"586 700 LINE",
"33 700 LINE",
"33 684 LINE",
"61 675 OFFCURVE",
"92 667 OFFCURVE",
"118 663 CURVE",
"118 37 LINE",
"92 34 OFFCURVE",
"59 25 OFFCURVE",
"33 16 CURVE",
"33 0 LINE"
);
},
{
closed = 1;
nodes = (
"481 237 LINE",
"481 453 LINE",
"459 453 LINE",
"448 426 OFFCURVE",
"441 386 OFFCURVE",
"439 368 CURVE",
"168 368 LINE",
"168 322 LINE",
"439 322 LINE",
"441 305 OFFCURVE",
"448 265 OFFCURVE",
"459 237 CURVE"
);
},
{
closed = 1;
nodes = (
"392 786 LINE",
"418 824 OFFCURVE",
"496 894 OFFCURVE",
"539 922 CURVE",
"485 963 LINE",
"445 932 OFFCURVE",
"388 877 OFFCURVE",
"363 841 CURVE",
"359 841 LINE",
"335 877 OFFCURVE",
"277 932 OFFCURVE",
"237 963 CURVE",
"183 922 LINE",
"226 894 OFFCURVE",
"304 824 OFFCURVE",
"330 786 CURVE"
);
}
);
width = 644;
}
);
note = Ecaron;
unicode = 011A;
},
{
glyphname = Ecircumflex;
lastChange = "2015-10-27 10:05:38 +0000";
layers = (
{
layerId = "79FE4770-DCAD-4138-A5DB-2166FBC61C29";
name = Bold;
paths = (
{
closed = 1;
nodes = (
"585 0 LINE",
"602 165 LINE",
"572 165 LINE",
"557 144 OFFCURVE",
"529 78 OFFCURVE",
"526 44 CURVE",
"254 44 LINE",
"254 654 LINE",
"521 654 LINE",
"523 625 OFFCURVE",
"543 555 OFFCURVE",
"556 533 CURVE",
"586 533 LINE",
"586 700 LINE",
"33 700 LINE",
"33 684 LINE",
"61 675 OFFCURVE",
"92 667 OFFCURVE",
"118 663 CURVE",
"118 37 LINE",
"92 34 OFFCURVE",
"59 25 OFFCURVE",
"33 16 CURVE",
"33 0 LINE"
);
},
{
closed = 1;
nodes = (
"481 237 LINE",
"481 453 LINE",
"459 453 LINE",
"448 426 OFFCURVE",
"441 386 OFFCURVE",
"439 368 CURVE",
"168 368 LINE",
"168 322 LINE",
"439 322 LINE",
"441 305 OFFCURVE",
"448 265 OFFCURVE",
"459 237 CURVE"
);
},
{
closed = 1;
nodes = (
"275 813 OFFCURVE",
"333 868 OFFCURVE",
"357 904 CURVE",
"361 904 LINE",
"386 868 OFFCURVE",
"443 813 OFFCURVE",
"483 782 CURVE",
"537 823 LINE",
"494 851 OFFCURVE",
"416 922 OFFCURVE",
"390 959 CURVE",
"328 959 LINE",
"302 922 OFFCURVE",
"224 851 OFFCURVE",
"181 823 CURVE",
"235 782 LINE"
);
}
);
width = 644;
}
);
note = Ecircumflex;
unicode = 00CA;
},
{
glyphname = Ecircumflexacute;
lastChange = "2015-10-27 10:05:38 +0000";
layers = (
{
layerId = "79FE4770-DCAD-4138-A5DB-2166FBC61C29";
name = Bold;
paths = (
{
closed = 1;
nodes = (
"585 0 LINE",
"602 165 LINE",
"572 165 LINE",
"557 144 OFFCURVE",
"529 78 OFFCURVE",
"526 44 CURVE",
"254 44 LINE",
"254 654 LINE",
"521 654 LINE",
"523 625 OFFCURVE",
"543 555 OFFCURVE",
"556 533 CURVE",
"586 533 LINE",
"586 700 LINE",
"33 700 LINE",
"33 684 LINE",
"61 675 OFFCURVE",
"92 667 OFFCURVE",
"118 663 CURVE",
"118 37 LINE",
"92 34 OFFCURVE",
"59 25 OFFCURVE",
"33 16 CURVE",
"33 0 LINE"
);
},
{
closed = 1;
nodes = (
"481 237 LINE",
"481 453 LINE",
"459 453 LINE",
"448 426 OFFCURVE",
"441 386 OFFCURVE",
"439 368 CURVE",
"168 368 LINE",
"168 322 LINE",
"439 322 LINE",
"441 305 OFFCURVE",
"448 265 OFFCURVE",
"459 237 CURVE"
);
},
{
closed = 1;
nodes = (
"260 813 OFFCURVE",
"316 868 OFFCURVE",
"341 904 CURVE",
"345 904 LINE",
"370 868 OFFCURVE",
"427 813 OFFCURVE",
"467 782 CURVE",
"521 823 LINE",
"479 851 OFFCURVE",
"400 922 OFFCURVE",
"374 959 CURVE",
"312 959 LINE",
"286 922 OFFCURVE",
"208 851 OFFCURVE",
"165 823 CURVE",
"220 782 LINE"
);
},
{
closed = 1;
nodes = (
"581 967 LINE SMOOTH",
"621 987 OFFCURVE",
"639 1012 OFFCURVE",
"639 1033 CURVE SMOOTH",
"639 1050 OFFCURVE",
"626 1066 OFFCURVE",
"602 1066 CURVE SMOOTH",
"580 1066 OFFCURVE",
"555 1051 OFFCURVE",
"531 1024 CURVE SMOOTH",
"457 942 LINE",
"478 915 LINE"
);
}
);
width = 644;
}
);
note = Ecircumflexacute;
unicode = 1EBE;
},
{
glyphname = Ecircumflexdotbelow;
lastChange = "2015-10-27 10:05:37 +0000";
layers = (
{
layerId = "79FE4770-DCAD-4138-A5DB-2166FBC61C29";
name = Bold;
paths = (
{
closed = 1;
nodes = (
"585 0 LINE",
"602 165 LINE",
"572 165 LINE",
"557 144 OFFCURVE",
"529 78 OFFCURVE",
"526 44 CURVE",
"254 44 LINE",
"254 654 LINE",
"521 654 LINE",
"523 625 OFFCURVE",
"543 555 OFFCURVE",
"556 533 CURVE",
"586 533 LINE",
"586 700 LINE",
"33 700 LINE",
"33 684 LINE",
"61 675 OFFCURVE",
"92 667 OFFCURVE",
"118 663 CURVE",
"118 37 LINE",
"92 34 OFFCURVE",
"59 25 OFFCURVE",
"33 16 CURVE",
"33 0 LINE"
);
},
{
closed = 1;
nodes = (
"379 -169 OFFCURVE",
"401 -145 OFFCURVE",
"401 -113 CURVE SMOOTH",
"401 -80 OFFCURVE",
"379 -56 OFFCURVE",
"345 -56 CURVE SMOOTH",
"311 -56 OFFCURVE",
"289 -80 OFFCURVE",
"289 -113 CURVE SMOOTH",
"289 -145 OFFCURVE",
"311 -169 OFFCURVE",
"345 -169 CURVE SMOOTH"
);
},
{
closed = 1;
nodes = (
"481 237 LINE",
"481 453 LINE",
"459 453 LINE",
"448 426 OFFCURVE",
"441 386 OFFCURVE",
"439 368 CURVE",
"168 368 LINE",
"168 322 LINE",
"439 322 LINE",
"441 305 OFFCURVE",
"448 265 OFFCURVE",
"459 237 CURVE"
);
},
{
closed = 1;
nodes = (
"259 813 OFFCURVE",
"317 868 OFFCURVE",
"341 904 CURVE",
"345 904 LINE",
"370 868 OFFCURVE",
"427 813 OFFCURVE",
"467 782 CURVE",
"521 823 LINE",
"478 851 OFFCURVE",
"400 922 OFFCURVE",
"374 959 CURVE",
"312 959 LINE",
"286 922 OFFCURVE",
"208 851 OFFCURVE",
"165 823 CURVE",
"219 782 LINE"
);
}
);
width = 644;
}
);
note = Ecircumflexdotbelow;
unicode = 1EC6;
},
{
glyphname = Ecircumflexgrave;
lastChange = "2015-10-27 10:05:37 +0000";
layers = (
{
layerId = "79FE4770-DCAD-4138-A5DB-2166FBC61C29";
name = Bold;
paths = (
{
closed = 1;
nodes = (
"585 0 LINE",
"602 165 LINE",
"572 165 LINE",
"557 144 OFFCURVE",
"529 78 OFFCURVE",
"526 44 CURVE",
"254 44 LINE",
"254 654 LINE",
"521 654 LINE",
"523 625 OFFCURVE",
"543 555 OFFCURVE",
"556 533 CURVE",
"586 533 LINE",
"586 700 LINE",
"33 700 LINE",
"33 684 LINE",
"61 675 OFFCURVE",
"92 667 OFFCURVE",
"118 663 CURVE",
"118 37 LINE",
"92 34 OFFCURVE",
"59 25 OFFCURVE",
"33 16 CURVE",
"33 0 LINE"
);
},
{
closed = 1;
nodes = (
"481 237 LINE",
"481 453 LINE",
"459 453 LINE",
"448 426 OFFCURVE",
"441 386 OFFCURVE",
"439 368 CURVE",
"168 368 LINE",
"168 322 LINE",
"439 322 LINE",
"441 305 OFFCURVE",
"448 265 OFFCURVE",
"459 237 CURVE"
);
},
{
closed = 1;
nodes = (
"232 942 LINE",
"159 1024 LINE SMOOTH",
"134 1051 OFFCURVE",
"109 1066 OFFCURVE",
"87 1066 CURVE SMOOTH",
"63 1066 OFFCURVE",
"50 1050 OFFCURVE",
"50 1033 CURVE SMOOTH",
"50 1012 OFFCURVE",
"69 988 OFFCURVE",
"109 967 CURVE SMOOTH",
"211 915 LINE"
);
},
{
closed = 1;
nodes = (
"260 813 OFFCURVE",
"316 868 OFFCURVE",
"341 904 CURVE",
"345 904 LINE",
"370 868 OFFCURVE",
"427 813 OFFCURVE",
"467 782 CURVE",
"521 823 LINE",
"479 851 OFFCURVE",
"400 922 OFFCURVE",
"374 959 CURVE",
"312 959 LINE",
"286 922 OFFCURVE",
"208 851 OFFCURVE",
"165 823 CURVE",
"220 782 LINE"
);
}
);
width = 644;
}
);
note = Ecircumflexgrave;
unicode = 1EC0;
},
{
glyphname = Ecircumflexhookabove;
lastChange = "2015-10-27 10:05:37 +0000";
layers = (
{
layerId = "79FE4770-DCAD-4138-A5DB-2166FBC61C29";
name = Bold;
paths = (
{
closed = 1;
nodes = (
"585 0 LINE",
"602 165 LINE",
"572 165 LINE",
"557 144 OFFCURVE",
"529 78 OFFCURVE",
"526 44 CURVE",
"254 44 LINE",
"254 654 LINE",
"521 654 LINE",
"523 625 OFFCURVE",
"543 555 OFFCURVE",
"556 533 CURVE",
"586 533 LINE",
"586 700 LINE",
"33 700 LINE",
"33 684 LINE",
"61 675 OFFCURVE",
"92 667 OFFCURVE",
"118 663 CURVE",
"118 37 LINE",
"92 34 OFFCURVE",
"59 25 OFFCURVE",
"33 16 CURVE",
"33 0 LINE"
);
},
{
closed = 1;
nodes = (
"481 237 LINE",
"481 453 LINE",
"459 453 LINE",
"448 426 OFFCURVE",
"441 386 OFFCURVE",
"439 368 CURVE",
"168 368 LINE",
"168 322 LINE",
"439 322 LINE",
"441 305 OFFCURVE",
"448 265 OFFCURVE",
"459 237 CURVE"
);
},
{
closed = 1;
nodes = (
"260 813 OFFCURVE",
"316 868 OFFCURVE",
"341 904 CURVE",
"345 904 LINE",
"370 868 OFFCURVE",
"427 813 OFFCURVE",
"467 782 CURVE",
"521 823 LINE",
"479 851 OFFCURVE",
"400 922 OFFCURVE",
"374 959 CURVE",
"312 959 LINE",
"286 922 OFFCURVE",
"208 851 OFFCURVE",
"165 823 CURVE",
"220 782 LINE"
);
},
{
closed = 1;
nodes = (
"505 918 LINE",
"514 969 LINE",
"560 973 OFFCURVE",
"594 992 OFFCURVE",
"594 1040 CURVE SMOOTH",
"594 1093 OFFCURVE",
"544 1114 OFFCURVE",
"494 1114 CURVE SMOOTH",
"466 1114 OFFCURVE",
"439 1107 OFFCURVE",
"422 1100 CURVE",
"428 1067 LINE",
"445 1075 OFFCURVE",
"465 1079 OFFCURVE",
"481 1079 CURVE SMOOTH",
"516 1079 OFFCURVE",
"534 1062 OFFCURVE",
"534 1041 CURVE SMOOTH",
"534 1010 OFFCURVE",
"510 997 OFFCURVE",
"482 997 CURVE SMOOTH",
"453 997 LINE",
"457 918 LINE"
);
}
);
width = 644;
}
);
note = Ecircumflexhookabove;
unicode = 1EC2;
},
{
glyphname = Ecircumflextilde;
lastChange = "2015-10-27 10:05:37 +0000";
layers = (
{
layerId = "79FE4770-DCAD-4138-A5DB-2166FBC61C29";
name = Bold;
paths = (
{
closed = 1;
nodes = (
"585 0 LINE",
"602 165 LINE",
"572 165 LINE",
"557 144 OFFCURVE",
"529 78 OFFCURVE",
"526 44 CURVE",
"254 44 LINE",
"254 654 LINE",
"521 654 LINE",
"523 625 OFFCURVE",
"543 555 OFFCURVE",
"556 533 CURVE",
"586 533 LINE",
"586 700 LINE",
"33 700 LINE",
"33 684 LINE",
"61 675 OFFCURVE",
"92 667 OFFCURVE",
"118 663 CURVE",
"118 37 LINE",
"92 34 OFFCURVE",
"59 25 OFFCURVE",
"33 16 CURVE",
"33 0 LINE"
);
},
{
closed = 1;
nodes = (
"481 237 LINE",
"481 453 LINE",
"459 453 LINE",
"448 426 OFFCURVE",
"441 386 OFFCURVE",
"439 368 CURVE",
"168 368 LINE",
"168 322 LINE",
"439 322 LINE",
"441 305 OFFCURVE",
"448 265 OFFCURVE",
"459 237 CURVE"
);
},
{
closed = 1;
nodes = (
"260 813 OFFCURVE",
"316 868 OFFCURVE",
"341 904 CURVE",
"345 904 LINE",
"370 868 OFFCURVE",
"427 813 OFFCURVE",
"467 782 CURVE",
"521 823 LINE",
"479 851 OFFCURVE",
"400 922 OFFCURVE",
"374 959 CURVE",
"312 959 LINE",
"286 922 OFFCURVE",
"208 851 OFFCURVE",
"165 823 CURVE",
"220 782 LINE"
);
},
{
closed = 1;
nodes = (
"210 988 LINE",
"217 1021 OFFCURVE",
"242 1042 OFFCURVE",
"273 1042 CURVE SMOOTH",
"315 1042 OFFCURVE",
"365 989 OFFCURVE",
"421 989 CURVE SMOOTH",
"491 989 OFFCURVE",
"526 1033 OFFCURVE",
"534 1101 CURVE",
"489 1101 LINE",
"479 1057 OFFCURVE",
"447 1045 OFFCURVE",
"421 1045 CURVE SMOOTH",
"380 1045 OFFCURVE",
"343 1098 OFFCURVE",
"277 1098 CURVE SMOOTH",
"214 1098 OFFCURVE",
"174 1062 OFFCURVE",
"164 988 CURVE"
);
}
);
width = 644;
}
);
note = Ecircumflextilde;
unicode = 1EC4;
},
{
glyphname = Edieresis;
lastChange = "2015-10-27 10:05:38 +0000";
layers = (
{
layerId = "79FE4770-DCAD-4138-A5DB-2166FBC61C29";
name = Bold;
paths = (
{
closed = 1;
nodes = (
"585 0 LINE",
"602 165 LINE",
"572 165 LINE",
"557 144 OFFCURVE",
"529 78 OFFCURVE",
"526 44 CURVE",
"254 44 LINE",
"254 654 LINE",
"521 654 LINE",
"523 625 OFFCURVE",
"543 555 OFFCURVE",
"556 533 CURVE",
"586 533 LINE",
"586 700 LINE",
"33 700 LINE",
"33 684 LINE",
"61 675 OFFCURVE",
"92 667 OFFCURVE",
"118 663 CURVE",
"118 37 LINE",
"92 34 OFFCURVE",
"59 25 OFFCURVE",
"33 16 CURVE",
"33 0 LINE"
);
},
{
closed = 1;
nodes = (
"481 237 LINE",
"481 453 LINE",
"459 453 LINE",
"448 426 OFFCURVE",
"441 386 OFFCURVE",
"439 368 CURVE",
"168 368 LINE",
"168 322 LINE",
"439 322 LINE",
"441 305 OFFCURVE",
"448 265 OFFCURVE",
"459 237 CURVE"
);
},
{
closed = 1;
nodes = (
"284 785 OFFCURVE",
"306 809 OFFCURVE",
"306 841 CURVE SMOOTH",
"306 874 OFFCURVE",
"284 898 OFFCURVE",
"249 898 CURVE SMOOTH",
"216 898 OFFCURVE",
"194 874 OFFCURVE",
"194 841 CURVE SMOOTH",
"194 809 OFFCURVE",
"216 785 OFFCURVE",
"249 785 CURVE SMOOTH"
);
},
{
closed = 1;
nodes = (
"517 785 OFFCURVE",
"539 809 OFFCURVE",
"539 841 CURVE SMOOTH",
"539 874 OFFCURVE",
"517 898 OFFCURVE",
"483 898 CURVE SMOOTH",
"448 898 OFFCURVE",
"427 874 OFFCURVE",
"427 841 CURVE SMOOTH",
"427 809 OFFCURVE",
"448 785 OFFCURVE",
"483 785 CURVE SMOOTH"
);
}
);
width = 644;
}
);
note = Edieresis;
unicode = 00CB;
},
{
glyphname = Edotaccent;
lastChange = "2015-10-27 10:05:37 +0000";
layers = (
{
layerId = "79FE4770-DCAD-4138-A5DB-2166FBC61C29";
name = Bold;
paths = (
{
closed = 1;
nodes = (
"585 0 LINE",
"602 165 LINE",
"572 165 LINE",
"557 144 OFFCURVE",
"529 78 OFFCURVE",
"526 44 CURVE",
"254 44 LINE",
"254 654 LINE",
"521 654 LINE",
"523 625 OFFCURVE",
"543 555 OFFCURVE",
"556 533 CURVE",
"586 533 LINE",
"586 700 LINE",
"33 700 LINE",
"33 684 LINE",
"61 675 OFFCURVE",
"92 667 OFFCURVE",
"118 663 CURVE",
"118 37 LINE",
"92 34 OFFCURVE",
"59 25 OFFCURVE",
"33 16 CURVE",
"33 0 LINE"
);
},
{
closed = 1;
nodes = (
"481 237 LINE",
"481 453 LINE",
"459 453 LINE",
"448 426 OFFCURVE",
"441 386 OFFCURVE",
"439 368 CURVE",
"168 368 LINE",
"168 322 LINE",
"439 322 LINE",
"441 305 OFFCURVE",
"448 265 OFFCURVE",
"459 237 CURVE"
);
},
{
closed = 1;
nodes = (
"402 785 OFFCURVE",
"424 809 OFFCURVE",
"424 841 CURVE SMOOTH",
"424 874 OFFCURVE",
"402 898 OFFCURVE",
"369 898 CURVE SMOOTH",
"334 898 OFFCURVE",
"313 874 OFFCURVE",
"313 841 CURVE SMOOTH",
"313 809 OFFCURVE",
"334 785 OFFCURVE",
"369 785 CURVE SMOOTH"
);
}
);
width = 644;
}
);
note = Edotaccent;
unicode = 0116;
},
{
glyphname = Edotbelow;
lastChange = "2015-10-27 10:05:37 +0000";
layers = (
{
layerId = "79FE4770-DCAD-4138-A5DB-2166FBC61C29";
name = Bold;
paths = (
{
closed = 1;
nodes = (
"585 0 LINE",
"602 165 LINE",
"572 165 LINE",
"557 144 OFFCURVE",
"529 78 OFFCURVE",
"526 44 CURVE",
"254 44 LINE",
"254 654 LINE",
"521 654 LINE",
"523 625 OFFCURVE",
"543 555 OFFCURVE",
"556 533 CURVE",
"586 533 LINE",
"586 700 LINE",
"33 700 LINE",
"33 684 LINE",
"61 675 OFFCURVE",
"92 667 OFFCURVE",
"118 663 CURVE",
"118 37 LINE",
"92 34 OFFCURVE",
"59 25 OFFCURVE",
"33 16 CURVE",
"33 0 LINE"
);
},
{
closed = 1;
nodes = (
"360 -169 OFFCURVE",
"382 -145 OFFCURVE",
"382 -113 CURVE SMOOTH",
"382 -80 OFFCURVE",
"360 -56 OFFCURVE",
"326 -56 CURVE SMOOTH",
"292 -56 OFFCURVE",
"270 -80 OFFCURVE",
"270 -113 CURVE SMOOTH",
"270 -145 OFFCURVE",
"292 -169 OFFCURVE",
"326 -169 CURVE SMOOTH"
);
},
{
closed = 1;
nodes = (
"481 237 LINE",
"481 453 LINE",
"459 453 LINE",
"448 426 OFFCURVE",
"441 386 OFFCURVE",
"439 368 CURVE",
"168 368 LINE",
"168 322 LINE",
"439 322 LINE",
"441 305 OFFCURVE",
"448 265 OFFCURVE",
"459 237 CURVE"
);
}
);
width = 644;
}
);
note = Edotbelow;
unicode = 1EB8;
},
{
glyphname = Egrave;
lastChange = "2015-10-27 10:05:38 +0000";
layers = (
{
layerId = "79FE4770-DCAD-4138-A5DB-2166FBC61C29";
name = Bold;
paths = (
{
closed = 1;
nodes = (
"585 0 LINE",
"602 165 LINE",
"572 165 LINE",
"557 144 OFFCURVE",
"529 78 OFFCURVE",
"526 44 CURVE",
"254 44 LINE",
"254 654 LINE",
"521 654 LINE",
"523 625 OFFCURVE",
"543 555 OFFCURVE",
"556 533 CURVE",
"586 533 LINE",
"586 700 LINE",
"33 700 LINE",
"33 684 LINE",
"61 675 OFFCURVE",
"92 667 OFFCURVE",
"118 663 CURVE",
"118 37 LINE",
"92 34 OFFCURVE",
"59 25 OFFCURVE",
"33 16 CURVE",
"33 0 LINE"
);
},
{
closed = 1;
nodes = (
"481 237 LINE",
"481 453 LINE",
"459 453 LINE",
"448 426 OFFCURVE",
"441 386 OFFCURVE",
"439 368 CURVE",
"168 368 LINE",
"168 322 LINE",
"439 322 LINE",
"441 305 OFFCURVE",
"448 265 OFFCURVE",
"459 237 CURVE"
);
},
{
closed = 1;
nodes = (
"468 817 LINE",
"347 937 LINE",
"340 945 OFFCURVE",
"314 967 OFFCURVE",
"286 967 CURVE SMOOTH",
"260 967 OFFCURVE",
"247 946 OFFCURVE",
"247 929 CURVE SMOOTH",
"247 908 OFFCURVE",
"263 892 OFFCURVE",
"292 875 CURVE SMOOTH",
"446 786 LINE"
);
}
);
width = 644;
}
);
note = Egrave;
unicode = 00C8;
},
{
glyphname = Ehookabove;
lastChange = "2015-10-27 10:05:38 +0000";
layers = (
{
layerId = "79FE4770-DCAD-4138-A5DB-2166FBC61C29";
name = Bold;
paths = (
{
closed = 1;
nodes = (
"585 0 LINE",
"602 165 LINE",
"572 165 LINE",
"557 144 OFFCURVE",
"529 78 OFFCURVE",
"526 44 CURVE",
"254 44 LINE",
"254 654 LINE",
"521 654 LINE",
"523 625 OFFCURVE",
"543 555 OFFCURVE",
"556 533 CURVE",
"586 533 LINE",
"586 700 LINE",
"33 700 LINE",
"33 684 LINE",
"61 675 OFFCURVE",
"92 667 OFFCURVE",
"118 663 CURVE",
"118 37 LINE",
"92 34 OFFCURVE",
"59 25 OFFCURVE",
"33 16 CURVE",
"33 0 LINE"
);
},
{
closed = 1;
nodes = (
"481 237 LINE",
"481 453 LINE",
"459 453 LINE",
"448 426 OFFCURVE",
"441 386 OFFCURVE",
"439 368 CURVE",
"168 368 LINE",
"168 322 LINE",
"439 322 LINE",
"441 305 OFFCURVE",
"448 265 OFFCURVE",
"459 237 CURVE"
);
},
{
closed = 1;
nodes = (
"380 781 LINE",
"390 849 LINE",
"444 854 OFFCURVE",
"482 876 OFFCURVE",
"482 931 CURVE SMOOTH",
"482 994 OFFCURVE",
"425 1018 OFFCURVE",
"368 1018 CURVE SMOOTH",
"336 1018 OFFCURVE",
"305 1010 OFFCURVE",
"285 1001 CURVE",
"292 965 LINE",
"313 976 OFFCURVE",
"335 981 OFFCURVE",
"353 981 CURVE SMOOTH",
"393 981 OFFCURVE",
"414 958 OFFCURVE",
"414 933 CURVE SMOOTH",
"414 897 OFFCURVE",
"386 881 OFFCURVE",
"354 881 CURVE SMOOTH",
"321 881 LINE",
"326 781 LINE"
);
}
);
width = 644;
}
);
note = Ehookabove;
unicode = 1EBA;
},
{
glyphname = Emacron;
lastChange = "2015-10-27 10:05:37 +0000";
layers = (
{
layerId = "79FE4770-DCAD-4138-A5DB-2166FBC61C29";
name = Bold;
paths = (
{
closed = 1;
nodes = (
"585 0 LINE",
"602 165 LINE",
"572 165 LINE",
"557 144 OFFCURVE",
"529 78 OFFCURVE",
"526 44 CURVE",
"254 44 LINE",
"254 654 LINE",
"521 654 LINE",
"523 625 OFFCURVE",
"543 555 OFFCURVE",
"556 533 CURVE",
"586 533 LINE",
"586 700 LINE",
"33 700 LINE",
"33 684 LINE",
"61 675 OFFCURVE",
"92 667 OFFCURVE",
"118 663 CURVE",
"118 37 LINE",
"92 34 OFFCURVE",
"59 25 OFFCURVE",
"33 16 CURVE",
"33 0 LINE"
);
},
{
closed = 1;
nodes = (
"481 237 LINE",
"481 453 LINE",
"459 453 LINE",
"448 426 OFFCURVE",
"441 386 OFFCURVE",
"439 368 CURVE",
"168 368 LINE",
"168 322 LINE",
"439 322 LINE",
"441 305 OFFCURVE",
"448 265 OFFCURVE",
"459 237 CURVE"
);
},
{
closed = 1;
nodes = (
"542 785 LINE",
"542 829 LINE",
"171 829 LINE",
"171 785 LINE"
);
}
);
width = 644;
}
);
note = Emacron;
unicode = 0112;
},
{
glyphname = Eogonek;
lastChange = "2015-10-27 10:05:37 +0000";
layers = (
{
layerId = "79FE4770-DCAD-4138-A5DB-2166FBC61C29";
name = Bold;
paths = (
{
closed = 1;
nodes = (
"585 0 LINE",
"602 165 LINE",
"572 165 LINE",
"557 144 OFFCURVE",
"529 78 OFFCURVE",
"526 44 CURVE",
"254 44 LINE",
"254 654 LINE",
"521 654 LINE",
"523 625 OFFCURVE",
"543 555 OFFCURVE",
"556 533 CURVE",
"586 533 LINE",
"586 700 LINE",
"33 700 LINE",
"33 684 LINE",
"61 675 OFFCURVE",
"92 667 OFFCURVE",
"118 663 CURVE",
"118 37 LINE",
"92 34 OFFCURVE",
"59 25 OFFCURVE",
"33 16 CURVE",
"33 0 LINE"
);
},
{
closed = 1;
nodes = (
"560 -200 OFFCURVE",
"598 -191 OFFCURVE",
"623 -177 CURVE",
"623 -121 LINE",
"600 -134 OFFCURVE",
"578 -140 OFFCURVE",
"560 -140 CURVE SMOOTH",
"524 -140 OFFCURVE",
"498 -120 OFFCURVE",
"498 -88 CURVE SMOOTH",
"498 -55 OFFCURVE",
"526 -19 OFFCURVE",
"554 0 CURVE",
"489 0 LINE",
"431 -19 OFFCURVE",
"398 -68 OFFCURVE",
"398 -113 CURVE SMOOTH",
"398 -163 OFFCURVE",
"442 -200 OFFCURVE",
"520 -200 CURVE SMOOTH"
);
},
{
closed = 1;
nodes = (
"481 237 LINE",
"481 453 LINE",
"459 453 LINE",
"448 426 OFFCURVE",
"441 386 OFFCURVE",
"439 368 CURVE",
"168 368 LINE",
"168 322 LINE",
"439 322 LINE",
"441 305 OFFCURVE",
"448 265 OFFCURVE",
"459 237 CURVE"
);
}
);
width = 644;
}
);
note = Eogonek;
unicode = 0118;
},
{
glyphname = Etilde;
lastChange = "2015-10-27 10:05:38 +0000";
layers = (
{
layerId = "79FE4770-DCAD-4138-A5DB-2166FBC61C29";
name = Bold;
paths = (
{
closed = 1;
nodes = (
"585 0 LINE",
"602 165 LINE",
"572 165 LINE",
"557 144 OFFCURVE",
"529 78 OFFCURVE",
"526 44 CURVE",
"254 44 LINE",
"254 654 LINE",
"521 654 LINE",
"523 625 OFFCURVE",
"543 555 OFFCURVE",
"556 533 CURVE",
"586 533 LINE",
"586 700 LINE",
"33 700 LINE",
"33 684 LINE",
"61 675 OFFCURVE",
"92 667 OFFCURVE",
"118 663 CURVE",
"118 37 LINE",
"92 34 OFFCURVE",
"59 25 OFFCURVE",
"33 16 CURVE",
"33 0 LINE"
);
},
{
closed = 1;
nodes = (
"481 237 LINE",
"481 453 LINE",
"459 453 LINE",
"448 426 OFFCURVE",
"441 386 OFFCURVE",
"439 368 CURVE",
"168 368 LINE",
"168 322 LINE",
"439 322 LINE",
"441 305 OFFCURVE",
"448 265 OFFCURVE",
"459 237 CURVE"
);
},
{
closed = 1;
nodes = (
"207 785 LINE",
"214 818 OFFCURVE",
"237 839 OFFCURVE",
"267 839 CURVE SMOOTH",
"305 839 OFFCURVE",
"366 785 OFFCURVE",
"422 785 CURVE SMOOTH",
"493 785 OFFCURVE",
"528 831 OFFCURVE",
"536 899 CURVE",
"484 899 LINE",
"474 854 OFFCURVE",
"447 843 OFFCURVE",
"420 843 CURVE SMOOTH",
"379 843 OFFCURVE",
"335 896 OFFCURVE",
"268 896 CURVE SMOOTH",
"205 896 OFFCURVE",
"164 859 OFFCURVE",
"154 785 CURVE"
);
}
);
width = 644;
}
);
note = Etilde;
unicode = 1EBC;
},
{
glyphname = F;
lastChange = "2015-10-27 10:05:37 +0000";
layers = (
{
layerId = "79FE4770-DCAD-4138-A5DB-2166FBC61C29";
name = Bold;
paths = (
{
closed = 1;
nodes = (
"340 0 LINE",
"340 15 LINE",
"312 25 OFFCURVE",
"279 32 OFFCURVE",
"254 36 CURVE",
"254 654 LINE",
"508 654 LINE",
"510 625 OFFCURVE",
"530 555 OFFCURVE",
"543 533 CURVE",
"573 533 LINE",
"573 700 LINE",
"33 700 LINE",
"33 684 LINE",
"61 674 OFFCURVE",
"94 667 OFFCURVE",
"118 663 CURVE",
"118 36 LINE",
"88 32 OFFCURVE",
"59 24 OFFCURVE",
"33 16 CURVE",
"33 0 LINE"
);
},
{
closed = 1;
nodes = (
"481 226 LINE",
"481 443 LINE",
"459 443 LINE",
"448 416 OFFCURVE",
"441 376 OFFCURVE",
"439 358 CURVE",
"142 358 LINE",
"142 311 LINE",
"439 311 LINE",
"441 294 OFFCURVE",
"448 255 OFFCURVE",
"459 226 CURVE"
);
}
);
width = 599;
}
);
note = F;
unicode = 0046;
},
{
glyphname = G;
lastChange = "2015-10-27 10:05:37 +0000";
layers = (
{
layerId = "79FE4770-DCAD-4138-A5DB-2166FBC61C29";
name = Bold;
paths = (
{
closed = 1;
nodes = (
"470 -10 OFFCURVE",
"574 10 OFFCURVE",
"625 48 CURVE",
"625 302 LINE",
"648 306 OFFCURVE",
"679 318 OFFCURVE",
"695 328 CURVE",
"695 340 LINE",
"415 340 LINE",
"415 324 LINE",
"440 316 OFFCURVE",
"468 310 OFFCURVE",
"494 304 CURVE",
"494 55 LINE",
"466 42 OFFCURVE",
"422 37 OFFCURVE",
"399 37 CURVE SMOOTH",
"247 37 OFFCURVE",
"174 161 OFFCURVE",
"174 350 CURVE SMOOTH",
"174 538 OFFCURVE",
"263 663 OFFCURVE",
"417 663 CURVE SMOOTH",
"467 663 OFFCURVE",
"535 649 OFFCURVE",
"569 622 CURVE",
"573 581 OFFCURVE",
"581 531 OFFCURVE",
"592 496 CURVE",
"625 496 LINE",
"637 634 LINE",
"587 681 OFFCURVE",
"492 710 OFFCURVE",
"383 710 CURVE SMOOTH",
"164 710 OFFCURVE",
"36 572 OFFCURVE",
"36 350 CURVE SMOOTH",
"36 127 OFFCURVE",
"153 -10 OFFCURVE",
"379 -10 CURVE SMOOTH"
);
}
);
width = 705;
}
);
leftKerningGroup = G;
note = G;
unicode = 0047;
},
{
glyphname = Gbreve;
lastChange = "2015-10-27 10:05:38 +0000";
layers = (
{
layerId = "79FE4770-DCAD-4138-A5DB-2166FBC61C29";
name = Bold;
paths = (
{
closed = 1;
nodes = (
"470 -10 OFFCURVE",
"574 10 OFFCURVE",
"625 48 CURVE",
"625 302 LINE",
"648 306 OFFCURVE",
"679 318 OFFCURVE",
"695 328 CURVE",
"695 340 LINE",
"415 340 LINE",
"415 324 LINE",
"440 316 OFFCURVE",
"468 310 OFFCURVE",
"494 304 CURVE",
"494 55 LINE",
"466 42 OFFCURVE",
"422 37 OFFCURVE",
"399 37 CURVE SMOOTH",
"247 37 OFFCURVE",
"174 161 OFFCURVE",
"174 350 CURVE SMOOTH",
"174 538 OFFCURVE",
"263 663 OFFCURVE",
"417 663 CURVE SMOOTH",
"467 663 OFFCURVE",
"535 649 OFFCURVE",
"569 622 CURVE",
"573 581 OFFCURVE",
"581 531 OFFCURVE",
"592 496 CURVE",
"625 496 LINE",
"637 634 LINE",
"587 681 OFFCURVE",
"492 710 OFFCURVE",
"383 710 CURVE SMOOTH",
"164 710 OFFCURVE",
"36 572 OFFCURVE",
"36 350 CURVE SMOOTH",
"36 127 OFFCURVE",
"153 -10 OFFCURVE",
"379 -10 CURVE SMOOTH"
);
},
{
closed = 1;
nodes = (
"479 780 OFFCURVE",
"545 822 OFFCURVE",
"558 911 CURVE",
"482 911 LINE",
"474 837 OFFCURVE",
"427 827 OFFCURVE",
"386 827 CURVE SMOOTH",
"345 827 OFFCURVE",
"297 837 OFFCURVE",
"289 911 CURVE",
"213 911 LINE",
"227 822 OFFCURVE",
"292 780 OFFCURVE",
"386 780 CURVE SMOOTH"
);
}
);
width = 705;
}
);
leftKerningGroup = G;
note = Gbreve;
unicode = 011E;
},
{
glyphname = Gcaron;
lastChange = "2015-10-27 10:05:37 +0000";
layers = (
{
layerId = "79FE4770-DCAD-4138-A5DB-2166FBC61C29";
name = Bold;
paths = (
{
closed = 1;
nodes = (
"470 -10 OFFCURVE",
"574 10 OFFCURVE",
"625 48 CURVE",
"625 302 LINE",
"648 306 OFFCURVE",
"679 318 OFFCURVE",
"695 328 CURVE",
"695 340 LINE",
"415 340 LINE",
"415 324 LINE",
"440 316 OFFCURVE",
"468 310 OFFCURVE",
"494 304 CURVE",
"494 55 LINE",
"466 42 OFFCURVE",
"422 37 OFFCURVE",
"399 37 CURVE SMOOTH",
"247 37 OFFCURVE",
"174 161 OFFCURVE",
"174 350 CURVE SMOOTH",
"174 538 OFFCURVE",
"263 663 OFFCURVE",
"417 663 CURVE SMOOTH",
"467 663 OFFCURVE",
"535 649 OFFCURVE",
"569 622 CURVE",
"573 581 OFFCURVE",
"581 531 OFFCURVE",
"592 496 CURVE",
"625 496 LINE",
"637 634 LINE",
"587 681 OFFCURVE",
"492 710 OFFCURVE",
"383 710 CURVE SMOOTH",
"164 710 OFFCURVE",
"36 572 OFFCURVE",
"36 350 CURVE SMOOTH",
"36 127 OFFCURVE",
"153 -10 OFFCURVE",
"379 -10 CURVE SMOOTH"
);
},
{
closed = 1;
nodes = (
"411 792 LINE",
"437 830 OFFCURVE",
"515 900 OFFCURVE",
"558 928 CURVE",
"504 969 LINE",
"464 938 OFFCURVE",
"407 883 OFFCURVE",
"382 847 CURVE",
"378 847 LINE",
"354 883 OFFCURVE",
"296 938 OFFCURVE",
"256 969 CURVE",
"202 928 LINE",
"245 900 OFFCURVE",
"323 830 OFFCURVE",
"349 792 CURVE"
);
}
);
width = 705;
}
);
leftKerningGroup = G;
note = Gcaron;
unicode = 01E6;
},
{
glyphname = Gcircumflex;
lastChange = "2015-10-27 10:05:38 +0000";
layers = (
{
layerId = "79FE4770-DCAD-4138-A5DB-2166FBC61C29";
name = Bold;
paths = (
{
closed = 1;
nodes = (
"470 -10 OFFCURVE",
"574 10 OFFCURVE",
"625 48 CURVE",
"625 302 LINE",
"648 306 OFFCURVE",
"679 318 OFFCURVE",
"695 328 CURVE",
"695 340 LINE",
"415 340 LINE",
"415 324 LINE",
"440 316 OFFCURVE",
"468 310 OFFCURVE",
"494 304 CURVE",
"494 55 LINE",
"466 42 OFFCURVE",
"422 37 OFFCURVE",
"399 37 CURVE SMOOTH",
"247 37 OFFCURVE",
"174 161 OFFCURVE",
"174 350 CURVE SMOOTH",
"174 538 OFFCURVE",
"263 663 OFFCURVE",
"417 663 CURVE SMOOTH",
"467 663 OFFCURVE",
"535 649 OFFCURVE",
"569 622 CURVE",
"573 581 OFFCURVE",
"581 531 OFFCURVE",
"592 496 CURVE",
"625 496 LINE",
"637 634 LINE",
"587 681 OFFCURVE",
"492 710 OFFCURVE",
"383 710 CURVE SMOOTH",
"164 710 OFFCURVE",
"36 572 OFFCURVE",
"36 350 CURVE SMOOTH",
"36 127 OFFCURVE",
"153 -10 OFFCURVE",
"379 -10 CURVE SMOOTH"
);
},
{
closed = 1;
nodes = (
"315 813 OFFCURVE",
"373 868 OFFCURVE",
"397 904 CURVE",
"401 904 LINE",
"426 868 OFFCURVE",
"483 813 OFFCURVE",
"523 782 CURVE",
"577 823 LINE",
"534 851 OFFCURVE",
"456 922 OFFCURVE",
"430 959 CURVE",
"368 959 LINE",
"342 922 OFFCURVE",
"264 851 OFFCURVE",
"221 823 CURVE",
"275 782 LINE"
);
}
);
width = 705;
}
);
leftKerningGroup = G;
note = Gcircumflex;
unicode = 011C;
},
{
glyphname = Gcommaaccent;
lastChange = "2015-10-27 10:05:37 +0000";
layers = (
{
layerId = "79FE4770-DCAD-4138-A5DB-2166FBC61C29";
name = Bold;
paths = (
{
closed = 1;
nodes = (
"470 -10 OFFCURVE",
"574 10 OFFCURVE",
"625 48 CURVE",
"625 302 LINE",
"648 306 OFFCURVE",
"679 318 OFFCURVE",
"695 328 CURVE",
"695 340 LINE",
"415 340 LINE",
"415 324 LINE",
"440 316 OFFCURVE",
"468 310 OFFCURVE",
"494 304 CURVE",
"494 55 LINE",
"466 42 OFFCURVE",
"422 37 OFFCURVE",
"399 37 CURVE SMOOTH",
"247 37 OFFCURVE",
"174 161 OFFCURVE",
"174 350 CURVE SMOOTH",
"174 538 OFFCURVE",
"263 663 OFFCURVE",
"417 663 CURVE SMOOTH",
"467 663 OFFCURVE",
"535 649 OFFCURVE",
"569 622 CURVE",
"573 581 OFFCURVE",
"581 531 OFFCURVE",
"592 496 CURVE",
"625 496 LINE",
"637 634 LINE",
"587 681 OFFCURVE",
"492 710 OFFCURVE",
"383 710 CURVE SMOOTH",
"164 710 OFFCURVE",
"36 572 OFFCURVE",
"36 350 CURVE SMOOTH",
"36 127 OFFCURVE",
"153 -10 OFFCURVE",
"379 -10 CURVE SMOOTH"
);
},
{
closed = 1;
nodes = (
"423 -300 OFFCURVE",
"462 -220 OFFCURVE",
"462 -151 CURVE SMOOTH",
"462 -111 OFFCURVE",
"441 -77 OFFCURVE",
"390 -77 CURVE SMOOTH",
"355 -77 OFFCURVE",
"323 -99 OFFCURVE",
"323 -138 CURVE SMOOTH",
"323 -177 OFFCURVE",
"350 -199 OFFCURVE",
"390 -200 CURVE",
"384 -243 OFFCURVE",
"354 -287 OFFCURVE",
"329 -314 CURVE",
"372 -346 LINE"
);
}
);
width = 705;
}
);
leftKerningGroup = G;
note = Gcommaaccent;
unicode = 0122;
},
{
glyphname = Gdotaccent;
lastChange = "2015-10-27 10:05:37 +0000";
layers = (
{
layerId = "79FE4770-DCAD-4138-A5DB-2166FBC61C29";
name = Bold;
paths = (
{
closed = 1;
nodes = (
"470 -10 OFFCURVE",
"574 10 OFFCURVE",
"625 48 CURVE",
"625 302 LINE",
"648 306 OFFCURVE",
"679 318 OFFCURVE",
"695 328 CURVE",
"695 340 LINE",
"415 340 LINE",
"415 324 LINE",
"440 316 OFFCURVE",
"468 310 OFFCURVE",
"494 304 CURVE",
"494 55 LINE",
"466 42 OFFCURVE",
"422 37 OFFCURVE",
"399 37 CURVE SMOOTH",
"247 37 OFFCURVE",
"174 161 OFFCURVE",
"174 350 CURVE SMOOTH",
"174 538 OFFCURVE",
"263 663 OFFCURVE",
"417 663 CURVE SMOOTH",
"467 663 OFFCURVE",
"535 649 OFFCURVE",
"569 622 CURVE",
"573 581 OFFCURVE",
"581 531 OFFCURVE",
"592 496 CURVE",
"625 496 LINE",
"637 634 LINE",
"587 681 OFFCURVE",
"492 710 OFFCURVE",
"383 710 CURVE SMOOTH",
"164 710 OFFCURVE",
"36 572 OFFCURVE",
"36 350 CURVE SMOOTH",
"36 127 OFFCURVE",
"153 -10 OFFCURVE",
"379 -10 CURVE SMOOTH"
);
},
{
closed = 1;
nodes = (
"433 785 OFFCURVE",
"455 809 OFFCURVE",
"455 841 CURVE SMOOTH",
"455 874 OFFCURVE",
"433 898 OFFCURVE",
"400 898 CURVE SMOOTH",
"365 898 OFFCURVE",
"344 874 OFFCURVE",
"344 841 CURVE SMOOTH",
"344 809 OFFCURVE",
"365 785 OFFCURVE",
"400 785 CURVE SMOOTH"
);
}
);
width = 705;
}
);
leftKerningGroup = G;
note = Gdotaccent;
unicode = 0120;
},
{
glyphname = Gmacron;
lastChange = "2015-10-27 10:05:37 +0000";
layers = (
{
layerId = "79FE4770-DCAD-4138-A5DB-2166FBC61C29";
name = Bold;
paths = (
{
closed = 1;
nodes = (
"470 -10 OFFCURVE",
"574 10 OFFCURVE",
"625 48 CURVE",
"625 302 LINE",
"648 306 OFFCURVE",
"679 318 OFFCURVE",
"695 328 CURVE",
"695 340 LINE",
"415 340 LINE",
"415 324 LINE",
"440 316 OFFCURVE",
"468 310 OFFCURVE",
"494 304 CURVE",
"494 55 LINE",
"466 42 OFFCURVE",
"422 37 OFFCURVE",
"399 37 CURVE SMOOTH",
"247 37 OFFCURVE",
"174 161 OFFCURVE",
"174 350 CURVE SMOOTH",
"174 538 OFFCURVE",
"263 663 OFFCURVE",
"417 663 CURVE SMOOTH",
"467 663 OFFCURVE",
"535 649 OFFCURVE",
"569 622 CURVE",
"573 581 OFFCURVE",
"581 531 OFFCURVE",
"592 496 CURVE",
"625 496 LINE",
"637 634 LINE",
"587 681 OFFCURVE",
"492 710 OFFCURVE",
"383 710 CURVE SMOOTH",
"164 710 OFFCURVE",
"36 572 OFFCURVE",
"36 350 CURVE SMOOTH",
"36 127 OFFCURVE",
"153 -10 OFFCURVE",
"379 -10 CURVE SMOOTH"
);
},
{
closed = 1;
nodes = (
"552 785 LINE",
"552 829 LINE",
"181 829 LINE",
"181 785 LINE"
);
}
);
width = 705;
}
);
leftKerningGroup = G;
note = Gmacron;
unicode = 1E20;
},
{
glyphname = H;
lastChange = "2015-10-27 10:05:37 +0000";
layers = (
{
layerId = "79FE4770-DCAD-4138-A5DB-2166FBC61C29";
name = Bold;
paths = (
{
closed = 1;
nodes = (
"782 0 LINE",
"782 15 LINE",
"754 25 OFFCURVE",
"728 31 OFFCURVE",
"702 36 CURVE",
"702 661 LINE",
"725 664 OFFCURVE",
"755 674 OFFCURVE",
"782 682 CURVE",
"782 700 LINE",
"490 700 LINE",
"490 684 LINE",
"517 675 OFFCURVE",
"542 668 OFFCURVE",
"567 664 CURVE",
"567 37 LINE",
"547 34 OFFCURVE",
"516 26 OFFCURVE",
"490 13 CURVE",
"490 0 LINE"
);
},
{
closed = 1;
nodes = (
"325 0 LINE",
"325 15 LINE",
"298 25 OFFCURVE",
"272 31 OFFCURVE",
"248 36 CURVE",
"248 662 LINE",
"267 665 OFFCURVE",
"298 671 OFFCURVE",
"325 685 CURVE",
"325 700 LINE",
"33 700 LINE",
"33 684 LINE",
"61 674 OFFCURVE",
"87 668 OFFCURVE",
"112 663 CURVE",
"112 37 LINE",
"89 34 OFFCURVE",
"59 25 OFFCURVE",
"33 17 CURVE",
"33 0 LINE"
);
},
{
closed = 1;
nodes = (
"632 332 LINE",
"632 378 LINE",
"183 378 LINE",
"183 332 LINE"
);
}
);
width = 815;
}
);
note = H;
unicode = 0048;
},
{
glyphname = Hbar;
lastChange = "2015-10-27 10:05:37 +0000";
layers = (
{
layerId = "79FE4770-DCAD-4138-A5DB-2166FBC61C29";
name = Bold;
paths = (
{
closed = 1;
nodes = (
"782 0 LINE",
"782 15 LINE",
"754 25 OFFCURVE",
"728 31 OFFCURVE",
"702 36 CURVE",
"702 661 LINE",
"725 664 OFFCURVE",
"755 674 OFFCURVE",
"782 682 CURVE",
"782 700 LINE",
"490 700 LINE",
"490 684 LINE",
"517 675 OFFCURVE",
"542 668 OFFCURVE",
"567 664 CURVE",
"567 37 LINE",
"547 34 OFFCURVE",
"538 33 OFFCURVE",
"490 13 CURVE",
"490 0 LINE"
);
},
{
closed = 1;
nodes = (
"325 0 LINE",
"325 15 LINE",
"298 25 OFFCURVE",
"272 31 OFFCURVE",
"248 36 CURVE",
"248 662 LINE",
"267 665 OFFCURVE",
"298 671 OFFCURVE",
"325 685 CURVE",
"325 700 LINE",
"33 700 LINE",
"33 684 LINE",
"61 674 OFFCURVE",
"87 668 OFFCURVE",
"112 663 CURVE",
"112 37 LINE",
"89 34 OFFCURVE",
"59 25 OFFCURVE",
"33 17 CURVE",
"33 0 LINE"
);
},
{
closed = 1;
nodes = (
"632 332 LINE",
"632 378 LINE",
"183 378 LINE",
"183 332 LINE"
);
},
{
closed = 1;
nodes = (
"762 497 LINE",
"762 542 LINE",
"52 542 LINE",
"52 497 LINE"
);
}
);
width = 815;
}
);
note = Hbar;
unicode = 0126;
},
{
glyphname = Hbrevebelow;
lastChange = "2015-10-27 10:05:37 +0000";
layers = (
{
layerId = "79FE4770-DCAD-4138-A5DB-2166FBC61C29";
name = Bold;
paths = (
{
closed = 1;
nodes = (
"782 0 LINE",
"782 15 LINE",
"754 25 OFFCURVE",
"728 31 OFFCURVE",
"702 36 CURVE",
"702 661 LINE",
"725 664 OFFCURVE",
"755 674 OFFCURVE",
"782 682 CURVE",
"782 700 LINE",
"490 700 LINE",
"490 684 LINE",
"517 675 OFFCURVE",
"542 668 OFFCURVE",
"567 664 CURVE",
"567 37 LINE",
"547 34 OFFCURVE",
"516 26 OFFCURVE",
"490 13 CURVE",
"490 0 LINE"
);
},
{
closed = 1;
nodes = (
"500 -181 OFFCURVE",
"566 -140 OFFCURVE",
"579 -50 CURVE",
"503 -50 LINE",
"495 -124 OFFCURVE",
"448 -135 OFFCURVE",
"407 -135 CURVE SMOOTH",
"366 -135 OFFCURVE",
"318 -124 OFFCURVE",
"310 -50 CURVE",
"234 -50 LINE",
"248 -140 OFFCURVE",
"313 -181 OFFCURVE",
"407 -181 CURVE SMOOTH"
);
},
{
closed = 1;
nodes = (
"325 0 LINE",
"325 15 LINE",
"298 25 OFFCURVE",
"272 31 OFFCURVE",
"248 36 CURVE",
"248 662 LINE",
"267 665 OFFCURVE",
"298 671 OFFCURVE",
"325 685 CURVE",
"325 700 LINE",
"33 700 LINE",
"33 684 LINE",
"61 674 OFFCURVE",
"87 668 OFFCURVE",
"112 663 CURVE",
"112 37 LINE",
"89 34 OFFCURVE",
"59 25 OFFCURVE",
"33 17 CURVE",
"33 0 LINE"
);
},
{
closed = 1;
nodes = (
"632 332 LINE",
"632 378 LINE",
"183 378 LINE",
"183 332 LINE"
);
}
);
width = 815;
}
);
note = Hbrevebelow;
unicode = 1E2A;
},
{
glyphname = Hcircumflex;
lastChange = "2015-10-27 10:05:37 +0000";
layers = (
{
layerId = "79FE4770-DCAD-4138-A5DB-2166FBC61C29";
name = Bold;
paths = (
{
closed = 1;
nodes = (
"782 0 LINE",
"782 15 LINE",
"754 25 OFFCURVE",
"728 31 OFFCURVE",
"702 36 CURVE",
"702 661 LINE",
"725 664 OFFCURVE",
"755 674 OFFCURVE",
"782 682 CURVE",
"782 700 LINE",
"490 700 LINE",
"490 684 LINE",
"517 675 OFFCURVE",
"542 668 OFFCURVE",
"567 664 CURVE",
"567 37 LINE",
"547 34 OFFCURVE",
"516 26 OFFCURVE",
"490 13 CURVE",
"490 0 LINE"
);
},
{
closed = 1;
nodes = (
"325 0 LINE",
"325 15 LINE",
"298 25 OFFCURVE",
"272 31 OFFCURVE",
"248 36 CURVE",
"248 662 LINE",
"267 665 OFFCURVE",
"298 671 OFFCURVE",
"325 685 CURVE",
"325 700 LINE",
"33 700 LINE",
"33 684 LINE",
"61 674 OFFCURVE",
"87 668 OFFCURVE",
"112 663 CURVE",
"112 37 LINE",
"89 34 OFFCURVE",
"59 25 OFFCURVE",
"33 17 CURVE",
"33 0 LINE"
);
},
{
closed = 1;
nodes = (
"632 332 LINE",
"632 378 LINE",
"183 378 LINE",
"183 332 LINE"
);
},
{
closed = 1;
nodes = (
"323 813 OFFCURVE",
"381 868 OFFCURVE",
"405 904 CURVE",
"409 904 LINE",
"434 868 OFFCURVE",
"491 813 OFFCURVE",
"531 782 CURVE",
"585 823 LINE",
"542 851 OFFCURVE",
"464 922 OFFCURVE",
"438 959 CURVE",
"376 959 LINE",
"350 922 OFFCURVE",
"272 851 OFFCURVE",
"229 823 CURVE",
"283 782 LINE"
);
}
);
width = 815;
}
);
note = Hcircumflex;
unicode = 0124;
},
{
glyphname = Hdotbelow;
lastChange = "2015-10-27 10:05:37 +0000";
layers = (
{
layerId = "79FE4770-DCAD-4138-A5DB-2166FBC61C29";
name = Bold;
paths = (
{
closed = 1;
nodes = (
"782 0 LINE",
"782 15 LINE",
"754 25 OFFCURVE",
"728 31 OFFCURVE",
"702 36 CURVE",
"702 661 LINE",
"725 664 OFFCURVE",
"755 674 OFFCURVE",
"782 682 CURVE",
"782 700 LINE",
"490 700 LINE",
"490 684 LINE",
"517 675 OFFCURVE",
"542 668 OFFCURVE",
"567 664 CURVE",
"567 37 LINE",
"547 34 OFFCURVE",
"516 26 OFFCURVE",
"490 13 CURVE",
"490 0 LINE"
);
},
{
closed = 1;
nodes = (
"438 -169 OFFCURVE",
"460 -145 OFFCURVE",
"460 -113 CURVE SMOOTH",
"460 -80 OFFCURVE",
"438 -56 OFFCURVE",
"404 -56 CURVE SMOOTH",
"370 -56 OFFCURVE",
"348 -80 OFFCURVE",
"348 -113 CURVE SMOOTH",
"348 -145 OFFCURVE",
"370 -169 OFFCURVE",
"404 -169 CURVE SMOOTH"
);
},
{
closed = 1;
nodes = (
"325 0 LINE",
"325 15 LINE",
"298 25 OFFCURVE",
"272 31 OFFCURVE",
"248 36 CURVE",
"248 662 LINE",
"267 665 OFFCURVE",
"298 671 OFFCURVE",
"325 685 CURVE",
"325 700 LINE",
"33 700 LINE",
"33 684 LINE",
"61 674 OFFCURVE",
"87 668 OFFCURVE",
"112 663 CURVE",
"112 37 LINE",
"89 34 OFFCURVE",
"59 25 OFFCURVE",
"33 17 CURVE",
"33 0 LINE"
);
},
{
closed = 1;
nodes = (
"632 332 LINE",
"632 378 LINE",
"183 378 LINE",
"183 332 LINE"
);
}
);
width = 815;
}
);
note = Hdotbelow;
unicode = 1E24;
},
{
glyphname = I;
lastChange = "2015-10-27 10:05:37 +0000";
layers = (
{
layerId = "79FE4770-DCAD-4138-A5DB-2166FBC61C29";
name = Bold;
paths = (
{
closed = 1;
nodes = (
"332 0 LINE",
"332 16 LINE",
"305 24 OFFCURVE",
"275 32 OFFCURVE",
"251 36 CURVE",
"251 662 LINE",
"269 666 OFFCURVE",
"308 671 OFFCURVE",
"332 682 CURVE",
"332 700 LINE",
"35 700 LINE",
"35 683 LINE",
"61 675 OFFCURVE",
"91 667 OFFCURVE",
"115 663 CURVE",
"115 37 LINE",
"88 31 OFFCURVE",
"59 24 OFFCURVE",
"35 17 CURVE",
"35 0 LINE"
);
}
);
width = 367;
}
);
note = I;
unicode = 0049;
},
{
glyphname = IJ;
lastChange = "2015-10-27 10:05:37 +0000";
layers = (
{
layerId = "79FE4770-DCAD-4138-A5DB-2166FBC61C29";
name = Bold;
paths = (
{
closed = 1;
nodes = (
"661 -10 OFFCURVE",
"753 40 OFFCURVE",
"753 156 CURVE SMOOTH",
"753 661 LINE",
"775 664 OFFCURVE",
"805 674 OFFCURVE",
"831 682 CURVE",
"831 700 LINE",
"538 700 LINE",
"538 682 LINE",
"562 673 OFFCURVE",
"583 667 OFFCURVE",
"617 662 CURVE",
"617 152 LINE SMOOTH",
"617 72 OFFCURVE",
"570 44 OFFCURVE",
"513 44 CURVE SMOOTH",
"469 44 OFFCURVE",
"427 60 OFFCURVE",
"399 78 CURVE",
"379 45 LINE",
"421 9 OFFCURVE",
"485 -10 OFFCURVE",
"552 -10 CURVE SMOOTH"
);
},
{
closed = 1;
nodes = (
"332 0 LINE",
"332 16 LINE",
"305 24 OFFCURVE",
"275 32 OFFCURVE",
"251 36 CURVE",
"251 662 LINE",
"269 666 OFFCURVE",
"308 671 OFFCURVE",
"332 682 CURVE",
"332 700 LINE",
"35 700 LINE",
"35 683 LINE",
"61 675 OFFCURVE",
"91 667 OFFCURVE",
"115 663 CURVE",
"115 37 LINE",
"88 31 OFFCURVE",
"59 24 OFFCURVE",
"35 17 CURVE",
"35 0 LINE"
);
}
);
width = 866;
}
);
note = IJ;
rightKerningGroup = J;
unicode = 0132;
},
{
glyphname = Iacute;
lastChange = "2015-10-27 10:05:37 +0000";
layers = (
{
layerId = "79FE4770-DCAD-4138-A5DB-2166FBC61C29";
name = Bold;
paths = (
{
closed = 1;
nodes = (
"332 0 LINE",
"332 16 LINE",
"305 24 OFFCURVE",
"275 32 OFFCURVE",
"251 36 CURVE",
"251 662 LINE",
"269 666 OFFCURVE",
"308 671 OFFCURVE",
"332 682 CURVE",
"332 700 LINE",
"35 700 LINE",
"35 683 LINE",
"61 675 OFFCURVE",
"91 667 OFFCURVE",
"115 663 CURVE",
"115 37 LINE",
"88 31 OFFCURVE",
"59 24 OFFCURVE",
"35 17 CURVE",
"35 0 LINE"
);
},
{
closed = 1;
nodes = (
"247 875 LINE SMOOTH",
"276 892 OFFCURVE",
"291 909 OFFCURVE",
"291 930 CURVE SMOOTH",
"291 947 OFFCURVE",
"280 967 OFFCURVE",
"250 967 CURVE SMOOTH",
"220 967 OFFCURVE",
"197 943 OFFCURVE",
"191 936 CURVE",
"71 817 LINE",
"93 786 LINE"
);
}
);
width = 367;
}
);
note = Iacute;
unicode = 00CD;
},
{
glyphname = Ibreve;
lastChange = "2015-10-27 10:05:37 +0000";
layers = (
{
layerId = "79FE4770-DCAD-4138-A5DB-2166FBC61C29";
name = Bold;
paths = (
{
closed = 1;
nodes = (
"332 0 LINE",
"332 16 LINE",
"305 24 OFFCURVE",
"275 32 OFFCURVE",
"251 36 CURVE",
"251 662 LINE",
"269 666 OFFCURVE",
"308 671 OFFCURVE",
"332 682 CURVE",
"332 700 LINE",
"35 700 LINE",
"35 683 LINE",
"61 675 OFFCURVE",
"91 667 OFFCURVE",
"115 663 CURVE",
"115 37 LINE",
"88 31 OFFCURVE",
"59 24 OFFCURVE",
"35 17 CURVE",
"35 0 LINE"
);
},
{
closed = 1;
nodes = (
"276 780 OFFCURVE",
"342 822 OFFCURVE",
"355 911 CURVE",
"279 911 LINE",
"271 837 OFFCURVE",
"224 827 OFFCURVE",
"183 827 CURVE SMOOTH",
"142 827 OFFCURVE",
"94 837 OFFCURVE",
"86 911 CURVE",
"10 911 LINE",
"24 822 OFFCURVE",
"89 780 OFFCURVE",
"183 780 CURVE SMOOTH"
);
}
);
width = 367;
}
);
note = Ibreve;
unicode = 012C;
},
{
glyphname = Icaron;
lastChange = "2015-10-27 10:05:37 +0000";
layers = (
{
layerId = "79FE4770-DCAD-4138-A5DB-2166FBC61C29";
name = Bold;
paths = (
{
closed = 1;
nodes = (
"332 0 LINE",
"332 16 LINE",
"305 24 OFFCURVE",
"275 32 OFFCURVE",
"251 36 CURVE",
"251 662 LINE",
"269 666 OFFCURVE",
"308 671 OFFCURVE",
"332 682 CURVE",
"332 700 LINE",
"35 700 LINE",
"35 683 LINE",
"61 675 OFFCURVE",
"91 667 OFFCURVE",
"115 663 CURVE",
"115 37 LINE",
"88 31 OFFCURVE",
"59 24 OFFCURVE",
"35 17 CURVE",
"35 0 LINE"
);
},
{
closed = 1;
nodes = (
"213 786 LINE",
"239 824 OFFCURVE",
"317 894 OFFCURVE",
"360 922 CURVE",
"306 963 LINE",
"266 932 OFFCURVE",
"209 877 OFFCURVE",
"184 841 CURVE",
"180 841 LINE",
"156 877 OFFCURVE",
"98 932 OFFCURVE",
"58 963 CURVE",
"4 922 LINE",
"47 894 OFFCURVE",
"125 824 OFFCURVE",
"151 786 CURVE"
);
}
);
width = 367;
}
);
note = Icaron;
unicode = 01CF;
},
{
glyphname = Icircumflex;
lastChange = "2015-10-27 10:05:38 +0000";
layers = (
{
layerId = "79FE4770-DCAD-4138-A5DB-2166FBC61C29";
name = Bold;
paths = (
{
closed = 1;
nodes = (
"332 0 LINE",
"332 16 LINE",
"305 24 OFFCURVE",
"275 32 OFFCURVE",
"251 36 CURVE",
"251 662 LINE",
"269 666 OFFCURVE",
"308 671 OFFCURVE",
"332 682 CURVE",
"332 700 LINE",
"35 700 LINE",
"35 683 LINE",
"61 675 OFFCURVE",
"91 667 OFFCURVE",
"115 663 CURVE",
"115 37 LINE",
"88 31 OFFCURVE",
"59 24 OFFCURVE",
"35 17 CURVE",
"35 0 LINE"
);
},
{
closed = 1;
nodes = (
"98 813 OFFCURVE",
"156 868 OFFCURVE",
"180 904 CURVE",
"184 904 LINE",
"209 868 OFFCURVE",
"266 813 OFFCURVE",
"306 782 CURVE",
"360 823 LINE",
"317 851 OFFCURVE",
"239 922 OFFCURVE",
"213 959 CURVE",
"151 959 LINE",
"125 922 OFFCURVE",
"47 851 OFFCURVE",
"4 823 CURVE",
"58 782 LINE"
);
}
);
width = 367;
}
);
note = Icircumflex;
unicode = 00CE;
},
{
glyphname = Idieresis;
lastChange = "2015-10-27 10:05:37 +0000";
layers = (
{
layerId = "79FE4770-DCAD-4138-A5DB-2166FBC61C29";
name = Bold;
paths = (
{
closed = 1;
nodes = (
"332 0 LINE",
"332 16 LINE",
"305 24 OFFCURVE",
"275 32 OFFCURVE",
"251 36 CURVE",
"251 662 LINE",
"269 666 OFFCURVE",
"308 671 OFFCURVE",
"332 682 CURVE",
"332 700 LINE",
"35 700 LINE",
"35 683 LINE",
"61 675 OFFCURVE",
"91 667 OFFCURVE",
"115 663 CURVE",
"115 37 LINE",
"88 31 OFFCURVE",
"59 24 OFFCURVE",
"35 17 CURVE",
"35 0 LINE"
);
},
{
closed = 1;
nodes = (
"100 785 OFFCURVE",
"122 809 OFFCURVE",
"122 841 CURVE SMOOTH",
"122 874 OFFCURVE",
"100 898 OFFCURVE",
"65 898 CURVE SMOOTH",
"32 898 OFFCURVE",
"10 874 OFFCURVE",
"10 841 CURVE SMOOTH",
"10 809 OFFCURVE",
"32 785 OFFCURVE",
"65 785 CURVE SMOOTH"
);
},
{
closed = 1;
nodes = (
"333 785 OFFCURVE",
"355 809 OFFCURVE",
"355 841 CURVE SMOOTH",
"355 874 OFFCURVE",
"333 898 OFFCURVE",
"299 898 CURVE SMOOTH",
"264 898 OFFCURVE",
"243 874 OFFCURVE",
"243 841 CURVE SMOOTH",
"243 809 OFFCURVE",
"264 785 OFFCURVE",
"299 785 CURVE SMOOTH"
);
}
);
width = 367;
}
);
note = Idieresis;
unicode = 00CF;
},
{
glyphname = Idotaccent;
lastChange = "2015-10-27 10:05:38 +0000";
layers = (
{
layerId = "79FE4770-DCAD-4138-A5DB-2166FBC61C29";
name = Bold;
paths = (
{
closed = 1;
nodes = (
"332 0 LINE",
"332 16 LINE",
"305 24 OFFCURVE",
"275 32 OFFCURVE",
"251 36 CURVE",
"251 662 LINE",
"269 666 OFFCURVE",
"308 671 OFFCURVE",
"332 682 CURVE",
"332 700 LINE",
"35 700 LINE",
"35 683 LINE",
"61 675 OFFCURVE",
"91 667 OFFCURVE",
"115 663 CURVE",
"115 37 LINE",
"88 31 OFFCURVE",
"59 24 OFFCURVE",
"35 17 CURVE",
"35 0 LINE"
);
},
{
closed = 1;
nodes = (
"215 785 OFFCURVE",
"237 809 OFFCURVE",
"237 841 CURVE SMOOTH",
"237 874 OFFCURVE",
"215 898 OFFCURVE",
"182 898 CURVE SMOOTH",
"147 898 OFFCURVE",
"126 874 OFFCURVE",
"126 841 CURVE SMOOTH",
"126 809 OFFCURVE",
"147 785 OFFCURVE",
"182 785 CURVE SMOOTH"
);
}
);
width = 367;
}
);
note = Idotaccent;
unicode = 0130;
},
{
glyphname = Idotbelow;
lastChange = "2015-10-27 10:05:38 +0000";
layers = (
{
layerId = "79FE4770-DCAD-4138-A5DB-2166FBC61C29";
name = Bold;
paths = (
{
closed = 1;
nodes = (
"332 0 LINE",
"332 16 LINE",
"305 24 OFFCURVE",
"275 32 OFFCURVE",
"251 36 CURVE",
"251 662 LINE",
"269 666 OFFCURVE",
"308 671 OFFCURVE",
"332 682 CURVE",
"332 700 LINE",
"35 700 LINE",
"35 683 LINE",
"61 675 OFFCURVE",
"91 667 OFFCURVE",
"115 663 CURVE",
"115 37 LINE",
"88 31 OFFCURVE",
"59 24 OFFCURVE",
"35 17 CURVE",
"35 0 LINE"
);
},
{
closed = 1;
nodes = (
"216 -169 OFFCURVE",
"238 -145 OFFCURVE",
"238 -113 CURVE SMOOTH",
"238 -80 OFFCURVE",
"216 -56 OFFCURVE",
"182 -56 CURVE SMOOTH",
"148 -56 OFFCURVE",
"126 -80 OFFCURVE",
"126 -113 CURVE SMOOTH",
"126 -145 OFFCURVE",
"148 -169 OFFCURVE",
"182 -169 CURVE SMOOTH"
);
}
);
width = 367;
}
);
note = Idotbelow;
unicode = 1ECA;
},
{
glyphname = Igrave;
lastChange = "2015-10-27 10:05:38 +0000";
layers = (
{
layerId = "79FE4770-DCAD-4138-A5DB-2166FBC61C29";
name = Bold;
paths = (
{
closed = 1;
nodes = (
"332 0 LINE",
"332 16 LINE",
"305 24 OFFCURVE",
"275 32 OFFCURVE",
"251 36 CURVE",
"251 662 LINE",
"269 666 OFFCURVE",
"308 671 OFFCURVE",
"332 682 CURVE",
"332 700 LINE",
"35 700 LINE",
"35 683 LINE",
"61 675 OFFCURVE",
"91 667 OFFCURVE",
"115 663 CURVE",
"115 37 LINE",
"88 31 OFFCURVE",
"59 24 OFFCURVE",
"35 17 CURVE",
"35 0 LINE"
);
},
{
closed = 1;
nodes = (
"292 817 LINE",
"171 937 LINE",
"164 945 OFFCURVE",
"138 967 OFFCURVE",
"110 967 CURVE SMOOTH",
"84 967 OFFCURVE",
"71 946 OFFCURVE",
"71 929 CURVE SMOOTH",
"71 908 OFFCURVE",
"87 892 OFFCURVE",
"116 875 CURVE SMOOTH",
"270 786 LINE"
);
}
);
width = 367;
}
);
note = Igrave;
unicode = 00CC;
},
{
glyphname = Ihookabove;
lastChange = "2015-10-27 10:05:37 +0000";
layers = (
{
layerId = "79FE4770-DCAD-4138-A5DB-2166FBC61C29";
name = Bold;
paths = (
{
closed = 1;
nodes = (
"332 0 LINE",
"332 16 LINE",
"305 24 OFFCURVE",
"275 32 OFFCURVE",
"251 36 CURVE",
"251 662 LINE",
"269 666 OFFCURVE",
"308 671 OFFCURVE",
"332 682 CURVE",
"332 700 LINE",
"35 700 LINE",
"35 683 LINE",
"61 675 OFFCURVE",
"91 667 OFFCURVE",
"115 663 CURVE",
"115 37 LINE",
"88 31 OFFCURVE",
"59 24 OFFCURVE",
"35 17 CURVE",
"35 0 LINE"
);
},
{
closed = 1;
nodes = (
"215 781 LINE",
"225 849 LINE",
"279 854 OFFCURVE",
"317 876 OFFCURVE",
"317 931 CURVE SMOOTH",
"317 994 OFFCURVE",
"260 1018 OFFCURVE",
"203 1018 CURVE SMOOTH",
"171 1018 OFFCURVE",
"140 1010 OFFCURVE",
"120 1001 CURVE",
"127 965 LINE",
"148 976 OFFCURVE",
"170 981 OFFCURVE",
"188 981 CURVE SMOOTH",
"228 981 OFFCURVE",
"249 958 OFFCURVE",
"249 933 CURVE SMOOTH",
"249 897 OFFCURVE",
"221 881 OFFCURVE",
"189 881 CURVE SMOOTH",
"156 881 LINE",
"161 781 LINE"
);
}
);
width = 367;
}
);
note = Ihookabove;
unicode = 1EC8;
},
{
glyphname = Imacron;
lastChange = "2015-10-27 10:05:38 +0000";
layers = (
{
layerId = "79FE4770-DCAD-4138-A5DB-2166FBC61C29";
name = Bold;
paths = (
{
closed = 1;
nodes = (
"332 0 LINE",
"332 16 LINE",
"305 24 OFFCURVE",
"275 32 OFFCURVE",
"251 36 CURVE",
"251 662 LINE",
"269 666 OFFCURVE",
"308 671 OFFCURVE",
"332 682 CURVE",
"332 700 LINE",
"35 700 LINE",
"35 683 LINE",
"61 675 OFFCURVE",
"91 667 OFFCURVE",
"115 663 CURVE",
"115 37 LINE",
"88 31 OFFCURVE",
"59 24 OFFCURVE",
"35 17 CURVE",
"35 0 LINE"
);
},
{
closed = 1;
nodes = (
"387 785 LINE",
"387 829 LINE",
"-15 829 LINE",
"-15 785 LINE"
);
}
);
width = 367;
}
);
note = Imacron;
unicode = 012A;
},
{
glyphname = Iogonek;
lastChange = "2015-10-27 10:05:37 +0000";
layers = (
{
layerId = "79FE4770-DCAD-4138-A5DB-2166FBC61C29";
name = Bold;
paths = (
{
closed = 1;
nodes = (
"332 0 LINE",
"332 16 LINE",
"305 24 OFFCURVE",
"275 32 OFFCURVE",
"251 36 CURVE",
"251 662 LINE",
"269 666 OFFCURVE",
"308 671 OFFCURVE",
"332 682 CURVE",
"332 700 LINE",
"35 700 LINE",
"35 683 LINE",
"61 675 OFFCURVE",
"91 667 OFFCURVE",
"115 663 CURVE",
"115 37 LINE",
"88 31 OFFCURVE",
"59 24 OFFCURVE",
"35 17 CURVE",
"35 0 LINE"
);
},
{
closed = 1;
nodes = (
"319 -200 OFFCURVE",
"357 -191 OFFCURVE",
"382 -177 CURVE",
"382 -121 LINE",
"359 -134 OFFCURVE",
"337 -140 OFFCURVE",
"319 -140 CURVE SMOOTH",
"283 -140 OFFCURVE",
"257 -120 OFFCURVE",
"257 -88 CURVE SMOOTH",
"257 -55 OFFCURVE",
"285 -19 OFFCURVE",
"313 0 CURVE",
"248 0 LINE",
"190 -19 OFFCURVE",
"157 -68 OFFCURVE",
"157 -113 CURVE SMOOTH",
"157 -163 OFFCURVE",
"201 -200 OFFCURVE",
"279 -200 CURVE SMOOTH"
);
}
);
width = 367;
}
);
note = Iogonek;
unicode = 012E;
},
{
glyphname = Itilde;
lastChange = "2015-10-27 10:05:37 +0000";
layers = (
{
layerId = "79FE4770-DCAD-4138-A5DB-2166FBC61C29";
name = Bold;
paths = (
{
closed = 1;
nodes = (
"332 0 LINE",
"332 16 LINE",
"305 24 OFFCURVE",
"275 32 OFFCURVE",
"251 36 CURVE",
"251 662 LINE",
"269 666 OFFCURVE",
"308 671 OFFCURVE",
"332 682 CURVE",
"332 700 LINE",
"35 700 LINE",
"35 683 LINE",
"61 675 OFFCURVE",
"91 667 OFFCURVE",
"115 663 CURVE",
"115 37 LINE",
"88 31 OFFCURVE",
"59 24 OFFCURVE",
"35 17 CURVE",
"35 0 LINE"
);
},
{
closed = 1;
nodes = (
"45 786 LINE",
"52 819 OFFCURVE",
"75 840 OFFCURVE",
"105 840 CURVE SMOOTH",
"143 840 OFFCURVE",
"204 786 OFFCURVE",
"260 786 CURVE SMOOTH",
"331 786 OFFCURVE",
"366 832 OFFCURVE",
"374 900 CURVE",
"322 900 LINE",
"312 855 OFFCURVE",
"285 844 OFFCURVE",
"258 844 CURVE SMOOTH",
"217 844 OFFCURVE",
"173 897 OFFCURVE",
"106 897 CURVE SMOOTH",
"43 897 OFFCURVE",
"2 860 OFFCURVE",
"-8 786 CURVE"
);
}
);
width = 367;
}
);
note = Itilde;
unicode = 0128;
},
{
glyphname = J;
lastChange = "2015-10-27 10:05:37 +0000";
layers = (
{
layerId = "79FE4770-DCAD-4138-A5DB-2166FBC61C29";
name = Bold;
paths = (
{
closed = 1;
nodes = (
"301 -10 OFFCURVE",
"393 40 OFFCURVE",
"393 156 CURVE SMOOTH",
"393 661 LINE",
"415 664 OFFCURVE",
"445 674 OFFCURVE",
"471 682 CURVE",
"471 700 LINE",
"178 700 LINE",
"178 682 LINE",
"202 673 OFFCURVE",
"223 667 OFFCURVE",
"257 662 CURVE",
"257 152 LINE SMOOTH",
"257 72 OFFCURVE",
"210 44 OFFCURVE",
"153 44 CURVE SMOOTH",
"109 44 OFFCURVE",
"67 60 OFFCURVE",
"39 78 CURVE",
"19 45 LINE",
"61 9 OFFCURVE",
"125 -10 OFFCURVE",
"192 -10 CURVE SMOOTH"
);
}
);
width = 505;
}
);
leftKerningGroup = J;
note = J;
rightKerningGroup = J;
unicode = 004A;
},
{
glyphname = Jcircumflex;
lastChange = "2015-10-27 10:05:37 +0000";
layers = (
{
layerId = "79FE4770-DCAD-4138-A5DB-2166FBC61C29";
name = Bold;
paths = (
{
closed = 1;
nodes = (
"301 -10 OFFCURVE",
"393 40 OFFCURVE",
"393 156 CURVE SMOOTH",
"393 661 LINE",
"415 664 OFFCURVE",
"445 674 OFFCURVE",
"471 682 CURVE",
"471 700 LINE",
"178 700 LINE",
"178 682 LINE",
"202 673 OFFCURVE",
"223 667 OFFCURVE",
"257 662 CURVE",
"257 152 LINE SMOOTH",
"257 72 OFFCURVE",
"210 44 OFFCURVE",
"153 44 CURVE SMOOTH",
"109 44 OFFCURVE",
"67 60 OFFCURVE",
"39 78 CURVE",
"19 45 LINE",
"61 9 OFFCURVE",
"125 -10 OFFCURVE",
"192 -10 CURVE SMOOTH"
);
},
{
closed = 1;
nodes = (
"240 813 OFFCURVE",
"298 868 OFFCURVE",
"322 904 CURVE",
"326 904 LINE",
"351 868 OFFCURVE",
"408 813 OFFCURVE",
"448 782 CURVE",
"502 823 LINE",
"459 851 OFFCURVE",
"381 922 OFFCURVE",
"355 959 CURVE",
"293 959 LINE",
"267 922 OFFCURVE",
"189 851 OFFCURVE",
"146 823 CURVE",
"200 782 LINE"
);
}
);
width = 505;
}
);
leftKerningGroup = J;
note = Jcircumflex;
rightKerningGroup = J;
unicode = 0134;
},
{
glyphname = K;
lastChange = "2015-10-27 10:05:38 +0000";
layers = (
{
layerId = "79FE4770-DCAD-4138-A5DB-2166FBC61C29";
name = Bold;
paths = (
{
closed = 1;
nodes = (
"627 656 LINE",
"649 671 OFFCURVE",
"677 672 OFFCURVE",
"700 678 CURVE",
"700 700 LINE",
"478 700 LINE",
"478 678 LINE",
"503 672 OFFCURVE",
"539 669 OFFCURVE",
"556 659 CURVE",
"205 287 LINE",
"205 210 LINE"
);
},
{
closed = 1;
nodes = (
"330 0 LINE",
"330 16 LINE",
"303 24 OFFCURVE",
"273 32 OFFCURVE",
"249 36 CURVE",
"249 662 LINE",
"267 666 OFFCURVE",
"306 671 OFFCURVE",
"330 682 CURVE",
"330 700 LINE",
"33 700 LINE",
"33 683 LINE",
"59 675 OFFCURVE",
"89 667 OFFCURVE",
"113 663 CURVE",
"113 37 LINE",
"86 31 OFFCURVE",
"57 24 OFFCURVE",
"33 17 CURVE",
"33 0 LINE"
);
},
{
closed = 1;
nodes = (
"775 0 LINE",
"775 16 LINE",
"742 25 OFFCURVE",
"712 32 OFFCURVE",
"689 36 CURVE",
"389 431 LINE",
"309 349 LINE",
"573 0 LINE"
);
}
);
width = 782;
}
);
note = K;
rightKerningGroup = K;
unicode = 004B;
},
{
glyphname = Kcommaaccent;
lastChange = "2015-10-27 10:05:38 +0000";
layers = (
{
layerId = "79FE4770-DCAD-4138-A5DB-2166FBC61C29";
name = Bold;
paths = (
{
closed = 1;
nodes = (
"627 656 LINE",
"649 671 OFFCURVE",
"677 672 OFFCURVE",
"700 678 CURVE",
"700 700 LINE",
"478 700 LINE",
"478 678 LINE",
"503 672 OFFCURVE",
"539 669 OFFCURVE",
"556 659 CURVE",
"205 287 LINE",
"205 210 LINE"
);
},
{
closed = 1;
nodes = (
"440 -300 OFFCURVE",
"479 -220 OFFCURVE",
"479 -151 CURVE SMOOTH",
"479 -111 OFFCURVE",
"458 -77 OFFCURVE",
"407 -77 CURVE SMOOTH",
"372 -77 OFFCURVE",
"340 -99 OFFCURVE",
"340 -138 CURVE SMOOTH",
"340 -177 OFFCURVE",
"367 -199 OFFCURVE",
"407 -200 CURVE",
"401 -243 OFFCURVE",
"371 -287 OFFCURVE",
"346 -314 CURVE",
"389 -346 LINE"
);
},
{
closed = 1;
nodes = (
"330 0 LINE",
"330 16 LINE",
"303 24 OFFCURVE",
"273 32 OFFCURVE",
"249 36 CURVE",
"249 662 LINE",
"267 666 OFFCURVE",
"306 671 OFFCURVE",
"330 682 CURVE",
"330 700 LINE",
"33 700 LINE",
"33 683 LINE",
"59 675 OFFCURVE",
"89 667 OFFCURVE",
"113 663 CURVE",
"113 37 LINE",
"86 31 OFFCURVE",
"57 24 OFFCURVE",
"33 17 CURVE",
"33 0 LINE"
);
},
{
closed = 1;
nodes = (
"775 0 LINE",
"775 16 LINE",
"742 25 OFFCURVE",
"712 32 OFFCURVE",
"689 36 CURVE",
"389 431 LINE",
"309 349 LINE",
"573 0 LINE"
);
}
);
width = 782;
}
);
note = Kcommaaccent;
rightKerningGroup = K;
unicode = 0136;
},
{
glyphname = L;
lastChange = "2015-10-27 10:05:37 +0000";
layers = (
{
layerId = "79FE4770-DCAD-4138-A5DB-2166FBC61C29";
name = Bold;
paths = (
{
closed = 1;
nodes = (
"580 0 LINE",
"597 165 LINE",
"568 165 LINE",
"552 144 OFFCURVE",
"524 78 OFFCURVE",
"521 44 CURVE",
"255 44 LINE",
"255 662 LINE",
"281 668 OFFCURVE",
"309 674 OFFCURVE",
"334 682 CURVE",
"334 700 LINE",
"39 700 LINE",
"39 684 LINE",
"66 674 OFFCURVE",
"94 668 OFFCURVE",
"119 663 CURVE",
"119 36 LINE",
"89 32 OFFCURVE",
"59 24 OFFCURVE",
"33 16 CURVE",
"33 0 LINE"
);
}
);
width = 636;
}
);
note = L;
rightKerningGroup = L;
unicode = 004C;
},
{
glyphname = Lacute;
lastChange = "2015-10-27 10:05:37 +0000";
layers = (
{
layerId = "79FE4770-DCAD-4138-A5DB-2166FBC61C29";
name = Bold;
paths = (
{
closed = 1;
nodes = (
"580 0 LINE",
"597 165 LINE",
"568 165 LINE",
"552 144 OFFCURVE",
"524 78 OFFCURVE",
"521 44 CURVE",
"255 44 LINE",
"255 662 LINE",
"281 668 OFFCURVE",
"309 674 OFFCURVE",
"334 682 CURVE",
"334 700 LINE",
"39 700 LINE",
"39 684 LINE",
"66 674 OFFCURVE",
"94 668 OFFCURVE",
"119 663 CURVE",
"119 36 LINE",
"89 32 OFFCURVE",
"59 24 OFFCURVE",
"33 16 CURVE",
"33 0 LINE"
);
},
{
closed = 1;
nodes = (
"285 875 LINE SMOOTH",
"314 892 OFFCURVE",
"329 909 OFFCURVE",
"329 930 CURVE SMOOTH",
"329 947 OFFCURVE",
"318 967 OFFCURVE",
"288 967 CURVE SMOOTH",
"258 967 OFFCURVE",
"235 943 OFFCURVE",
"229 936 CURVE",
"109 817 LINE",
"131 786 LINE"
);
}
);
width = 636;
}
);
note = Lacute;
rightKerningGroup = L;
unicode = 0139;
},
{
glyphname = Lcaron;
lastChange = "2015-10-27 10:05:37 +0000";
layers = (
{
layerId = "79FE4770-DCAD-4138-A5DB-2166FBC61C29";
name = Bold;
paths = (
{
closed = 1;
nodes = (
"580 0 LINE",
"597 165 LINE",
"568 165 LINE",
"552 144 OFFCURVE",
"524 78 OFFCURVE",
"521 44 CURVE",
"255 44 LINE",
"255 662 LINE",
"281 668 OFFCURVE",
"309 674 OFFCURVE",
"334 682 CURVE",
"334 700 LINE",
"39 700 LINE",
"39 684 LINE",
"66 674 OFFCURVE",
"94 668 OFFCURVE",
"119 663 CURVE",
"119 36 LINE",
"89 32 OFFCURVE",
"59 24 OFFCURVE",
"33 16 CURVE",
"33 0 LINE"
);
},
{
closed = 1;
nodes = (
"523 492 OFFCURVE",
"565 573 OFFCURVE",
"565 642 CURVE SMOOTH",
"565 682 OFFCURVE",
"546 724 OFFCURVE",
"489 724 CURVE SMOOTH",
"442 724 OFFCURVE",
"420 691 OFFCURVE",
"420 654 CURVE SMOOTH",
"420 608 OFFCURVE",
"457 592 OFFCURVE",
"490 592 CURVE",
"484 549 OFFCURVE",
"453 505 OFFCURVE",
"429 479 CURVE",
"471 446 LINE"
);
}
);
width = 636;
}
);
note = Lcaron;
rightKerningGroup = L;
unicode = 013D;
},
{
glyphname = Lcommaaccent;
lastChange = "2015-10-27 10:05:37 +0000";
layers = (
{
layerId = "79FE4770-DCAD-4138-A5DB-2166FBC61C29";
name = Bold;
paths = (
{
closed = 1;
nodes = (
"580 0 LINE",
"597 165 LINE",
"568 165 LINE",
"552 144 OFFCURVE",
"524 78 OFFCURVE",
"521 44 CURVE",
"255 44 LINE",
"255 662 LINE",
"281 668 OFFCURVE",
"309 674 OFFCURVE",
"334 682 CURVE",
"334 700 LINE",
"39 700 LINE",
"39 684 LINE",
"66 674 OFFCURVE",
"94 668 OFFCURVE",
"119 663 CURVE",
"119 36 LINE",
"89 32 OFFCURVE",
"59 24 OFFCURVE",
"33 16 CURVE",
"33 0 LINE"
);
},
{
closed = 1;
nodes = (
"364 -300 OFFCURVE",
"403 -220 OFFCURVE",
"403 -151 CURVE SMOOTH",
"403 -111 OFFCURVE",
"382 -77 OFFCURVE",
"331 -77 CURVE SMOOTH",
"296 -77 OFFCURVE",
"264 -99 OFFCURVE",
"264 -138 CURVE SMOOTH",
"264 -177 OFFCURVE",
"291 -199 OFFCURVE",
"331 -200 CURVE",
"325 -243 OFFCURVE",
"295 -287 OFFCURVE",
"270 -314 CURVE",
"313 -346 LINE"
);
}
);
width = 636;
}
);
note = Lcommaaccent;
rightKerningGroup = L;
unicode = 013B;
},
{
glyphname = Ldot;
lastChange = "2015-10-27 10:05:38 +0000";
layers = (
{
layerId = "79FE4770-DCAD-4138-A5DB-2166FBC61C29";
name = Bold;
paths = (
{
closed = 1;
nodes = (
"580 0 LINE",
"597 165 LINE",
"568 165 LINE",
"552 144 OFFCURVE",
"524 78 OFFCURVE",
"521 44 CURVE",
"255 44 LINE",
"255 662 LINE",
"281 668 OFFCURVE",
"309 674 OFFCURVE",
"334 682 CURVE",
"334 700 LINE",
"39 700 LINE",
"39 684 LINE",
"66 674 OFFCURVE",
"94 668 OFFCURVE",
"119 663 CURVE",
"119 36 LINE",
"89 32 OFFCURVE",
"59 24 OFFCURVE",
"33 16 CURVE",
"33 0 LINE"
);
},
{
closed = 1;
nodes = (
"475 328 OFFCURVE",
"497 352 OFFCURVE",
"497 385 CURVE SMOOTH",
"497 416 OFFCURVE",
"475 441 OFFCURVE",
"441 441 CURVE SMOOTH",
"407 441 OFFCURVE",
"385 416 OFFCURVE",
"385 385 CURVE SMOOTH",
"385 352 OFFCURVE",
"407 328 OFFCURVE",
"441 328 CURVE SMOOTH"
);
}
);
width = 636;
}
);
note = Ldot;
rightKerningGroup = L;
unicode = 013F;
},
{
glyphname = Ldotbelow;
lastChange = "2015-10-27 10:05:37 +0000";
layers = (
{
layerId = "79FE4770-DCAD-4138-A5DB-2166FBC61C29";
name = Bold;
paths = (
{
closed = 1;
nodes = (
"580 0 LINE",
"597 165 LINE",
"568 165 LINE",
"552 144 OFFCURVE",
"524 78 OFFCURVE",
"521 44 CURVE",
"255 44 LINE",
"255 662 LINE",
"281 668 OFFCURVE",
"309 674 OFFCURVE",
"334 682 CURVE",
"334 700 LINE",
"39 700 LINE",
"39 684 LINE",
"66 674 OFFCURVE",
"94 668 OFFCURVE",
"119 663 CURVE",
"119 36 LINE",
"89 32 OFFCURVE",
"59 24 OFFCURVE",
"33 16 CURVE",
"33 0 LINE"
);
},
{
closed = 1;
nodes = (
"366 -165 OFFCURVE",
"388 -141 OFFCURVE",
"388 -108 CURVE SMOOTH",
"388 -77 OFFCURVE",
"366 -52 OFFCURVE",
"333 -52 CURVE SMOOTH",
"298 -52 OFFCURVE",
"277 -77 OFFCURVE",
"277 -108 CURVE SMOOTH",
"277 -141 OFFCURVE",
"298 -165 OFFCURVE",
"333 -165 CURVE SMOOTH"
);
}
);
width = 636;
}
);
note = Ldotbelow;
rightKerningGroup = L;
unicode = 1E36;
},
{
glyphname = Ldotbelowmacron;
lastChange = "2015-10-27 10:05:37 +0000";
layers = (
{
layerId = "79FE4770-DCAD-4138-A5DB-2166FBC61C29";
name = Bold;
paths = (
{
closed = 1;
nodes = (
"580 0 LINE",
"597 165 LINE",
"568 165 LINE",
"552 144 OFFCURVE",
"524 78 OFFCURVE",
"521 44 CURVE",
"255 44 LINE",
"255 662 LINE",
"281 668 OFFCURVE",
"309 674 OFFCURVE",
"334 682 CURVE",
"334 700 LINE",
"39 700 LINE",
"39 684 LINE",
"66 674 OFFCURVE",
"94 668 OFFCURVE",
"119 663 CURVE",
"119 36 LINE",
"89 32 OFFCURVE",
"59 24 OFFCURVE",
"33 16 CURVE",
"33 0 LINE"
);
},
{
closed = 1;
nodes = (
"365 -165 OFFCURVE",
"387 -141 OFFCURVE",
"387 -108 CURVE SMOOTH",
"387 -77 OFFCURVE",
"365 -52 OFFCURVE",
"330 -52 CURVE SMOOTH",
"297 -52 OFFCURVE",
"275 -77 OFFCURVE",
"275 -108 CURVE SMOOTH",
"275 -141 OFFCURVE",
"297 -165 OFFCURVE",
"330 -165 CURVE SMOOTH"
);
},
{
closed = 1;
nodes = (
"371 785 LINE",
"371 828 LINE",
"0 828 LINE",
"0 785 LINE"
);
}
);
width = 636;
}
);
note = Ldotbelowmacron;
rightKerningGroup = L;
unicode = 1E38;
},
{
glyphname = Llinebelow;
lastChange = "2015-10-27 10:05:37 +0000";
layers = (
{
layerId = "79FE4770-DCAD-4138-A5DB-2166FBC61C29";
name = Bold;
paths = (
{
closed = 1;
nodes = (
"580 0 LINE",
"597 165 LINE",
"568 165 LINE",
"552 144 OFFCURVE",
"524 78 OFFCURVE",
"521 44 CURVE",
"255 44 LINE",
"255 662 LINE",
"281 668 OFFCURVE",
"309 674 OFFCURVE",
"334 682 CURVE",
"334 700 LINE",
"39 700 LINE",
"39 684 LINE",
"66 674 OFFCURVE",
"94 668 OFFCURVE",
"119 663 CURVE",
"119 36 LINE",
"89 32 OFFCURVE",
"59 24 OFFCURVE",
"33 16 CURVE",
"33 0 LINE"
);
},
{
closed = 1;
nodes = (
"505 -107 LINE",
"505 -64 LINE",
"134 -64 LINE",
"134 -107 LINE"
);
}
);
width = 636;
}
);
note = Llinebelow;
rightKerningGroup = L;
unicode = 1E3A;
},
{
glyphname = Lslash;
lastChange = "2015-10-27 10:05:38 +0000";
layers = (
{
layerId = "79FE4770-DCAD-4138-A5DB-2166FBC61C29";
name = Bold;
paths = (
{
closed = 1;
nodes = (
"580 0 LINE",
"597 165 LINE",
"568 165 LINE",
"552 144 OFFCURVE",
"524 78 OFFCURVE",
"521 44 CURVE",
"255 44 LINE",
"255 662 LINE",
"281 668 OFFCURVE",
"309 674 OFFCURVE",
"334 682 CURVE",
"334 700 LINE",
"39 700 LINE",
"39 684 LINE",
"66 674 OFFCURVE",
"94 668 OFFCURVE",
"119 663 CURVE",
"119 36 LINE",
"89 32 OFFCURVE",
"59 24 OFFCURVE",
"33 16 CURVE",
"33 0 LINE"
);
},
{
closed = 1;
nodes = (
"456 379 LINE",
"456 440 LINE",
"38 290 LINE",
"38 229 LINE"
);
}
);
width = 636;
}
);
note = Lslash;
rightKerningGroup = L;
unicode = 0141;
},
{
glyphname = M;
lastChange = "2015-10-27 10:05:38 +0000";
layers = (
{
layerId = "79FE4770-DCAD-4138-A5DB-2166FBC61C29";
name = Bold;
paths = (
{
closed = 1;
nodes = (
"249 0 LINE",
"249 15 LINE",
"222 24 OFFCURVE",
"196 30 OFFCURVE",
"170 35 CURVE",
"170 607 LINE",
"393 76 LINE",
"472 76 LINE",
"699 597 LINE",
"699 35 LINE",
"673 30 OFFCURVE",
"647 24 OFFCURVE",
"620 15 CURVE",
"620 0 LINE",
"914 0 LINE",
"914 15 LINE",
"886 24 OFFCURVE",
"860 30 OFFCURVE",
"835 35 CURVE",
"835 661 LINE",
"862 668 OFFCURVE",
"890 676 OFFCURVE",
"914 684 CURVE",
"914 700 LINE",
"690 700 LINE",
"466 181 LINE",
"258 700 LINE",
"33 700 LINE",
"33 684 LINE",
"60 674 OFFCURVE",
"89 668 OFFCURVE",
"113 663 CURVE",
"113 35 LINE",
"88 30 OFFCURVE",
"61 24 OFFCURVE",
"34 15 CURVE",
"34 0 LINE"
);
}
);
width = 948;
}
);
note = M;
unicode = 004D;
},
{
glyphname = Mdotbelow;
lastChange = "2015-10-27 10:05:38 +0000";
layers = (
{
layerId = "79FE4770-DCAD-4138-A5DB-2166FBC61C29";
name = Bold;
paths = (
{
closed = 1;
nodes = (
"249 0 LINE",
"249 15 LINE",
"222 24 OFFCURVE",
"196 30 OFFCURVE",
"170 35 CURVE",
"170 607 LINE",
"393 76 LINE",
"472 76 LINE",
"699 597 LINE",
"699 35 LINE",
"673 30 OFFCURVE",
"647 24 OFFCURVE",
"620 15 CURVE",
"620 0 LINE",
"914 0 LINE",
"914 15 LINE",
"886 24 OFFCURVE",
"860 30 OFFCURVE",
"835 35 CURVE",
"835 661 LINE",
"862 668 OFFCURVE",
"890 676 OFFCURVE",
"914 684 CURVE",
"914 700 LINE",
"690 700 LINE",
"466 181 LINE",
"258 700 LINE",
"33 700 LINE",
"33 684 LINE",
"60 674 OFFCURVE",
"89 668 OFFCURVE",
"113 663 CURVE",
"113 35 LINE",
"88 30 OFFCURVE",
"61 24 OFFCURVE",
"34 15 CURVE",
"34 0 LINE"
);
},
{
closed = 1;
nodes = (
"506 -169 OFFCURVE",
"528 -145 OFFCURVE",
"528 -113 CURVE SMOOTH",
"528 -80 OFFCURVE",
"506 -56 OFFCURVE",
"472 -56 CURVE SMOOTH",
"438 -56 OFFCURVE",
"416 -80 OFFCURVE",
"416 -113 CURVE SMOOTH",
"416 -145 OFFCURVE",
"438 -169 OFFCURVE",
"472 -169 CURVE SMOOTH"
);
}
);
width = 948;
}
);
note = Mdotbelow;
unicode = 1E42;
},
{
glyphname = N;
lastChange = "2015-10-27 10:05:37 +0000";
layers = (
{
layerId = "79FE4770-DCAD-4138-A5DB-2166FBC61C29";
name = Bold;
paths = (
{
closed = 1;
nodes = (
"249 0 LINE",
"249 15 LINE",
"222 24 OFFCURVE",
"196 30 OFFCURVE",
"170 35 CURVE",
"170 630 LINE",
"599 0 LINE",
"670 0 LINE",
"670 664 LINE",
"696 669 OFFCURVE",
"722 675 OFFCURVE",
"750 684 CURVE",
"750 700 LINE",
"534 700 LINE",
"534 684 LINE",
"562 675 OFFCURVE",
"588 669 OFFCURVE",
"613 664 CURVE",
"613 165 LINE",
"252 700 LINE",
"33 700 LINE",
"33 684 LINE",
"60 674 OFFCURVE",
"88 668 OFFCURVE",
"113 663 CURVE",
"113 35 LINE",
"88 30 OFFCURVE",
"61 24 OFFCURVE",
"34 15 CURVE",
"34 0 LINE"
);
}
);
width = 783;
}
);
note = N;
unicode = 004E;
},
{
glyphname = Nacute;
lastChange = "2015-10-27 10:05:37 +0000";
layers = (
{
layerId = "79FE4770-DCAD-4138-A5DB-2166FBC61C29";
name = Bold;
paths = (
{
closed = 1;
nodes = (
"249 0 LINE",
"249 15 LINE",
"222 24 OFFCURVE",
"196 30 OFFCURVE",
"170 35 CURVE",
"170 630 LINE",
"599 0 LINE",
"670 0 LINE",
"670 664 LINE",
"696 669 OFFCURVE",
"722 675 OFFCURVE",
"750 684 CURVE",
"750 700 LINE",
"534 700 LINE",
"534 684 LINE",
"562 675 OFFCURVE",
"588 669 OFFCURVE",
"613 664 CURVE",
"613 165 LINE",
"252 700 LINE",
"33 700 LINE",
"33 684 LINE",
"60 674 OFFCURVE",
"88 668 OFFCURVE",
"113 663 CURVE",
"113 35 LINE",
"88 30 OFFCURVE",
"61 24 OFFCURVE",
"34 15 CURVE",
"34 0 LINE"
);
},
{
closed = 1;
nodes = (
"496 875 LINE SMOOTH",
"525 892 OFFCURVE",
"540 909 OFFCURVE",
"540 930 CURVE SMOOTH",
"540 947 OFFCURVE",
"529 967 OFFCURVE",
"499 967 CURVE SMOOTH",
"469 967 OFFCURVE",
"446 943 OFFCURVE",
"440 936 CURVE",
"320 817 LINE",
"342 786 LINE"
);
}
);
width = 783;
}
);
note = Nacute;
unicode = 0143;
},
{
glyphname = Ncaron;
lastChange = "2015-10-27 10:05:38 +0000";
layers = (
{
layerId = "79FE4770-DCAD-4138-A5DB-2166FBC61C29";
name = Bold;
paths = (
{
closed = 1;
nodes = (
"249 0 LINE",
"249 15 LINE",
"222 24 OFFCURVE",
"196 30 OFFCURVE",
"170 35 CURVE",
"170 630 LINE",
"599 0 LINE",
"670 0 LINE",
"670 664 LINE",
"696 669 OFFCURVE",
"722 675 OFFCURVE",
"750 684 CURVE",
"750 700 LINE",
"534 700 LINE",
"534 684 LINE",
"562 675 OFFCURVE",
"588 669 OFFCURVE",
"613 664 CURVE",
"613 165 LINE",
"252 700 LINE",
"33 700 LINE",
"33 684 LINE",
"60 674 OFFCURVE",
"88 668 OFFCURVE",
"113 663 CURVE",
"113 35 LINE",
"88 30 OFFCURVE",
"61 24 OFFCURVE",
"34 15 CURVE",
"34 0 LINE"
);
},
{
closed = 1;
nodes = (
"421 786 LINE",
"447 824 OFFCURVE",
"525 894 OFFCURVE",
"568 922 CURVE",
"514 963 LINE",
"474 932 OFFCURVE",
"417 877 OFFCURVE",
"392 841 CURVE",
"388 841 LINE",
"364 877 OFFCURVE",
"306 932 OFFCURVE",
"266 963 CURVE",
"212 922 LINE",
"255 894 OFFCURVE",
"333 824 OFFCURVE",
"359 786 CURVE"
);
}
);
width = 783;
}
);
note = Ncaron;
unicode = 0147;
},
{
glyphname = Ncommaaccent;
lastChange = "2015-10-27 10:05:37 +0000";
layers = (
{
layerId = "79FE4770-DCAD-4138-A5DB-2166FBC61C29";
name = Bold;
paths = (
{
closed = 1;
nodes = (
"249 0 LINE",
"249 15 LINE",
"222 24 OFFCURVE",
"196 30 OFFCURVE",
"170 35 CURVE",
"170 630 LINE",
"599 0 LINE",
"670 0 LINE",
"670 664 LINE",
"696 669 OFFCURVE",
"722 675 OFFCURVE",
"750 684 CURVE",
"750 700 LINE",
"534 700 LINE",
"534 684 LINE",
"562 675 OFFCURVE",
"588 669 OFFCURVE",
"613 664 CURVE",
"613 165 LINE",
"252 700 LINE",
"33 700 LINE",
"33 684 LINE",
"60 674 OFFCURVE",
"88 668 OFFCURVE",
"113 663 CURVE",
"113 35 LINE",
"88 30 OFFCURVE",
"61 24 OFFCURVE",
"34 15 CURVE",
"34 0 LINE"
);
},
{
closed = 1;
nodes = (
"428 -300 OFFCURVE",
"467 -220 OFFCURVE",
"467 -151 CURVE SMOOTH",
"467 -111 OFFCURVE",
"446 -77 OFFCURVE",
"395 -77 CURVE SMOOTH",
"360 -77 OFFCURVE",
"328 -99 OFFCURVE",
"328 -138 CURVE SMOOTH",
"328 -177 OFFCURVE",
"355 -199 OFFCURVE",
"395 -200 CURVE",
"389 -243 OFFCURVE",
"359 -287 OFFCURVE",
"334 -314 CURVE",
"377 -346 LINE"
);
}
);
width = 783;
}
);
note = Ncommaaccent;
unicode = 0145;
},
{
glyphname = Ndotaccent;
lastChange = "2015-10-27 10:05:37 +0000";
layers = (
{
layerId = "79FE4770-DCAD-4138-A5DB-2166FBC61C29";
name = Bold;
paths = (
{
closed = 1;
nodes = (
"249 0 LINE",
"249 15 LINE",
"222 24 OFFCURVE",
"196 30 OFFCURVE",
"170 35 CURVE",
"170 630 LINE",
"599 0 LINE",
"670 0 LINE",
"670 664 LINE",
"696 669 OFFCURVE",
"722 675 OFFCURVE",
"750 684 CURVE",
"750 700 LINE",
"534 700 LINE",
"534 684 LINE",
"562 675 OFFCURVE",
"588 669 OFFCURVE",
"613 664 CURVE",
"613 165 LINE",
"252 700 LINE",
"33 700 LINE",
"33 684 LINE",
"60 674 OFFCURVE",
"88 668 OFFCURVE",
"113 663 CURVE",
"113 35 LINE",
"88 30 OFFCURVE",
"61 24 OFFCURVE",
"34 15 CURVE",
"34 0 LINE"
);
},
{
closed = 1;
nodes = (
"426 785 OFFCURVE",
"448 809 OFFCURVE",
"448 841 CURVE SMOOTH",
"448 874 OFFCURVE",
"426 898 OFFCURVE",
"393 898 CURVE SMOOTH",
"358 898 OFFCURVE",
"337 874 OFFCURVE",
"337 841 CURVE SMOOTH",
"337 809 OFFCURVE",
"358 785 OFFCURVE",
"393 785 CURVE SMOOTH"
);
}
);
width = 783;
}
);
note = Ndotaccent;
unicode = 1E44;
},
{
glyphname = Ndotbelow;
lastChange = "2015-10-27 10:05:37 +0000";
layers = (
{
layerId = "79FE4770-DCAD-4138-A5DB-2166FBC61C29";
name = Bold;
paths = (
{
closed = 1;
nodes = (
"249 0 LINE",
"249 15 LINE",
"222 24 OFFCURVE",
"196 30 OFFCURVE",
"170 35 CURVE",
"170 630 LINE",
"599 0 LINE",
"670 0 LINE",
"670 664 LINE",
"696 669 OFFCURVE",
"722 675 OFFCURVE",
"750 684 CURVE",
"750 700 LINE",
"534 700 LINE",
"534 684 LINE",
"562 675 OFFCURVE",
"588 669 OFFCURVE",
"613 664 CURVE",
"613 165 LINE",
"252 700 LINE",
"33 700 LINE",
"33 684 LINE",
"60 674 OFFCURVE",
"88 668 OFFCURVE",
"113 663 CURVE",
"113 35 LINE",
"88 30 OFFCURVE",
"61 24 OFFCURVE",
"34 15 CURVE",
"34 0 LINE"
);
},
{
closed = 1;
nodes = (
"419 -169 OFFCURVE",
"441 -145 OFFCURVE",
"441 -113 CURVE SMOOTH",
"441 -80 OFFCURVE",
"419 -56 OFFCURVE",
"385 -56 CURVE SMOOTH",
"351 -56 OFFCURVE",
"329 -80 OFFCURVE",
"329 -113 CURVE SMOOTH",
"329 -145 OFFCURVE",
"351 -169 OFFCURVE",
"385 -169 CURVE SMOOTH"
);
}
);
width = 783;
}
);
note = uni1E46;
unicode = 1E46;
},
{
glyphname = Eng;
lastChange = "2015-10-27 10:05:37 +0000";
layers = (
{
layerId = "79FE4770-DCAD-4138-A5DB-2166FBC61C29";
name = Bold;
paths = (
{
closed = 1;
nodes = (
"608 -250 OFFCURVE",
"670 -205 OFFCURVE",
"670 -105 CURVE SMOOTH",
"670 664 LINE",
"696 669 OFFCURVE",
"722 675 OFFCURVE",
"750 684 CURVE",
"750 700 LINE",
"534 700 LINE",
"534 684 LINE",
"562 675 OFFCURVE",
"588 669 OFFCURVE",
"613 664 CURVE",
"613 165 LINE",
"252 700 LINE",
"33 700 LINE",
"33 684 LINE",
"60 674 OFFCURVE",
"88 668 OFFCURVE",
"113 663 CURVE",
"113 35 LINE",
"88 30 OFFCURVE",
"61 24 OFFCURVE",
"34 15 CURVE",
"34 0 LINE",
"249 0 LINE",
"249 15 LINE",
"222 24 OFFCURVE",
"196 30 OFFCURVE",
"170 35 CURVE",
"170 630 LINE",
"614 -6 LINE",
"614 -106 LINE SMOOTH",
"614 -176 OFFCURVE",
"558 -201 OFFCURVE",
"495 -201 CURVE SMOOTH",
"459 -201 OFFCURVE",
"427 -195 OFFCURVE",
"402 -185 CURVE",
"393 -220 LINE",
"430 -238 OFFCURVE",
"471 -250 OFFCURVE",
"518 -250 CURVE SMOOTH"
);
}
);
width = 783;
}
);
note = Eng;
unicode = 014A;
},
{
glyphname = Nlinebelow;
lastChange = "2015-10-27 10:05:37 +0000";
layers = (
{
layerId = "79FE4770-DCAD-4138-A5DB-2166FBC61C29";
name = Bold;
paths = (
{
closed = 1;
nodes = (
"249 0 LINE",
"249 15 LINE",
"222 24 OFFCURVE",
"196 30 OFFCURVE",
"170 35 CURVE",
"170 630 LINE",
"599 0 LINE",
"670 0 LINE",
"670 664 LINE",
"696 669 OFFCURVE",
"722 675 OFFCURVE",
"750 684 CURVE",
"750 700 LINE",
"534 700 LINE",
"534 684 LINE",
"562 675 OFFCURVE",
"588 669 OFFCURVE",
"613 664 CURVE",
"613 165 LINE",
"252 700 LINE",
"33 700 LINE",
"33 684 LINE",
"60 674 OFFCURVE",
"88 668 OFFCURVE",
"113 663 CURVE",
"113 35 LINE",
"88 30 OFFCURVE",
"61 24 OFFCURVE",
"34 15 CURVE",
"34 0 LINE"
);
},
{
closed = 1;
nodes = (
"578 -107 LINE",
"578 -64 LINE",
"207 -64 LINE",
"207 -107 LINE"
);
}
);
width = 783;
}
);
note = Nlinebelow;
unicode = 1E48;
},
{
glyphname = Ntilde;
lastChange = "2015-10-27 10:05:38 +0000";
layers = (
{
layerId = "79FE4770-DCAD-4138-A5DB-2166FBC61C29";
name = Bold;
paths = (
{
closed = 1;
nodes = (
"249 0 LINE",
"249 15 LINE",
"222 24 OFFCURVE",
"196 30 OFFCURVE",
"170 35 CURVE",
"170 630 LINE",
"599 0 LINE",
"670 0 LINE",
"670 664 LINE",
"696 669 OFFCURVE",
"722 675 OFFCURVE",
"750 684 CURVE",
"750 700 LINE",
"534 700 LINE",
"534 684 LINE",
"562 675 OFFCURVE",
"588 669 OFFCURVE",
"613 664 CURVE",
"613 165 LINE",
"252 700 LINE",
"33 700 LINE",
"33 684 LINE",
"60 674 OFFCURVE",
"88 668 OFFCURVE",
"113 663 CURVE",
"113 35 LINE",
"88 30 OFFCURVE",
"61 24 OFFCURVE",
"34 15 CURVE",
"34 0 LINE"
);
},
{
closed = 1;
nodes = (
"260 786 LINE",
"267 819 OFFCURVE",
"290 840 OFFCURVE",
"320 840 CURVE SMOOTH",
"358 840 OFFCURVE",
"419 786 OFFCURVE",
"475 786 CURVE SMOOTH",
"546 786 OFFCURVE",
"581 832 OFFCURVE",
"589 900 CURVE",
"537 900 LINE",
"527 855 OFFCURVE",
"500 844 OFFCURVE",
"473 844 CURVE SMOOTH",
"432 844 OFFCURVE",
"388 897 OFFCURVE",
"321 897 CURVE SMOOTH",
"258 897 OFFCURVE",
"217 860 OFFCURVE",
"207 786 CURVE"
);
}
);
width = 783;
}
);
note = Ntilde;
unicode = 00D1;
},
{
glyphname = O;
lastChange = "2015-10-27 10:05:37 +0000";
layers = (
{
layerId = "79FE4770-DCAD-4138-A5DB-2166FBC61C29";
name = Bold;
paths = (
{
closed = 1;
nodes = (
"594 -10 OFFCURVE",
"714 127 OFFCURVE",
"714 350 CURVE SMOOTH",
"714 572 OFFCURVE",
"594 710 OFFCURVE",
"374 710 CURVE SMOOTH",
"153 710 OFFCURVE",
"35 572 OFFCURVE",
"35 350 CURVE SMOOTH",
"35 127 OFFCURVE",
"153 -10 OFFCURVE",
"374 -10 CURVE SMOOTH"
);
},
{
closed = 1;
nodes = (
"235 37 OFFCURVE",
"172 168 OFFCURVE",
"172 350 CURVE SMOOTH",
"172 531 OFFCURVE",
"235 663 OFFCURVE",
"374 663 CURVE SMOOTH",
"513 663 OFFCURVE",
"577 531 OFFCURVE",
"577 350 CURVE SMOOTH",
"577 168 OFFCURVE",
"513 37 OFFCURVE",
"374 37 CURVE SMOOTH"
);
}
);
width = 749;
}
);
leftKerningGroup = O;
note = O;
rightKerningGroup = O;
unicode = 004F;
},
{
glyphname = Oacute;
lastChange = "2015-10-27 10:05:37 +0000";
layers = (
{
layerId = "79FE4770-DCAD-4138-A5DB-2166FBC61C29";
name = Bold;
paths = (
{
closed = 1;
nodes = (
"594 -10 OFFCURVE",
"714 127 OFFCURVE",
"714 350 CURVE SMOOTH",
"714 572 OFFCURVE",
"594 710 OFFCURVE",
"374 710 CURVE SMOOTH",
"153 710 OFFCURVE",
"35 572 OFFCURVE",
"35 350 CURVE SMOOTH",
"35 127 OFFCURVE",
"153 -10 OFFCURVE",
"374 -10 CURVE SMOOTH"
);
},
{
closed = 1;
nodes = (
"235 37 OFFCURVE",
"172 168 OFFCURVE",
"172 350 CURVE SMOOTH",
"172 531 OFFCURVE",
"235 663 OFFCURVE",
"374 663 CURVE SMOOTH",
"513 663 OFFCURVE",
"577 531 OFFCURVE",
"577 350 CURVE SMOOTH",
"577 168 OFFCURVE",
"513 37 OFFCURVE",
"374 37 CURVE SMOOTH"
);
},
{
closed = 1;
nodes = (
"445 875 LINE SMOOTH",
"474 892 OFFCURVE",
"489 909 OFFCURVE",
"489 930 CURVE SMOOTH",
"489 947 OFFCURVE",
"478 967 OFFCURVE",
"448 967 CURVE SMOOTH",
"418 967 OFFCURVE",
"395 943 OFFCURVE",
"389 936 CURVE",
"269 817 LINE",
"291 786 LINE"
);
}
);
width = 749;
}
);
leftKerningGroup = O;
note = Oacute;
rightKerningGroup = O;
unicode = 00D3;
},
{
glyphname = Obreve;
lastChange = "2015-10-27 10:05:37 +0000";
layers = (
{
layerId = "79FE4770-DCAD-4138-A5DB-2166FBC61C29";
name = Bold;
paths = (
{
closed = 1;
nodes = (
"594 -10 OFFCURVE",
"714 127 OFFCURVE",
"714 350 CURVE SMOOTH",
"714 572 OFFCURVE",
"594 710 OFFCURVE",
"374 710 CURVE SMOOTH",
"153 710 OFFCURVE",
"35 572 OFFCURVE",
"35 350 CURVE SMOOTH",
"35 127 OFFCURVE",
"153 -10 OFFCURVE",
"374 -10 CURVE SMOOTH"
);
},
{
closed = 1;
nodes = (
"235 37 OFFCURVE",
"172 168 OFFCURVE",
"172 350 CURVE SMOOTH",
"172 531 OFFCURVE",
"235 663 OFFCURVE",
"374 663 CURVE SMOOTH",
"513 663 OFFCURVE",
"577 531 OFFCURVE",
"577 350 CURVE SMOOTH",
"577 168 OFFCURVE",
"513 37 OFFCURVE",
"374 37 CURVE SMOOTH"
);
},
{
closed = 1;
nodes = (
"467 779 OFFCURVE",
"533 821 OFFCURVE",
"546 910 CURVE",
"470 910 LINE",
"462 836 OFFCURVE",
"415 826 OFFCURVE",
"374 826 CURVE SMOOTH",
"333 826 OFFCURVE",
"285 836 OFFCURVE",
"277 910 CURVE",
"201 910 LINE",
"215 821 OFFCURVE",
"280 779 OFFCURVE",
"374 779 CURVE SMOOTH"
);
}
);
width = 749;
}
);
leftKerningGroup = O;
note = Obreve;
rightKerningGroup = O;
unicode = 014E;
},
{
glyphname = Ocaron;
lastChange = "2015-10-27 10:05:37 +0000";
layers = (
{
layerId = "79FE4770-DCAD-4138-A5DB-2166FBC61C29";
name = Bold;
paths = (
{
closed = 1;
nodes = (
"594 -10 OFFCURVE",
"714 127 OFFCURVE",
"714 350 CURVE SMOOTH",
"714 572 OFFCURVE",
"594 710 OFFCURVE",
"374 710 CURVE SMOOTH",
"153 710 OFFCURVE",
"35 572 OFFCURVE",
"35 350 CURVE SMOOTH",
"35 127 OFFCURVE",
"153 -10 OFFCURVE",
"374 -10 CURVE SMOOTH"
);
},
{
closed = 1;
nodes = (
"235 37 OFFCURVE",
"172 168 OFFCURVE",
"172 350 CURVE SMOOTH",
"172 531 OFFCURVE",
"235 663 OFFCURVE",
"374 663 CURVE SMOOTH",
"513 663 OFFCURVE",
"577 531 OFFCURVE",
"577 350 CURVE SMOOTH",
"577 168 OFFCURVE",
"513 37 OFFCURVE",
"374 37 CURVE SMOOTH"
);
},
{
closed = 1;
nodes = (
"405 786 LINE",
"431 824 OFFCURVE",
"509 894 OFFCURVE",
"552 922 CURVE",
"498 963 LINE",
"458 932 OFFCURVE",
"401 877 OFFCURVE",
"376 841 CURVE",
"372 841 LINE",
"348 877 OFFCURVE",
"290 932 OFFCURVE",
"250 963 CURVE",
"196 922 LINE",
"239 894 OFFCURVE",
"317 824 OFFCURVE",
"343 786 CURVE"
);
}
);
width = 749;
}
);
leftKerningGroup = O;
note = Ocaron;
rightKerningGroup = O;
unicode = 01D1;
},
{
glyphname = Ocircumflex;
lastChange = "2015-10-27 10:05:37 +0000";
layers = (
{
layerId = "79FE4770-DCAD-4138-A5DB-2166FBC61C29";
name = Bold;
paths = (
{
closed = 1;
nodes = (
"594 -10 OFFCURVE",
"714 127 OFFCURVE",
"714 350 CURVE SMOOTH",
"714 572 OFFCURVE",
"594 710 OFFCURVE",
"374 710 CURVE SMOOTH",
"153 710 OFFCURVE",
"35 572 OFFCURVE",
"35 350 CURVE SMOOTH",
"35 127 OFFCURVE",
"153 -10 OFFCURVE",
"374 -10 CURVE SMOOTH"
);
},
{
closed = 1;
nodes = (
"235 37 OFFCURVE",
"172 168 OFFCURVE",
"172 350 CURVE SMOOTH",
"172 531 OFFCURVE",
"235 663 OFFCURVE",
"374 663 CURVE SMOOTH",
"513 663 OFFCURVE",
"577 531 OFFCURVE",
"577 350 CURVE SMOOTH",
"577 168 OFFCURVE",
"513 37 OFFCURVE",
"374 37 CURVE SMOOTH"
);
},
{
closed = 1;
nodes = (
"289 813 OFFCURVE",
"347 868 OFFCURVE",
"371 904 CURVE",
"375 904 LINE",
"400 868 OFFCURVE",
"457 813 OFFCURVE",
"497 782 CURVE",
"551 823 LINE",
"508 851 OFFCURVE",
"430 922 OFFCURVE",
"404 959 CURVE",
"342 959 LINE",
"316 922 OFFCURVE",
"238 851 OFFCURVE",
"195 823 CURVE",
"249 782 LINE"
);
}
);
width = 749;
}
);
leftKerningGroup = O;
note = Ocircumflex;
rightKerningGroup = O;
unicode = 00D4;
},
{
glyphname = Ocircumflexacute;
lastChange = "2015-10-27 10:05:38 +0000";
layers = (
{
layerId = "79FE4770-DCAD-4138-A5DB-2166FBC61C29";
name = Bold;
paths = (
{
closed = 1;
nodes = (
"594 -10 OFFCURVE",
"714 127 OFFCURVE",
"714 350 CURVE SMOOTH",
"714 572 OFFCURVE",
"594 710 OFFCURVE",
"374 710 CURVE SMOOTH",
"153 710 OFFCURVE",
"35 572 OFFCURVE",
"35 350 CURVE SMOOTH",
"35 127 OFFCURVE",
"153 -10 OFFCURVE",
"374 -10 CURVE SMOOTH"
);
},
{
closed = 1;
nodes = (
"235 37 OFFCURVE",
"172 168 OFFCURVE",
"172 350 CURVE SMOOTH",
"172 531 OFFCURVE",
"235 663 OFFCURVE",
"374 663 CURVE SMOOTH",
"513 663 OFFCURVE",
"577 531 OFFCURVE",
"577 350 CURVE SMOOTH",
"577 168 OFFCURVE",
"513 37 OFFCURVE",
"374 37 CURVE SMOOTH"
);
},
{
closed = 1;
nodes = (
"290 813 OFFCURVE",
"346 868 OFFCURVE",
"371 904 CURVE",
"375 904 LINE",
"400 868 OFFCURVE",
"457 813 OFFCURVE",
"497 782 CURVE",
"551 823 LINE",
"509 851 OFFCURVE",
"430 922 OFFCURVE",
"404 959 CURVE",
"342 959 LINE",
"316 922 OFFCURVE",
"238 851 OFFCURVE",
"195 823 CURVE",
"250 782 LINE"
);
},
{
closed = 1;
nodes = (
"611 967 LINE SMOOTH",
"651 987 OFFCURVE",
"669 1012 OFFCURVE",
"669 1033 CURVE SMOOTH",
"669 1050 OFFCURVE",
"656 1066 OFFCURVE",
"632 1066 CURVE SMOOTH",
"610 1066 OFFCURVE",
"585 1051 OFFCURVE",
"561 1024 CURVE SMOOTH",
"487 942 LINE",
"508 915 LINE"
);
}
);
width = 749;
}
);
leftKerningGroup = O;
note = Ocircumflexacute;
rightKerningGroup = O;
unicode = 1ED0;
},
{
glyphname = Ocircumflexdotbelow;
lastChange = "2015-10-27 10:05:38 +0000";
layers = (
{
layerId = "79FE4770-DCAD-4138-A5DB-2166FBC61C29";
name = Bold;
paths = (
{
closed = 1;
nodes = (
"594 -10 OFFCURVE",
"714 127 OFFCURVE",
"714 350 CURVE SMOOTH",
"714 572 OFFCURVE",
"594 710 OFFCURVE",
"374 710 CURVE SMOOTH",
"153 710 OFFCURVE",
"35 572 OFFCURVE",
"35 350 CURVE SMOOTH",
"35 127 OFFCURVE",
"153 -10 OFFCURVE",
"374 -10 CURVE SMOOTH"
);
},
{
closed = 1;
nodes = (
"407 -169 OFFCURVE",
"429 -145 OFFCURVE",
"429 -113 CURVE SMOOTH",
"429 -80 OFFCURVE",
"407 -56 OFFCURVE",
"373 -56 CURVE SMOOTH",
"339 -56 OFFCURVE",
"317 -80 OFFCURVE",
"317 -113 CURVE SMOOTH",
"317 -145 OFFCURVE",
"339 -169 OFFCURVE",
"373 -169 CURVE SMOOTH"
);
},
{
closed = 1;
nodes = (
"235 37 OFFCURVE",
"172 168 OFFCURVE",
"172 350 CURVE SMOOTH",
"172 531 OFFCURVE",
"235 663 OFFCURVE",
"374 663 CURVE SMOOTH",
"513 663 OFFCURVE",
"577 531 OFFCURVE",
"577 350 CURVE SMOOTH",
"577 168 OFFCURVE",
"513 37 OFFCURVE",
"374 37 CURVE SMOOTH"
);
},
{
closed = 1;
nodes = (
"289 813 OFFCURVE",
"347 868 OFFCURVE",
"371 904 CURVE",
"375 904 LINE",
"400 868 OFFCURVE",
"457 813 OFFCURVE",
"497 782 CURVE",
"551 823 LINE",
"508 851 OFFCURVE",
"430 922 OFFCURVE",
"404 959 CURVE",
"342 959 LINE",
"316 922 OFFCURVE",
"238 851 OFFCURVE",
"195 823 CURVE",
"249 782 LINE"
);
}
);
width = 749;
}
);
leftKerningGroup = O;
note = Ocircumflexdotbelow;
rightKerningGroup = O;
unicode = 1ED8;
},
{
glyphname = Ocircumflexgrave;
lastChange = "2015-10-27 10:05:38 +0000";
layers = (
{
layerId = "79FE4770-DCAD-4138-A5DB-2166FBC61C29";
name = Bold;
paths = (
{
closed = 1;
nodes = (
"594 -10 OFFCURVE",
"714 127 OFFCURVE",
"714 350 CURVE SMOOTH",
"714 572 OFFCURVE",
"594 710 OFFCURVE",
"374 710 CURVE SMOOTH",
"153 710 OFFCURVE",
"35 572 OFFCURVE",
"35 350 CURVE SMOOTH",
"35 127 OFFCURVE",
"153 -10 OFFCURVE",
"374 -10 CURVE SMOOTH"
);
},
{
closed = 1;
nodes = (
"235 37 OFFCURVE",
"172 168 OFFCURVE",
"172 350 CURVE SMOOTH",
"172 531 OFFCURVE",
"235 663 OFFCURVE",
"374 663 CURVE SMOOTH",
"513 663 OFFCURVE",
"577 531 OFFCURVE",
"577 350 CURVE SMOOTH",
"577 168 OFFCURVE",
"513 37 OFFCURVE",
"374 37 CURVE SMOOTH"
);
},
{
closed = 1;
nodes = (
"262 942 LINE",
"189 1024 LINE SMOOTH",
"164 1051 OFFCURVE",
"139 1066 OFFCURVE",
"117 1066 CURVE SMOOTH",
"93 1066 OFFCURVE",
"80 1050 OFFCURVE",
"80 1033 CURVE SMOOTH",
"80 1012 OFFCURVE",
"99 988 OFFCURVE",
"139 967 CURVE SMOOTH",
"241 915 LINE"
);
},
{
closed = 1;
nodes = (
"290 813 OFFCURVE",
"346 868 OFFCURVE",
"371 904 CURVE",
"375 904 LINE",
"400 868 OFFCURVE",
"457 813 OFFCURVE",
"497 782 CURVE",
"551 823 LINE",
"509 851 OFFCURVE",
"430 922 OFFCURVE",
"404 959 CURVE",
"342 959 LINE",
"316 922 OFFCURVE",
"238 851 OFFCURVE",
"195 823 CURVE",
"250 782 LINE"
);
}
);
width = 749;
}
);
leftKerningGroup = O;
note = Ocircumflexgrave;
rightKerningGroup = O;
unicode = 1ED2;
},
{
glyphname = Ocircumflexhookabove;
lastChange = "2015-10-27 10:05:37 +0000";
layers = (
{
layerId = "79FE4770-DCAD-4138-A5DB-2166FBC61C29";
name = Bold;
paths = (
{
closed = 1;
nodes = (
"594 -10 OFFCURVE",
"714 127 OFFCURVE",
"714 350 CURVE SMOOTH",
"714 572 OFFCURVE",
"594 710 OFFCURVE",
"374 710 CURVE SMOOTH",
"153 710 OFFCURVE",
"35 572 OFFCURVE",
"35 350 CURVE SMOOTH",
"35 127 OFFCURVE",
"153 -10 OFFCURVE",
"374 -10 CURVE SMOOTH"
);
},
{
closed = 1;
nodes = (
"235 37 OFFCURVE",
"172 168 OFFCURVE",
"172 350 CURVE SMOOTH",
"172 531 OFFCURVE",
"235 663 OFFCURVE",
"374 663 CURVE SMOOTH",
"513 663 OFFCURVE",
"577 531 OFFCURVE",
"577 350 CURVE SMOOTH",
"577 168 OFFCURVE",
"513 37 OFFCURVE",
"374 37 CURVE SMOOTH"
);
},
{
closed = 1;
nodes = (
"290 816 OFFCURVE",
"346 871 OFFCURVE",
"371 907 CURVE",
"375 907 LINE",
"400 871 OFFCURVE",
"457 816 OFFCURVE",
"497 785 CURVE",
"551 826 LINE",
"509 854 OFFCURVE",
"430 925 OFFCURVE",
"404 962 CURVE",
"342 962 LINE",
"316 925 OFFCURVE",
"238 854 OFFCURVE",
"195 826 CURVE",
"250 785 LINE"
);
},
{
closed = 1;
nodes = (
"535 921 LINE",
"544 972 LINE",
"590 976 OFFCURVE",
"624 995 OFFCURVE",
"624 1043 CURVE SMOOTH",
"624 1096 OFFCURVE",
"574 1117 OFFCURVE",
"524 1117 CURVE SMOOTH",
"496 1117 OFFCURVE",
"469 1110 OFFCURVE",
"452 1103 CURVE",
"458 1070 LINE",
"475 1078 OFFCURVE",
"495 1082 OFFCURVE",
"511 1082 CURVE SMOOTH",
"546 1082 OFFCURVE",
"564 1065 OFFCURVE",
"564 1044 CURVE SMOOTH",
"564 1013 OFFCURVE",
"540 1000 OFFCURVE",
"512 1000 CURVE SMOOTH",
"483 1000 LINE",
"487 921 LINE"
);
}
);
width = 749;
}
);
leftKerningGroup = O;
note = Ocircumflexhookabove;
rightKerningGroup = O;
unicode = 1ED4;
},
{
glyphname = Ocircumflextilde;
lastChange = "2015-10-27 10:05:38 +0000";
layers = (
{
layerId = "79FE4770-DCAD-4138-A5DB-2166FBC61C29";
name = Bold;
paths = (
{
closed = 1;
nodes = (
"594 -10 OFFCURVE",
"714 127 OFFCURVE",
"714 350 CURVE SMOOTH",
"714 572 OFFCURVE",
"594 710 OFFCURVE",
"374 710 CURVE SMOOTH",
"153 710 OFFCURVE",
"35 572 OFFCURVE",
"35 350 CURVE SMOOTH",
"35 127 OFFCURVE",
"153 -10 OFFCURVE",
"374 -10 CURVE SMOOTH"
);
},
{
closed = 1;
nodes = (
"235 37 OFFCURVE",
"172 168 OFFCURVE",
"172 350 CURVE SMOOTH",
"172 531 OFFCURVE",
"235 663 OFFCURVE",
"374 663 CURVE SMOOTH",
"513 663 OFFCURVE",
"577 531 OFFCURVE",
"577 350 CURVE SMOOTH",
"577 168 OFFCURVE",
"513 37 OFFCURVE",
"374 37 CURVE SMOOTH"
);
},
{
closed = 1;
nodes = (
"290 813 OFFCURVE",
"346 868 OFFCURVE",
"371 904 CURVE",
"375 904 LINE",
"400 868 OFFCURVE",
"457 813 OFFCURVE",
"497 782 CURVE",
"551 823 LINE",
"509 851 OFFCURVE",
"430 922 OFFCURVE",
"404 959 CURVE",
"342 959 LINE",
"316 922 OFFCURVE",
"238 851 OFFCURVE",
"195 823 CURVE",
"250 782 LINE"
);
},
{
closed = 1;
nodes = (
"240 988 LINE",
"247 1021 OFFCURVE",
"272 1042 OFFCURVE",
"303 1042 CURVE SMOOTH",
"345 1042 OFFCURVE",
"395 989 OFFCURVE",
"451 989 CURVE SMOOTH",
"521 989 OFFCURVE",
"556 1033 OFFCURVE",
"564 1101 CURVE",
"519 1101 LINE",
"509 1057 OFFCURVE",
"477 1045 OFFCURVE",
"451 1045 CURVE SMOOTH",
"410 1045 OFFCURVE",
"373 1098 OFFCURVE",
"307 1098 CURVE SMOOTH",
"244 1098 OFFCURVE",
"204 1062 OFFCURVE",
"194 988 CURVE"
);
}
);
width = 749;
}
);
leftKerningGroup = O;
note = Ocircumflextilde;
rightKerningGroup = O;
unicode = 1ED6;
},
{
glyphname = Odieresis;
lastChange = "2015-10-27 10:05:37 +0000";
layers = (
{
layerId = "79FE4770-DCAD-4138-A5DB-2166FBC61C29";
name = Bold;
paths = (
{
closed = 1;
nodes = (
"594 -10 OFFCURVE",
"714 127 OFFCURVE",
"714 350 CURVE SMOOTH",
"714 572 OFFCURVE",
"594 710 OFFCURVE",
"374 710 CURVE SMOOTH",
"153 710 OFFCURVE",
"35 572 OFFCURVE",
"35 350 CURVE SMOOTH",
"35 127 OFFCURVE",
"153 -10 OFFCURVE",
"374 -10 CURVE SMOOTH"
);
},
{
closed = 1;
nodes = (
"235 37 OFFCURVE",
"172 168 OFFCURVE",
"172 350 CURVE SMOOTH",
"172 531 OFFCURVE",
"235 663 OFFCURVE",
"374 663 CURVE SMOOTH",
"513 663 OFFCURVE",
"577 531 OFFCURVE",
"577 350 CURVE SMOOTH",
"577 168 OFFCURVE",
"513 37 OFFCURVE",
"374 37 CURVE SMOOTH"
);
},
{
closed = 1;
nodes = (
"291 785 OFFCURVE",
"313 809 OFFCURVE",
"313 841 CURVE SMOOTH",
"313 874 OFFCURVE",
"291 898 OFFCURVE",
"256 898 CURVE SMOOTH",
"223 898 OFFCURVE",
"201 874 OFFCURVE",
"201 841 CURVE SMOOTH",
"201 809 OFFCURVE",
"223 785 OFFCURVE",
"256 785 CURVE SMOOTH"
);
},
{
closed = 1;
nodes = (
"524 785 OFFCURVE",
"546 809 OFFCURVE",
"546 841 CURVE SMOOTH",
"546 874 OFFCURVE",
"524 898 OFFCURVE",
"490 898 CURVE SMOOTH",
"455 898 OFFCURVE",
"434 874 OFFCURVE",
"434 841 CURVE SMOOTH",
"434 809 OFFCURVE",
"455 785 OFFCURVE",
"490 785 CURVE SMOOTH"
);
}
);
width = 749;
}
);
leftKerningGroup = O;
note = Odieresis;
rightKerningGroup = O;
unicode = 00D6;
},
{
glyphname = Odotbelow;
lastChange = "2015-10-27 10:05:37 +0000";
layers = (
{
layerId = "79FE4770-DCAD-4138-A5DB-2166FBC61C29";
name = Bold;
paths = (
{
closed = 1;
nodes = (
"594 -10 OFFCURVE",
"714 127 OFFCURVE",
"714 350 CURVE SMOOTH",
"714 572 OFFCURVE",
"594 710 OFFCURVE",
"374 710 CURVE SMOOTH",
"153 710 OFFCURVE",
"35 572 OFFCURVE",
"35 350 CURVE SMOOTH",
"35 127 OFFCURVE",
"153 -10 OFFCURVE",
"374 -10 CURVE SMOOTH"
);
},
{
closed = 1;
nodes = (
"407 -169 OFFCURVE",
"429 -145 OFFCURVE",
"429 -113 CURVE SMOOTH",
"429 -80 OFFCURVE",
"407 -56 OFFCURVE",
"373 -56 CURVE SMOOTH",
"339 -56 OFFCURVE",
"317 -80 OFFCURVE",
"317 -113 CURVE SMOOTH",
"317 -145 OFFCURVE",
"339 -169 OFFCURVE",
"373 -169 CURVE SMOOTH"
);
},
{
closed = 1;
nodes = (
"235 37 OFFCURVE",
"172 168 OFFCURVE",
"172 350 CURVE SMOOTH",
"172 531 OFFCURVE",
"235 663 OFFCURVE",
"374 663 CURVE SMOOTH",
"513 663 OFFCURVE",
"577 531 OFFCURVE",
"577 350 CURVE SMOOTH",
"577 168 OFFCURVE",
"513 37 OFFCURVE",
"374 37 CURVE SMOOTH"
);
}
);
width = 749;
}
);
leftKerningGroup = O;
note = Odotbelow;
rightKerningGroup = O;
unicode = 1ECC;
},
{
glyphname = Ograve;
lastChange = "2015-10-27 10:05:37 +0000";
layers = (
{
layerId = "79FE4770-DCAD-4138-A5DB-2166FBC61C29";
name = Bold;
paths = (
{
closed = 1;
nodes = (
"594 -10 OFFCURVE",
"714 127 OFFCURVE",
"714 350 CURVE SMOOTH",
"714 572 OFFCURVE",
"594 710 OFFCURVE",
"374 710 CURVE SMOOTH",
"153 710 OFFCURVE",
"35 572 OFFCURVE",
"35 350 CURVE SMOOTH",
"35 127 OFFCURVE",
"153 -10 OFFCURVE",
"374 -10 CURVE SMOOTH"
);
},
{
closed = 1;
nodes = (
"235 37 OFFCURVE",
"172 168 OFFCURVE",
"172 350 CURVE SMOOTH",
"172 531 OFFCURVE",
"235 663 OFFCURVE",
"374 663 CURVE SMOOTH",
"513 663 OFFCURVE",
"577 531 OFFCURVE",
"577 350 CURVE SMOOTH",
"577 168 OFFCURVE",
"513 37 OFFCURVE",
"374 37 CURVE SMOOTH"
);
},
{
closed = 1;
nodes = (
"477 817 LINE",
"356 937 LINE",
"349 945 OFFCURVE",
"323 967 OFFCURVE",
"295 967 CURVE SMOOTH",
"269 967 OFFCURVE",
"256 946 OFFCURVE",
"256 929 CURVE SMOOTH",
"256 908 OFFCURVE",
"272 892 OFFCURVE",
"301 875 CURVE SMOOTH",
"455 786 LINE"
);
}
);
width = 749;
}
);
leftKerningGroup = O;
note = Ograve;
rightKerningGroup = O;
unicode = 00D2;
},
{
glyphname = Ohookabove;
lastChange = "2015-10-27 10:05:38 +0000";
layers = (
{
layerId = "79FE4770-DCAD-4138-A5DB-2166FBC61C29";
name = Bold;
paths = (
{
closed = 1;
nodes = (
"594 -10 OFFCURVE",
"714 127 OFFCURVE",
"714 350 CURVE SMOOTH",
"714 572 OFFCURVE",
"594 710 OFFCURVE",
"374 710 CURVE SMOOTH",
"153 710 OFFCURVE",
"35 572 OFFCURVE",
"35 350 CURVE SMOOTH",
"35 127 OFFCURVE",
"153 -10 OFFCURVE",
"374 -10 CURVE SMOOTH"
);
},
{
closed = 1;
nodes = (
"235 37 OFFCURVE",
"172 168 OFFCURVE",
"172 350 CURVE SMOOTH",
"172 531 OFFCURVE",
"235 663 OFFCURVE",
"374 663 CURVE SMOOTH",
"513 663 OFFCURVE",
"577 531 OFFCURVE",
"577 350 CURVE SMOOTH",
"577 168 OFFCURVE",
"513 37 OFFCURVE",
"374 37 CURVE SMOOTH"
);
},
{
closed = 1;
nodes = (
"402 781 LINE",
"412 849 LINE",
"466 854 OFFCURVE",
"504 876 OFFCURVE",
"504 931 CURVE SMOOTH",
"504 994 OFFCURVE",
"447 1018 OFFCURVE",
"390 1018 CURVE SMOOTH",
"358 1018 OFFCURVE",
"327 1010 OFFCURVE",
"307 1001 CURVE",
"314 965 LINE",
"335 976 OFFCURVE",
"357 981 OFFCURVE",
"375 981 CURVE SMOOTH",
"415 981 OFFCURVE",
"436 958 OFFCURVE",
"436 933 CURVE SMOOTH",
"436 897 OFFCURVE",
"408 881 OFFCURVE",
"376 881 CURVE SMOOTH",
"343 881 LINE",
"348 781 LINE"
);
}
);
width = 749;
}
);
leftKerningGroup = O;
note = Ohookabove;
rightKerningGroup = O;
unicode = 1ECE;
},
{
glyphname = Ohorn;
lastChange = "2015-10-27 10:05:37 +0000";
layers = (
{
layerId = "79FE4770-DCAD-4138-A5DB-2166FBC61C29";
name = Bold;
paths = (
{
closed = 1;
nodes = (
"594 -10 OFFCURVE",
"714 127 OFFCURVE",
"714 350 CURVE SMOOTH",
"714 572 OFFCURVE",
"594 710 OFFCURVE",
"374 710 CURVE SMOOTH",
"153 710 OFFCURVE",
"35 572 OFFCURVE",
"35 350 CURVE SMOOTH",
"35 127 OFFCURVE",
"153 -10 OFFCURVE",
"374 -10 CURVE SMOOTH"
);
},
{
closed = 1;
nodes = (
"235 37 OFFCURVE",
"172 168 OFFCURVE",
"172 350 CURVE SMOOTH",
"172 531 OFFCURVE",
"235 663 OFFCURVE",
"374 663 CURVE SMOOTH",
"513 663 OFFCURVE",
"577 531 OFFCURVE",
"577 350 CURVE SMOOTH",
"577 168 OFFCURVE",
"513 37 OFFCURVE",
"374 37 CURVE SMOOTH"
);
},
{
closed = 1;
nodes = (
"769 545 OFFCURVE",
"806 610 OFFCURVE",
"806 660 CURVE SMOOTH",
"806 691 OFFCURVE",
"799 739 OFFCURVE",
"733 739 CURVE SMOOTH",
"680 739 OFFCURVE",
"666 705 OFFCURVE",
"666 678 CURVE SMOOTH",
"666 642 OFFCURVE",
"689 620 OFFCURVE",
"722 620 CURVE SMOOTH",
"728 620 OFFCURVE",
"733 621 OFFCURVE",
"739 624 CURVE",
"729 576 OFFCURVE",
"673 530 OFFCURVE",
"648 513 CURVE",
"674 480 LINE"
);
}
);
width = 787;
}
);
leftKerningGroup = O;
note = Ohorn;
rightKerningGroup = O;
unicode = 01A0;
},
{
glyphname = Ohornacute;
lastChange = "2015-10-27 10:05:37 +0000";
layers = (
{
layerId = "79FE4770-DCAD-4138-A5DB-2166FBC61C29";
name = Bold;
paths = (
{
closed = 1;
nodes = (
"594 -10 OFFCURVE",
"714 127 OFFCURVE",
"714 350 CURVE SMOOTH",
"714 572 OFFCURVE",
"594 710 OFFCURVE",
"374 710 CURVE SMOOTH",
"153 710 OFFCURVE",
"35 572 OFFCURVE",
"35 350 CURVE SMOOTH",
"35 127 OFFCURVE",
"153 -10 OFFCURVE",
"374 -10 CURVE SMOOTH"
);
},
{
closed = 1;
nodes = (
"235 37 OFFCURVE",
"172 168 OFFCURVE",
"172 350 CURVE SMOOTH",
"172 531 OFFCURVE",
"235 663 OFFCURVE",
"374 663 CURVE SMOOTH",
"513 663 OFFCURVE",
"577 531 OFFCURVE",
"577 350 CURVE SMOOTH",
"577 168 OFFCURVE",
"513 37 OFFCURVE",
"374 37 CURVE SMOOTH"
);
},
{
closed = 1;
nodes = (
"446 874 LINE SMOOTH",
"475 891 OFFCURVE",
"490 908 OFFCURVE",
"490 929 CURVE SMOOTH",
"490 946 OFFCURVE",
"479 966 OFFCURVE",
"449 966 CURVE SMOOTH",
"419 966 OFFCURVE",
"396 942 OFFCURVE",
"390 935 CURVE",
"270 816 LINE",
"292 785 LINE"
);
},
{
closed = 1;
nodes = (
"769 545 OFFCURVE",
"806 610 OFFCURVE",
"806 660 CURVE SMOOTH",
"806 691 OFFCURVE",
"799 739 OFFCURVE",
"733 739 CURVE SMOOTH",
"680 739 OFFCURVE",
"666 705 OFFCURVE",
"666 678 CURVE SMOOTH",
"666 642 OFFCURVE",
"689 620 OFFCURVE",
"722 620 CURVE SMOOTH",
"728 620 OFFCURVE",
"733 621 OFFCURVE",
"739 624 CURVE",
"729 576 OFFCURVE",
"673 530 OFFCURVE",
"648 513 CURVE",
"674 480 LINE"
);
}
);
width = 787;
}
);
leftKerningGroup = O;
note = Ohornacute;
rightKerningGroup = O;
unicode = 1EDA;
},
{
glyphname = Ohorndotbelow;
lastChange = "2015-10-27 10:05:38 +0000";
layers = (
{
layerId = "79FE4770-DCAD-4138-A5DB-2166FBC61C29";
name = Bold;
paths = (
{
closed = 1;
nodes = (
"594 -10 OFFCURVE",
"714 127 OFFCURVE",
"714 350 CURVE SMOOTH",
"714 572 OFFCURVE",
"594 710 OFFCURVE",
"374 710 CURVE SMOOTH",
"153 710 OFFCURVE",
"35 572 OFFCURVE",
"35 350 CURVE SMOOTH",
"35 127 OFFCURVE",
"153 -10 OFFCURVE",
"374 -10 CURVE SMOOTH"
);
},
{
closed = 1;
nodes = (
"407 -169 OFFCURVE",
"429 -145 OFFCURVE",
"429 -113 CURVE SMOOTH",
"429 -80 OFFCURVE",
"407 -56 OFFCURVE",
"373 -56 CURVE SMOOTH",
"339 -56 OFFCURVE",
"317 -80 OFFCURVE",
"317 -113 CURVE SMOOTH",
"317 -145 OFFCURVE",
"339 -169 OFFCURVE",
"373 -169 CURVE SMOOTH"
);
},
{
closed = 1;
nodes = (
"235 37 OFFCURVE",
"172 168 OFFCURVE",
"172 350 CURVE SMOOTH",
"172 531 OFFCURVE",
"235 663 OFFCURVE",
"374 663 CURVE SMOOTH",
"513 663 OFFCURVE",
"577 531 OFFCURVE",
"577 350 CURVE SMOOTH",
"577 168 OFFCURVE",
"513 37 OFFCURVE",
"374 37 CURVE SMOOTH"
);
},
{
closed = 1;
nodes = (
"769 545 OFFCURVE",
"806 610 OFFCURVE",
"806 660 CURVE SMOOTH",
"806 691 OFFCURVE",
"799 739 OFFCURVE",
"733 739 CURVE SMOOTH",
"680 739 OFFCURVE",
"666 705 OFFCURVE",
"666 678 CURVE SMOOTH",
"666 642 OFFCURVE",
"689 620 OFFCURVE",
"722 620 CURVE SMOOTH",
"728 620 OFFCURVE",
"733 621 OFFCURVE",
"739 624 CURVE",
"729 576 OFFCURVE",
"673 530 OFFCURVE",
"648 513 CURVE",
"674 480 LINE"
);
}
);
width = 787;
}
);
leftKerningGroup = O;
note = Ohorndotbelow;
rightKerningGroup = O;
unicode = 1EE2;
},
{
glyphname = Ohorngrave;
lastChange = "2015-10-27 10:05:38 +0000";
layers = (
{
layerId = "79FE4770-DCAD-4138-A5DB-2166FBC61C29";
name = Bold;
paths = (
{
closed = 1;
nodes = (
"594 -10 OFFCURVE",
"714 127 OFFCURVE",
"714 350 CURVE SMOOTH",
"714 572 OFFCURVE",
"594 710 OFFCURVE",
"374 710 CURVE SMOOTH",
"153 710 OFFCURVE",
"35 572 OFFCURVE",
"35 350 CURVE SMOOTH",
"35 127 OFFCURVE",
"153 -10 OFFCURVE",
"374 -10 CURVE SMOOTH"
);
},
{
closed = 1;
nodes = (
"235 37 OFFCURVE",
"172 168 OFFCURVE",
"172 350 CURVE SMOOTH",
"172 531 OFFCURVE",
"235 663 OFFCURVE",
"374 663 CURVE SMOOTH",
"513 663 OFFCURVE",
"577 531 OFFCURVE",
"577 350 CURVE SMOOTH",
"577 168 OFFCURVE",
"513 37 OFFCURVE",
"374 37 CURVE SMOOTH"
);
},
{
closed = 1;
nodes = (
"478 816 LINE",
"357 936 LINE",
"350 944 OFFCURVE",
"324 966 OFFCURVE",
"296 966 CURVE SMOOTH",
"270 966 OFFCURVE",
"257 945 OFFCURVE",
"257 928 CURVE SMOOTH",
"257 907 OFFCURVE",
"273 891 OFFCURVE",
"302 874 CURVE SMOOTH",
"456 785 LINE"
);
},
{
closed = 1;
nodes = (
"769 545 OFFCURVE",
"806 610 OFFCURVE",
"806 660 CURVE SMOOTH",
"806 691 OFFCURVE",
"799 739 OFFCURVE",
"733 739 CURVE SMOOTH",
"680 739 OFFCURVE",
"666 705 OFFCURVE",
"666 678 CURVE SMOOTH",
"666 642 OFFCURVE",
"689 620 OFFCURVE",
"722 620 CURVE SMOOTH",
"728 620 OFFCURVE",
"733 621 OFFCURVE",
"739 624 CURVE",
"729 576 OFFCURVE",
"673 530 OFFCURVE",
"648 513 CURVE",
"674 480 LINE"
);
}
);
width = 787;
}
);
leftKerningGroup = O;
note = Ohorngrave;
rightKerningGroup = O;
unicode = 1EDC;
},
{
glyphname = Ohornhookabove;
lastChange = "2015-10-27 10:05:38 +0000";
layers = (
{
layerId = "79FE4770-DCAD-4138-A5DB-2166FBC61C29";
name = Bold;
paths = (
{
closed = 1;
nodes = (
"594 -10 OFFCURVE",
"714 127 OFFCURVE",
"714 350 CURVE SMOOTH",
"714 572 OFFCURVE",
"594 710 OFFCURVE",
"374 710 CURVE SMOOTH",
"153 710 OFFCURVE",
"35 572 OFFCURVE",
"35 350 CURVE SMOOTH",
"35 127 OFFCURVE",
"153 -10 OFFCURVE",
"374 -10 CURVE SMOOTH"
);
},
{
closed = 1;
nodes = (
"235 37 OFFCURVE",
"172 168 OFFCURVE",
"172 350 CURVE SMOOTH",
"172 531 OFFCURVE",
"235 663 OFFCURVE",
"374 663 CURVE SMOOTH",
"513 663 OFFCURVE",
"577 531 OFFCURVE",
"577 350 CURVE SMOOTH",
"577 168 OFFCURVE",
"513 37 OFFCURVE",
"374 37 CURVE SMOOTH"
);
},
{
closed = 1;
nodes = (
"397 779 LINE",
"407 847 LINE",
"461 852 OFFCURVE",
"499 874 OFFCURVE",
"499 929 CURVE SMOOTH",
"499 992 OFFCURVE",
"442 1016 OFFCURVE",
"385 1016 CURVE SMOOTH",
"353 1016 OFFCURVE",
"322 1008 OFFCURVE",
"302 999 CURVE",
"309 963 LINE",
"330 974 OFFCURVE",
"352 979 OFFCURVE",
"370 979 CURVE SMOOTH",
"410 979 OFFCURVE",
"431 956 OFFCURVE",
"431 931 CURVE SMOOTH",
"431 895 OFFCURVE",
"403 879 OFFCURVE",
"371 879 CURVE SMOOTH",
"338 879 LINE",
"343 779 LINE"
);
},
{
closed = 1;
nodes = (
"769 545 OFFCURVE",
"806 610 OFFCURVE",
"806 660 CURVE SMOOTH",
"806 691 OFFCURVE",
"799 739 OFFCURVE",
"733 739 CURVE SMOOTH",
"680 739 OFFCURVE",
"666 705 OFFCURVE",
"666 678 CURVE SMOOTH",
"666 642 OFFCURVE",
"689 620 OFFCURVE",
"722 620 CURVE SMOOTH",
"728 620 OFFCURVE",
"733 621 OFFCURVE",
"739 624 CURVE",
"729 576 OFFCURVE",
"673 530 OFFCURVE",
"648 513 CURVE",
"674 480 LINE"
);
}
);
width = 787;
}
);
leftKerningGroup = O;
note = Ohornhookabove;
rightKerningGroup = O;
unicode = 1EDE;
},
{
glyphname = Ohorntilde;
lastChange = "2015-10-27 10:05:38 +0000";
layers = (
{
layerId = "79FE4770-DCAD-4138-A5DB-2166FBC61C29";
name = Bold;
paths = (
{
closed = 1;
nodes = (
"594 -10 OFFCURVE",
"714 127 OFFCURVE",
"714 350 CURVE SMOOTH",
"714 572 OFFCURVE",
"594 710 OFFCURVE",
"374 710 CURVE SMOOTH",
"153 710 OFFCURVE",
"35 572 OFFCURVE",
"35 350 CURVE SMOOTH",
"35 127 OFFCURVE",
"153 -10 OFFCURVE",
"374 -10 CURVE SMOOTH"
);
},
{
closed = 1;
nodes = (
"235 37 OFFCURVE",
"172 168 OFFCURVE",
"172 350 CURVE SMOOTH",
"172 531 OFFCURVE",
"235 663 OFFCURVE",
"374 663 CURVE SMOOTH",
"513 663 OFFCURVE",
"577 531 OFFCURVE",
"577 350 CURVE SMOOTH",
"577 168 OFFCURVE",
"513 37 OFFCURVE",
"374 37 CURVE SMOOTH"
);
},
{
closed = 1;
nodes = (
"237 786 LINE",
"244 819 OFFCURVE",
"267 840 OFFCURVE",
"297 840 CURVE SMOOTH",
"335 840 OFFCURVE",
"396 786 OFFCURVE",
"452 786 CURVE SMOOTH",
"523 786 OFFCURVE",
"558 832 OFFCURVE",
"566 900 CURVE",
"514 900 LINE",
"504 855 OFFCURVE",
"477 844 OFFCURVE",
"450 844 CURVE SMOOTH",
"409 844 OFFCURVE",
"365 897 OFFCURVE",
"298 897 CURVE SMOOTH",
"235 897 OFFCURVE",
"194 860 OFFCURVE",
"184 786 CURVE"
);
},
{
closed = 1;
nodes = (
"769 545 OFFCURVE",
"806 610 OFFCURVE",
"806 660 CURVE SMOOTH",
"806 691 OFFCURVE",
"799 739 OFFCURVE",
"733 739 CURVE SMOOTH",
"680 739 OFFCURVE",
"666 705 OFFCURVE",
"666 678 CURVE SMOOTH",
"666 642 OFFCURVE",
"689 620 OFFCURVE",
"722 620 CURVE SMOOTH",
"728 620 OFFCURVE",
"733 621 OFFCURVE",
"739 624 CURVE",
"729 576 OFFCURVE",
"673 530 OFFCURVE",
"648 513 CURVE",
"674 480 LINE"
);
}
);
width = 787;
}
);
leftKerningGroup = O;
note = Ohorntilde;
rightKerningGroup = O;
unicode = 1EE0;
},
{
glyphname = Ohungarumlaut;
lastChange = "2015-10-27 10:05:38 +0000";
layers = (
{
layerId = "79FE4770-DCAD-4138-A5DB-2166FBC61C29";
name = Bold;
paths = (
{
closed = 1;
nodes = (
"594 -10 OFFCURVE",
"714 127 OFFCURVE",
"714 350 CURVE SMOOTH",
"714 572 OFFCURVE",
"594 710 OFFCURVE",
"374 710 CURVE SMOOTH",
"153 710 OFFCURVE",
"35 572 OFFCURVE",
"35 350 CURVE SMOOTH",
"35 127 OFFCURVE",
"153 -10 OFFCURVE",
"374 -10 CURVE SMOOTH"
);
},
{
closed = 1;
nodes = (
"235 37 OFFCURVE",
"172 168 OFFCURVE",
"172 350 CURVE SMOOTH",
"172 531 OFFCURVE",
"235 663 OFFCURVE",
"374 663 CURVE SMOOTH",
"513 663 OFFCURVE",
"577 531 OFFCURVE",
"577 350 CURVE SMOOTH",
"577 168 OFFCURVE",
"513 37 OFFCURVE",
"374 37 CURVE SMOOTH"
);
},
{
closed = 1;
nodes = (
"381 874 LINE SMOOTH",
"409 891 OFFCURVE",
"425 908 OFFCURVE",
"425 929 CURVE SMOOTH",
"425 946 OFFCURVE",
"412 966 OFFCURVE",
"381 966 CURVE SMOOTH",
"352 966 OFFCURVE",
"330 942 OFFCURVE",
"324 935 CURVE",
"205 816 LINE",
"227 784 LINE"
);
},
{
closed = 1;
nodes = (
"593 874 LINE SMOOTH",
"621 891 OFFCURVE",
"637 908 OFFCURVE",
"637 929 CURVE SMOOTH",
"637 946 OFFCURVE",
"624 966 OFFCURVE",
"594 966 CURVE SMOOTH",
"565 966 OFFCURVE",
"542 942 OFFCURVE",
"536 935 CURVE",
"417 816 LINE",
"439 784 LINE"
);
}
);
width = 749;
}
);
leftKerningGroup = O;
note = Ohungarumlaut;
rightKerningGroup = O;
unicode = 0150;
},
{
glyphname = Omacron;
lastChange = "2015-10-27 10:05:38 +0000";
layers = (
{
layerId = "79FE4770-DCAD-4138-A5DB-2166FBC61C29";
name = Bold;
paths = (
{
closed = 1;
nodes = (
"594 -10 OFFCURVE",
"714 127 OFFCURVE",
"714 350 CURVE SMOOTH",
"714 572 OFFCURVE",
"594 710 OFFCURVE",
"374 710 CURVE SMOOTH",
"153 710 OFFCURVE",
"35 572 OFFCURVE",
"35 350 CURVE SMOOTH",
"35 127 OFFCURVE",
"153 -10 OFFCURVE",
"374 -10 CURVE SMOOTH"
);
},
{
closed = 1;
nodes = (
"235 37 OFFCURVE",
"172 168 OFFCURVE",
"172 350 CURVE SMOOTH",
"172 531 OFFCURVE",
"235 663 OFFCURVE",
"374 663 CURVE SMOOTH",
"513 663 OFFCURVE",
"577 531 OFFCURVE",
"577 350 CURVE SMOOTH",
"577 168 OFFCURVE",
"513 37 OFFCURVE",
"374 37 CURVE SMOOTH"
);
},
{
closed = 1;
nodes = (
"558 792 LINE",
"558 836 LINE",
"187 836 LINE",
"187 792 LINE"
);
}
);
width = 749;
}
);
leftKerningGroup = O;
note = Omacron;
rightKerningGroup = O;
unicode = 014C;
},
{
glyphname = Oslash;
lastChange = "2015-10-27 10:05:37 +0000";
layers = (
{
layerId = "79FE4770-DCAD-4138-A5DB-2166FBC61C29";
name = Bold;
paths = (
{
closed = 1;
nodes = (
"594 -10 OFFCURVE",
"714 127 OFFCURVE",
"714 350 CURVE SMOOTH",
"714 572 OFFCURVE",
"594 710 OFFCURVE",
"374 710 CURVE SMOOTH",
"153 710 OFFCURVE",
"35 572 OFFCURVE",
"35 350 CURVE SMOOTH",
"35 127 OFFCURVE",
"153 -10 OFFCURVE",
"374 -10 CURVE SMOOTH"
);
},
{
closed = 1;
nodes = (
"665 694 LINE",
"625 723 LINE",
"65 -5 LINE",
"102 -34 LINE"
);
},
{
closed = 1;
nodes = (
"235 37 OFFCURVE",
"172 168 OFFCURVE",
"172 350 CURVE SMOOTH",
"172 531 OFFCURVE",
"235 663 OFFCURVE",
"374 663 CURVE SMOOTH",
"513 663 OFFCURVE",
"577 531 OFFCURVE",
"577 350 CURVE SMOOTH",
"577 168 OFFCURVE",
"513 37 OFFCURVE",
"374 37 CURVE SMOOTH"
);
}
);
width = 749;
}
);
leftKerningGroup = O;
note = Oslash;
rightKerningGroup = O;
unicode = 00D8;
},
{
glyphname = Oslashacute;
lastChange = "2015-10-27 10:05:37 +0000";
layers = (
{
layerId = "79FE4770-DCAD-4138-A5DB-2166FBC61C29";
name = Bold;
paths = (
{
closed = 1;
nodes = (
"594 -10 OFFCURVE",
"714 127 OFFCURVE",
"714 350 CURVE SMOOTH",
"714 572 OFFCURVE",
"594 710 OFFCURVE",
"374 710 CURVE SMOOTH",
"153 710 OFFCURVE",
"35 572 OFFCURVE",
"35 350 CURVE SMOOTH",
"35 127 OFFCURVE",
"153 -10 OFFCURVE",
"374 -10 CURVE SMOOTH"
);
},
{
closed = 1;
nodes = (
"665 694 LINE",
"625 723 LINE",
"65 -5 LINE",
"102 -34 LINE"
);
},
{
closed = 1;
nodes = (
"235 37 OFFCURVE",
"172 168 OFFCURVE",
"172 350 CURVE SMOOTH",
"172 531 OFFCURVE",
"235 663 OFFCURVE",
"374 663 CURVE SMOOTH",
"513 663 OFFCURVE",
"577 531 OFFCURVE",
"577 350 CURVE SMOOTH",
"577 168 OFFCURVE",
"513 37 OFFCURVE",
"374 37 CURVE SMOOTH"
);
},
{
closed = 1;
nodes = (
"452 875 LINE SMOOTH",
"481 892 OFFCURVE",
"496 909 OFFCURVE",
"496 930 CURVE SMOOTH",
"496 947 OFFCURVE",
"485 967 OFFCURVE",
"455 967 CURVE SMOOTH",
"425 967 OFFCURVE",
"402 943 OFFCURVE",
"396 936 CURVE",
"276 817 LINE",
"298 786 LINE"
);
}
);
width = 749;
}
);
leftKerningGroup = O;
note = Oslashacute;
rightKerningGroup = O;
unicode = 01FE;
},
{
glyphname = Otilde;
lastChange = "2015-10-27 10:05:37 +0000";
layers = (
{
layerId = "79FE4770-DCAD-4138-A5DB-2166FBC61C29";
name = Bold;
paths = (
{
closed = 1;
nodes = (
"594 -10 OFFCURVE",
"714 127 OFFCURVE",
"714 350 CURVE SMOOTH",
"714 572 OFFCURVE",
"594 710 OFFCURVE",
"374 710 CURVE SMOOTH",
"153 710 OFFCURVE",
"35 572 OFFCURVE",
"35 350 CURVE SMOOTH",
"35 127 OFFCURVE",
"153 -10 OFFCURVE",
"374 -10 CURVE SMOOTH"
);
},
{
closed = 1;
nodes = (
"235 37 OFFCURVE",
"172 168 OFFCURVE",
"172 350 CURVE SMOOTH",
"172 531 OFFCURVE",
"235 663 OFFCURVE",
"374 663 CURVE SMOOTH",
"513 663 OFFCURVE",
"577 531 OFFCURVE",
"577 350 CURVE SMOOTH",
"577 168 OFFCURVE",
"513 37 OFFCURVE",
"374 37 CURVE SMOOTH"
);
},
{
closed = 1;
nodes = (
"236 786 LINE",
"243 819 OFFCURVE",
"266 840 OFFCURVE",
"296 840 CURVE SMOOTH",
"334 840 OFFCURVE",
"395 786 OFFCURVE",
"451 786 CURVE SMOOTH",
"522 786 OFFCURVE",
"557 832 OFFCURVE",
"565 900 CURVE",
"513 900 LINE",
"503 855 OFFCURVE",
"476 844 OFFCURVE",
"449 844 CURVE SMOOTH",
"408 844 OFFCURVE",
"364 897 OFFCURVE",
"297 897 CURVE SMOOTH",
"234 897 OFFCURVE",
"193 860 OFFCURVE",
"183 786 CURVE"
);
}
);
width = 749;
}
);
leftKerningGroup = O;
note = Otilde;
rightKerningGroup = O;
unicode = 00D5;
},
{
glyphname = OE;
lastChange = "2015-10-27 10:05:37 +0000";
layers = (
{
layerId = "79FE4770-DCAD-4138-A5DB-2166FBC61C29";
name = Bold;
paths = (
{
closed = 1;
nodes = (
"426 -10 OFFCURVE",
"478 7 OFFCURVE",
"523 50 CURVE",
"523 0 LINE",
"990 0 LINE",
"1007 165 LINE",
"977 165 LINE",
"961 144 OFFCURVE",
"934 78 OFFCURVE",
"931 44 CURVE",
"659 44 LINE",
"659 336 LINE",
"844 336 LINE",
"846 319 OFFCURVE",
"853 280 OFFCURVE",
"863 251 CURVE",
"885 251 LINE",
"885 467 LINE",
"863 467 LINE",
"853 440 OFFCURVE",
"846 400 OFFCURVE",
"844 382 CURVE",
"659 382 LINE",
"659 654 LINE",
"926 654 LINE",
"928 625 OFFCURVE",
"948 555 OFFCURVE",
"961 533 CURVE",
"991 533 LINE",
"991 700 LINE",
"523 700 LINE",
"523 646 LINE",
"484 686 OFFCURVE",
"426 710 OFFCURVE",
"352 710 CURVE SMOOTH",
"130 710 OFFCURVE",
"35 539 OFFCURVE",
"35 350 CURVE SMOOTH",
"35 159 OFFCURVE",
"130 -10 OFFCURVE",
"352 -10 CURVE SMOOTH"
);
},
{
closed = 1;
nodes = (
"236 37 OFFCURVE",
"173 168 OFFCURVE",
"173 350 CURVE SMOOTH",
"173 531 OFFCURVE",
"236 663 OFFCURVE",
"374 663 CURVE SMOOTH",
"441 663 OFFCURVE",
"495 624 OFFCURVE",
"523 577 CURVE",
"523 121 LINE",
"491 70 OFFCURVE",
"441 37 OFFCURVE",
"374 37 CURVE SMOOTH"
);
}
);
width = 1049;
}
);
note = OE;
unicode = 0152;
},
{
glyphname = P;
lastChange = "2015-10-27 10:05:37 +0000";
layers = (
{
layerId = "79FE4770-DCAD-4138-A5DB-2166FBC61C29";
name = Bold;
paths = (
{
closed = 1;
nodes = (
"324 0 LINE",
"324 16 LINE",
"298 24 OFFCURVE",
"268 32 OFFCURVE",
"243 36 CURVE",
"243 273 LINE",
"382 273 LINE SMOOTH",
"537 273 OFFCURVE",
"609 373 OFFCURVE",
"609 493 CURVE SMOOTH",
"609 617 OFFCURVE",
"547 700 OFFCURVE",
"356 700 CURVE SMOOTH",
"29 700 LINE",
"29 683 LINE",
"57 674 OFFCURVE",
"83 668 OFFCURVE",
"108 663 CURVE",
"108 37 LINE",
"97 35 OFFCURVE",
"54 25 OFFCURVE",
"27 17 CURVE",
"27 0 LINE"
);
},
{
closed = 1;
nodes = (
"243 654 LINE",
"348 654 LINE SMOOTH",
"436 654 OFFCURVE",
"475 592 OFFCURVE",
"475 495 CURVE SMOOTH",
"475 399 OFFCURVE",
"440 317 OFFCURVE",
"348 317 CURVE SMOOTH",
"243 317 LINE"
);
}
);
width = 633;
}
);
note = P;
unicode = 0050;
},
{
glyphname = Thorn;
lastChange = "2015-10-27 10:05:37 +0000";
layers = (
{
layerId = "79FE4770-DCAD-4138-A5DB-2166FBC61C29";
name = Bold;
paths = (
{
closed = 1;
nodes = (
"324 0 LINE",
"324 16 LINE",
"298 24 OFFCURVE",
"268 32 OFFCURVE",
"243 36 CURVE",
"243 145 LINE",
"383 145 LINE SMOOTH",
"537 145 OFFCURVE",
"609 245 OFFCURVE",
"609 366 CURVE SMOOTH",
"609 480 OFFCURVE",
"552 571 OFFCURVE",
"381 571 CURVE SMOOTH",
"243 571 LINE",
"243 700 LINE",
"29 700 LINE",
"29 683 LINE",
"57 674 OFFCURVE",
"83 668 OFFCURVE",
"108 663 CURVE",
"108 37 LINE",
"97 35 OFFCURVE",
"55 25 OFFCURVE",
"27 17 CURVE",
"27 0 LINE"
);
},
{
closed = 1;
nodes = (
"243 527 LINE",
"348 527 LINE SMOOTH",
"437 527 OFFCURVE",
"475 464 OFFCURVE",
"475 367 CURVE SMOOTH",
"475 271 OFFCURVE",
"440 190 OFFCURVE",
"348 190 CURVE SMOOTH",
"243 190 LINE"
);
}
);
width = 632;
}
);
note = Thorn;
unicode = 00DE;
},
{
glyphname = Q;
lastChange = "2015-10-27 10:05:38 +0000";
layers = (
{
layerId = "79FE4770-DCAD-4138-A5DB-2166FBC61C29";
name = Bold;
paths = (
{
closed = 1;
nodes = (
"594 -10 OFFCURVE",
"714 127 OFFCURVE",
"714 350 CURVE SMOOTH",
"714 572 OFFCURVE",
"594 710 OFFCURVE",
"374 710 CURVE SMOOTH",
"153 710 OFFCURVE",
"35 572 OFFCURVE",
"35 350 CURVE SMOOTH",
"35 127 OFFCURVE",
"153 -10 OFFCURVE",
"374 -10 CURVE SMOOTH"
);
},
{
closed = 1;
nodes = (
"623 -117 LINE",
"521 -109 OFFCURVE",
"458 -57 OFFCURVE",
"450 19 CURVE",
"318 19 LINE",
"331 -77 OFFCURVE",
"431 -143 OFFCURVE",
"623 -159 CURVE"
);
},
{
closed = 1;
nodes = (
"236 37 OFFCURVE",
"172 168 OFFCURVE",
"172 350 CURVE SMOOTH",
"172 531 OFFCURVE",
"236 663 OFFCURVE",
"374 663 CURVE SMOOTH",
"512 663 OFFCURVE",
"577 531 OFFCURVE",
"577 350 CURVE SMOOTH",
"577 168 OFFCURVE",
"512 37 OFFCURVE",
"374 37 CURVE SMOOTH"
);
}
);
width = 749;
}
);
leftKerningGroup = O;
note = Q;
rightKerningGroup = O;
unicode = 0051;
},
{
glyphname = R;
lastChange = "2015-10-27 10:05:38 +0000";
layers = (
{
layerId = "79FE4770-DCAD-4138-A5DB-2166FBC61C29";
name = Bold;
paths = (
{
closed = 1;
nodes = (
"330 0 LINE",
"330 16 LINE",
"304 24 OFFCURVE",
"274 32 OFFCURVE",
"250 36 CURVE",
"250 299 LINE",
"399 299 LINE SMOOTH",
"539 299 OFFCURVE",
"621 378 OFFCURVE",
"621 503 CURVE SMOOTH",
"621 618 OFFCURVE",
"570 700 OFFCURVE",
"398 700 CURVE SMOOTH",
"35 700 LINE",
"35 683 LINE",
"63 674 OFFCURVE",
"89 668 OFFCURVE",
"114 663 CURVE",
"114 37 LINE",
"103 35 OFFCURVE",
"60 25 OFFCURVE",
"33 17 CURVE",
"33 0 LINE"
);
},
{
closed = 1;
nodes = (
"683 0 LINE",
"683 16 LINE",
"659 25 OFFCURVE",
"630 32 OFFCURVE",
"607 36 CURVE",
"454 313 LINE",
"336 313 LINE",
"499 0 LINE"
);
},
{
closed = 1;
nodes = (
"250 654 LINE",
"354 654 LINE SMOOTH",
"447 654 OFFCURVE",
"487 602 OFFCURVE",
"487 505 CURVE SMOOTH",
"487 409 OFFCURVE",
"450 344 OFFCURVE",
"354 344 CURVE SMOOTH",
"250 344 LINE"
);
}
);
width = 703;
}
);
note = R;
rightKerningGroup = R;
unicode = 0052;
},
{
glyphname = Racute;
lastChange = "2015-10-27 10:05:38 +0000";
layers = (
{
layerId = "79FE4770-DCAD-4138-A5DB-2166FBC61C29";
name = Bold;
paths = (
{
closed = 1;
nodes = (
"330 0 LINE",
"330 16 LINE",
"304 24 OFFCURVE",
"274 32 OFFCURVE",
"250 36 CURVE",
"250 299 LINE",
"399 299 LINE SMOOTH",
"539 299 OFFCURVE",
"621 378 OFFCURVE",
"621 503 CURVE SMOOTH",
"621 618 OFFCURVE",
"570 700 OFFCURVE",
"398 700 CURVE SMOOTH",
"35 700 LINE",
"35 683 LINE",
"63 674 OFFCURVE",
"89 668 OFFCURVE",
"114 663 CURVE",
"114 37 LINE",
"103 35 OFFCURVE",
"60 25 OFFCURVE",
"33 17 CURVE",
"33 0 LINE"
);
},
{
closed = 1;
nodes = (
"683 0 LINE",
"683 16 LINE",
"659 25 OFFCURVE",
"630 32 OFFCURVE",
"607 36 CURVE",
"454 313 LINE",
"336 313 LINE",
"499 0 LINE"
);
},
{
closed = 1;
nodes = (
"250 654 LINE",
"354 654 LINE SMOOTH",
"447 654 OFFCURVE",
"487 602 OFFCURVE",
"487 505 CURVE SMOOTH",
"487 409 OFFCURVE",
"450 344 OFFCURVE",
"354 344 CURVE SMOOTH",
"250 344 LINE"
);
},
{
closed = 1;
nodes = (
"419 875 LINE SMOOTH",
"448 892 OFFCURVE",
"463 909 OFFCURVE",
"463 930 CURVE SMOOTH",
"463 947 OFFCURVE",
"452 967 OFFCURVE",
"422 967 CURVE SMOOTH",
"392 967 OFFCURVE",
"369 943 OFFCURVE",
"363 936 CURVE",
"243 817 LINE",
"265 786 LINE"
);
}
);
width = 703;
}
);
note = Racute;
rightKerningGroup = R;
unicode = 0154;
},
{
glyphname = Rcaron;
lastChange = "2015-10-27 10:05:37 +0000";
layers = (
{
layerId = "79FE4770-DCAD-4138-A5DB-2166FBC61C29";
name = Bold;
paths = (
{
closed = 1;
nodes = (
"330 0 LINE",
"330 16 LINE",
"304 24 OFFCURVE",
"274 32 OFFCURVE",
"250 36 CURVE",
"250 299 LINE",
"399 299 LINE SMOOTH",
"539 299 OFFCURVE",
"621 378 OFFCURVE",
"621 503 CURVE SMOOTH",
"621 618 OFFCURVE",
"570 700 OFFCURVE",
"398 700 CURVE SMOOTH",
"35 700 LINE",
"35 683 LINE",
"63 674 OFFCURVE",
"89 668 OFFCURVE",
"114 663 CURVE",
"114 37 LINE",
"103 35 OFFCURVE",
"60 25 OFFCURVE",
"33 17 CURVE",
"33 0 LINE"
);
},
{
closed = 1;
nodes = (
"683 0 LINE",
"683 16 LINE",
"659 25 OFFCURVE",
"630 32 OFFCURVE",
"607 36 CURVE",
"454 313 LINE",
"336 313 LINE",
"499 0 LINE"
);
},
{
closed = 1;
nodes = (
"250 654 LINE",
"354 654 LINE SMOOTH",
"447 654 OFFCURVE",
"487 602 OFFCURVE",
"487 505 CURVE SMOOTH",
"487 409 OFFCURVE",
"450 344 OFFCURVE",
"354 344 CURVE SMOOTH",
"250 344 LINE"
);
},
{
closed = 1;
nodes = (
"378 786 LINE",
"404 824 OFFCURVE",
"482 894 OFFCURVE",
"525 922 CURVE",
"471 963 LINE",
"431 932 OFFCURVE",
"374 877 OFFCURVE",
"349 841 CURVE",
"345 841 LINE",
"321 877 OFFCURVE",
"263 932 OFFCURVE",
"223 963 CURVE",
"169 922 LINE",
"212 894 OFFCURVE",
"290 824 OFFCURVE",
"316 786 CURVE"
);
}
);
width = 703;
}
);
note = Rcaron;
rightKerningGroup = R;
unicode = 0158;
},
{
glyphname = Rcommaaccent;
lastChange = "2015-10-27 10:05:38 +0000";
layers = (
{
layerId = "79FE4770-DCAD-4138-A5DB-2166FBC61C29";
name = Bold;
paths = (
{
closed = 1;
nodes = (
"330 0 LINE",
"330 16 LINE",
"304 24 OFFCURVE",
"274 32 OFFCURVE",
"250 36 CURVE",
"250 299 LINE",
"399 299 LINE SMOOTH",
"539 299 OFFCURVE",
"621 378 OFFCURVE",
"621 503 CURVE SMOOTH",
"621 618 OFFCURVE",
"570 700 OFFCURVE",
"398 700 CURVE SMOOTH",
"35 700 LINE",
"35 683 LINE",
"63 674 OFFCURVE",
"89 668 OFFCURVE",
"114 663 CURVE",
"114 37 LINE",
"103 35 OFFCURVE",
"60 25 OFFCURVE",
"33 17 CURVE",
"33 0 LINE"
);
},
{
closed = 1;
nodes = (
"402 -300 OFFCURVE",
"441 -220 OFFCURVE",
"441 -151 CURVE SMOOTH",
"441 -111 OFFCURVE",
"420 -77 OFFCURVE",
"369 -77 CURVE SMOOTH",
"334 -77 OFFCURVE",
"302 -99 OFFCURVE",
"302 -138 CURVE SMOOTH",
"302 -177 OFFCURVE",
"329 -199 OFFCURVE",
"369 -200 CURVE",
"363 -243 OFFCURVE",
"333 -287 OFFCURVE",
"308 -314 CURVE",
"351 -346 LINE"
);
},
{
closed = 1;
nodes = (
"683 0 LINE",
"683 16 LINE",
"659 25 OFFCURVE",
"630 32 OFFCURVE",
"607 36 CURVE",
"454 313 LINE",
"336 313 LINE",
"499 0 LINE"
);
},
{
closed = 1;
nodes = (
"250 654 LINE",
"354 654 LINE SMOOTH",
"447 654 OFFCURVE",
"487 602 OFFCURVE",
"487 505 CURVE SMOOTH",
"487 409 OFFCURVE",
"450 344 OFFCURVE",
"354 344 CURVE SMOOTH",
"250 344 LINE"
);
}
);
width = 703;
}
);
note = Rcommaaccent;
rightKerningGroup = R;
unicode = 0156;
},
{
glyphname = Rdotbelow;
lastChange = "2015-10-27 10:05:37 +0000";
layers = (
{
layerId = "79FE4770-DCAD-4138-A5DB-2166FBC61C29";
name = Bold;
paths = (
{
closed = 1;
nodes = (
"330 0 LINE",
"330 16 LINE",
"304 24 OFFCURVE",
"274 32 OFFCURVE",
"250 36 CURVE",
"250 299 LINE",
"399 299 LINE SMOOTH",
"539 299 OFFCURVE",
"621 378 OFFCURVE",
"621 503 CURVE SMOOTH",
"621 618 OFFCURVE",
"570 700 OFFCURVE",
"398 700 CURVE SMOOTH",
"35 700 LINE",
"35 683 LINE",
"63 674 OFFCURVE",
"89 668 OFFCURVE",
"114 663 CURVE",
"114 37 LINE",
"103 35 OFFCURVE",
"60 25 OFFCURVE",
"33 17 CURVE",
"33 0 LINE"
);
},
{
closed = 1;
nodes = (
"392 -169 OFFCURVE",
"414 -145 OFFCURVE",
"414 -113 CURVE SMOOTH",
"414 -80 OFFCURVE",
"392 -56 OFFCURVE",
"358 -56 CURVE SMOOTH",
"324 -56 OFFCURVE",
"302 -80 OFFCURVE",
"302 -113 CURVE SMOOTH",
"302 -145 OFFCURVE",
"324 -169 OFFCURVE",
"358 -169 CURVE SMOOTH"
);
},
{
closed = 1;
nodes = (
"683 0 LINE",
"683 16 LINE",
"659 25 OFFCURVE",
"630 32 OFFCURVE",
"607 36 CURVE",
"454 313 LINE",
"336 313 LINE",
"499 0 LINE"
);
},
{
closed = 1;
nodes = (
"250 654 LINE",
"354 654 LINE SMOOTH",
"447 654 OFFCURVE",
"487 602 OFFCURVE",
"487 505 CURVE SMOOTH",
"487 409 OFFCURVE",
"450 344 OFFCURVE",
"354 344 CURVE SMOOTH",
"250 344 LINE"
);
}
);
width = 703;
}
);
note = Rdotbelow;
rightKerningGroup = R;
unicode = 1E5A;
},
{
glyphname = Rdotbelowmacron;
lastChange = "2015-10-27 10:05:37 +0000";
layers = (
{
layerId = "79FE4770-DCAD-4138-A5DB-2166FBC61C29";
name = Bold;
paths = (
{
closed = 1;
nodes = (
"330 0 LINE",
"330 16 LINE",
"304 24 OFFCURVE",
"274 32 OFFCURVE",
"250 36 CURVE",
"250 299 LINE",
"399 299 LINE SMOOTH",
"539 299 OFFCURVE",
"621 378 OFFCURVE",
"621 503 CURVE SMOOTH",
"621 618 OFFCURVE",
"570 700 OFFCURVE",
"398 700 CURVE SMOOTH",
"35 700 LINE",
"35 683 LINE",
"63 674 OFFCURVE",
"89 668 OFFCURVE",
"114 663 CURVE",
"114 37 LINE",
"103 35 OFFCURVE",
"60 25 OFFCURVE",
"33 17 CURVE",
"33 0 LINE"
);
},
{
closed = 1;
nodes = (
"393 -169 OFFCURVE",
"415 -145 OFFCURVE",
"415 -113 CURVE SMOOTH",
"415 -80 OFFCURVE",
"393 -56 OFFCURVE",
"358 -56 CURVE SMOOTH",
"324 -56 OFFCURVE",
"303 -80 OFFCURVE",
"303 -113 CURVE SMOOTH",
"303 -145 OFFCURVE",
"324 -169 OFFCURVE",
"358 -169 CURVE SMOOTH"
);
},
{
closed = 1;
nodes = (
"683 0 LINE",
"683 16 LINE",
"659 25 OFFCURVE",
"630 32 OFFCURVE",
"607 36 CURVE",
"454 313 LINE",
"336 313 LINE",
"499 0 LINE"
);
},
{
closed = 1;
nodes = (
"250 654 LINE",
"354 654 LINE SMOOTH",
"447 654 OFFCURVE",
"487 602 OFFCURVE",
"487 505 CURVE SMOOTH",
"487 409 OFFCURVE",
"450 344 OFFCURVE",
"354 344 CURVE SMOOTH",
"250 344 LINE"
);
},
{
closed = 1;
nodes = (
"514 785 LINE",
"514 829 LINE",
"111 829 LINE",
"111 785 LINE"
);
}
);
width = 703;
}
);
note = Rdotbelowmacron;
rightKerningGroup = R;
unicode = 1E5C;
},
{
glyphname = Rlinebelow;
lastChange = "2015-10-27 10:05:38 +0000";
layers = (
{
layerId = "79FE4770-DCAD-4138-A5DB-2166FBC61C29";
name = Bold;
paths = (
{
closed = 1;
nodes = (
"330 0 LINE",
"330 16 LINE",
"304 24 OFFCURVE",
"274 32 OFFCURVE",
"250 36 CURVE",
"250 299 LINE",
"399 299 LINE SMOOTH",
"539 299 OFFCURVE",
"621 378 OFFCURVE",
"621 503 CURVE SMOOTH",
"621 618 OFFCURVE",
"570 700 OFFCURVE",
"398 700 CURVE SMOOTH",
"35 700 LINE",
"35 683 LINE",
"63 674 OFFCURVE",
"89 668 OFFCURVE",
"114 663 CURVE",
"114 37 LINE",
"103 35 OFFCURVE",
"60 25 OFFCURVE",
"33 17 CURVE",
"33 0 LINE"
);
},
{
closed = 1;
nodes = (
"522 -107 LINE",
"522 -64 LINE",
"151 -64 LINE",
"151 -107 LINE"
);
},
{
closed = 1;
nodes = (
"683 0 LINE",
"683 16 LINE",
"659 25 OFFCURVE",
"630 32 OFFCURVE",
"607 36 CURVE",
"454 313 LINE",
"336 313 LINE",
"499 0 LINE"
);
},
{
closed = 1;
nodes = (
"250 654 LINE",
"354 654 LINE SMOOTH",
"447 654 OFFCURVE",
"487 602 OFFCURVE",
"487 505 CURVE SMOOTH",
"487 409 OFFCURVE",
"450 344 OFFCURVE",
"354 344 CURVE SMOOTH",
"250 344 LINE"
);
}
);
width = 703;
}
);
note = Rlinebelow;
rightKerningGroup = R;
unicode = 1E5E;
},
{
glyphname = S;
lastChange = "2015-10-27 10:05:37 +0000";
layers = (
{
layerId = "79FE4770-DCAD-4138-A5DB-2166FBC61C29";
name = Bold;
paths = (
{
closed = 1;
nodes = (
"432 -10 OFFCURVE",
"547 63 OFFCURVE",
"547 191 CURVE SMOOTH",
"547 452 OFFCURVE",
"182 406 OFFCURVE",
"182 555 CURVE SMOOTH",
"182 629 OFFCURVE",
"239 663 OFFCURVE",
"328 663 CURVE SMOOTH",
"380 663 OFFCURVE",
"426 649 OFFCURVE",
"456 624 CURVE",
"459 581 OFFCURVE",
"467 539 OFFCURVE",
"477 507 CURVE",
"510 507 LINE",
"522 637 LINE",
"471 687 OFFCURVE",
"401 710 OFFCURVE",
"298 710 CURVE SMOOTH",
"147 710 OFFCURVE",
"44 652 OFFCURVE",
"44 534 CURVE SMOOTH",
"44 293 OFFCURVE",
"409 361 OFFCURVE",
"409 173 CURVE SMOOTH",
"409 80 OFFCURVE",
"331 37 OFFCURVE",
"248 37 CURVE SMOOTH",
"185 37 OFFCURVE",
"131 62 OFFCURVE",
"99 97 CURVE",
"96 138 OFFCURVE",
"90 194 OFFCURVE",
"79 227 CURVE",
"47 227 LINE",
"34 84 LINE",
"78 29 OFFCURVE",
"171 -10 OFFCURVE",
"283 -10 CURVE SMOOTH"
);
}
);
width = 582;
}
);
leftKerningGroup = S;
note = S;
rightKerningGroup = S;
unicode = 0053;
},
{
glyphname = Sacute;
lastChange = "2015-10-27 10:05:37 +0000";
layers = (
{
layerId = "79FE4770-DCAD-4138-A5DB-2166FBC61C29";
name = Bold;
paths = (
{
closed = 1;
nodes = (
"432 -10 OFFCURVE",
"547 63 OFFCURVE",
"547 191 CURVE SMOOTH",
"547 452 OFFCURVE",
"182 406 OFFCURVE",
"182 555 CURVE SMOOTH",
"182 629 OFFCURVE",
"239 663 OFFCURVE",
"328 663 CURVE SMOOTH",
"380 663 OFFCURVE",
"426 649 OFFCURVE",
"456 624 CURVE",
"459 581 OFFCURVE",
"467 539 OFFCURVE",
"477 507 CURVE",
"510 507 LINE",
"522 637 LINE",
"471 687 OFFCURVE",
"401 710 OFFCURVE",
"298 710 CURVE SMOOTH",
"147 710 OFFCURVE",
"44 652 OFFCURVE",
"44 534 CURVE SMOOTH",
"44 293 OFFCURVE",
"409 361 OFFCURVE",
"409 173 CURVE SMOOTH",
"409 80 OFFCURVE",
"331 37 OFFCURVE",
"248 37 CURVE SMOOTH",
"185 37 OFFCURVE",
"131 62 OFFCURVE",
"99 97 CURVE",
"96 138 OFFCURVE",
"90 194 OFFCURVE",
"79 227 CURVE",
"47 227 LINE",
"34 84 LINE",
"78 29 OFFCURVE",
"171 -10 OFFCURVE",
"283 -10 CURVE SMOOTH"
);
},
{
closed = 1;
nodes = (
"369 875 LINE SMOOTH",
"398 892 OFFCURVE",
"413 909 OFFCURVE",
"413 930 CURVE SMOOTH",
"413 947 OFFCURVE",
"402 967 OFFCURVE",
"372 967 CURVE SMOOTH",
"342 967 OFFCURVE",
"319 943 OFFCURVE",
"313 936 CURVE",
"193 817 LINE",
"215 786 LINE"
);
}
);
width = 582;
}
);
leftKerningGroup = S;
note = Sacute;
rightKerningGroup = S;
unicode = 015A;
},
{
glyphname = Scaron;
lastChange = "2015-10-27 10:05:37 +0000";
layers = (
{
layerId = "79FE4770-DCAD-4138-A5DB-2166FBC61C29";
name = Bold;
paths = (
{
closed = 1;
nodes = (
"432 -10 OFFCURVE",
"547 63 OFFCURVE",
"547 191 CURVE SMOOTH",
"547 452 OFFCURVE",
"182 406 OFFCURVE",
"182 555 CURVE SMOOTH",
"182 629 OFFCURVE",
"239 663 OFFCURVE",
"328 663 CURVE SMOOTH",
"380 663 OFFCURVE",
"426 649 OFFCURVE",
"456 624 CURVE",
"459 581 OFFCURVE",
"467 539 OFFCURVE",
"477 507 CURVE",
"510 507 LINE",
"522 637 LINE",
"471 687 OFFCURVE",
"401 710 OFFCURVE",
"298 710 CURVE SMOOTH",
"147 710 OFFCURVE",
"44 652 OFFCURVE",
"44 534 CURVE SMOOTH",
"44 293 OFFCURVE",
"409 361 OFFCURVE",
"409 173 CURVE SMOOTH",
"409 80 OFFCURVE",
"331 37 OFFCURVE",
"248 37 CURVE SMOOTH",
"185 37 OFFCURVE",
"131 62 OFFCURVE",
"99 97 CURVE",
"96 138 OFFCURVE",
"90 194 OFFCURVE",
"79 227 CURVE",
"47 227 LINE",
"34 84 LINE",
"78 29 OFFCURVE",
"171 -10 OFFCURVE",
"283 -10 CURVE SMOOTH"
);
},
{
closed = 1;
nodes = (
"321 786 LINE",
"347 824 OFFCURVE",
"425 894 OFFCURVE",
"468 922 CURVE",
"414 963 LINE",
"374 932 OFFCURVE",
"317 877 OFFCURVE",
"292 841 CURVE",
"288 841 LINE",
"264 877 OFFCURVE",
"206 932 OFFCURVE",
"166 963 CURVE",
"112 922 LINE",
"155 894 OFFCURVE",
"233 824 OFFCURVE",
"259 786 CURVE"
);
}
);
width = 582;
}
);
leftKerningGroup = S;
note = Scaron;
rightKerningGroup = S;
unicode = 0160;
},
{
glyphname = Scedilla;
lastChange = "2015-10-27 10:05:37 +0000";
layers = (
{
layerId = "79FE4770-DCAD-4138-A5DB-2166FBC61C29";
name = Bold;
paths = (
{
closed = 1;
nodes = (
"432 -10 OFFCURVE",
"547 63 OFFCURVE",
"547 191 CURVE SMOOTH",
"547 452 OFFCURVE",
"182 406 OFFCURVE",
"182 555 CURVE SMOOTH",
"182 629 OFFCURVE",
"239 663 OFFCURVE",
"328 663 CURVE SMOOTH",
"380 663 OFFCURVE",
"426 649 OFFCURVE",
"456 624 CURVE",
"459 581 OFFCURVE",
"467 539 OFFCURVE",
"477 507 CURVE",
"510 507 LINE",
"522 637 LINE",
"471 687 OFFCURVE",
"401 710 OFFCURVE",
"298 710 CURVE SMOOTH",
"147 710 OFFCURVE",
"44 652 OFFCURVE",
"44 534 CURVE SMOOTH",
"44 293 OFFCURVE",
"409 361 OFFCURVE",
"409 173 CURVE SMOOTH",
"409 80 OFFCURVE",
"331 37 OFFCURVE",
"248 37 CURVE SMOOTH",
"185 37 OFFCURVE",
"131 62 OFFCURVE",
"99 97 CURVE",
"96 138 OFFCURVE",
"90 194 OFFCURVE",
"79 227 CURVE",
"47 227 LINE",
"34 84 LINE",
"78 29 OFFCURVE",
"171 -10 OFFCURVE",
"283 -10 CURVE SMOOTH"
);
},
{
closed = 1;
nodes = (
"350 -241 OFFCURVE",
"411 -208 OFFCURVE",
"411 -141 CURVE SMOOTH",
"411 -97 OFFCURVE",
"374 -62 OFFCURVE",
"296 -62 CURVE",
"335 20 LINE",
"276 20 LINE",
"231 -70 LINE",
"255 -102 LINE",
"262 -101 OFFCURVE",
"271 -100 OFFCURVE",
"279 -100 CURVE SMOOTH",
"309 -100 OFFCURVE",
"344 -109 OFFCURVE",
"344 -141 CURVE SMOOTH",
"344 -181 OFFCURVE",
"308 -195 OFFCURVE",
"264 -195 CURVE SMOOTH",
"239 -195 OFFCURVE",
"211 -189 OFFCURVE",
"191 -179 CURVE",
"170 -214 LINE",
"198 -232 OFFCURVE",
"239 -241 OFFCURVE",
"274 -241 CURVE SMOOTH"
);
}
);
width = 582;
}
);
leftKerningGroup = S;
note = Scedilla;
rightKerningGroup = S;
unicode = 015E;
},
{
glyphname = Scircumflex;
lastChange = "2015-10-27 10:05:37 +0000";
layers = (
{
layerId = "79FE4770-DCAD-4138-A5DB-2166FBC61C29";
name = Bold;
paths = (
{
closed = 1;
nodes = (
"432 -10 OFFCURVE",
"547 63 OFFCURVE",
"547 191 CURVE SMOOTH",
"547 452 OFFCURVE",
"182 406 OFFCURVE",
"182 555 CURVE SMOOTH",
"182 629 OFFCURVE",
"239 663 OFFCURVE",
"328 663 CURVE SMOOTH",
"380 663 OFFCURVE",
"426 649 OFFCURVE",
"456 624 CURVE",
"459 581 OFFCURVE",
"467 539 OFFCURVE",
"477 507 CURVE",
"510 507 LINE",
"522 637 LINE",
"471 687 OFFCURVE",
"401 710 OFFCURVE",
"298 710 CURVE SMOOTH",
"147 710 OFFCURVE",
"44 652 OFFCURVE",
"44 534 CURVE SMOOTH",
"44 293 OFFCURVE",
"409 361 OFFCURVE",
"409 173 CURVE SMOOTH",
"409 80 OFFCURVE",
"331 37 OFFCURVE",
"248 37 CURVE SMOOTH",
"185 37 OFFCURVE",
"131 62 OFFCURVE",
"99 97 CURVE",
"96 138 OFFCURVE",
"90 194 OFFCURVE",
"79 227 CURVE",
"47 227 LINE",
"34 84 LINE",
"78 29 OFFCURVE",
"171 -10 OFFCURVE",
"283 -10 CURVE SMOOTH"
);
},
{
closed = 1;
nodes = (
"206 813 OFFCURVE",
"264 868 OFFCURVE",
"288 904 CURVE",
"292 904 LINE",
"317 868 OFFCURVE",
"374 813 OFFCURVE",
"414 782 CURVE",
"468 823 LINE",
"425 851 OFFCURVE",
"347 922 OFFCURVE",
"321 959 CURVE",
"259 959 LINE",
"233 922 OFFCURVE",
"155 851 OFFCURVE",
"112 823 CURVE",
"166 782 LINE"
);
}
);
width = 582;
}
);
leftKerningGroup = S;
note = Scircumflex;
rightKerningGroup = S;
unicode = 015C;
},
{
glyphname = Scommaaccent;
lastChange = "2015-10-27 10:05:37 +0000";
layers = (
{
layerId = "79FE4770-DCAD-4138-A5DB-2166FBC61C29";
name = Bold;
paths = (
{
closed = 1;
nodes = (
"432 -10 OFFCURVE",
"547 63 OFFCURVE",
"547 191 CURVE SMOOTH",
"547 452 OFFCURVE",
"182 406 OFFCURVE",
"182 555 CURVE SMOOTH",
"182 629 OFFCURVE",
"239 663 OFFCURVE",
"328 663 CURVE SMOOTH",
"380 663 OFFCURVE",
"426 649 OFFCURVE",
"456 624 CURVE",
"459 581 OFFCURVE",
"467 539 OFFCURVE",
"477 507 CURVE",
"510 507 LINE",
"522 637 LINE",
"471 687 OFFCURVE",
"401 710 OFFCURVE",
"298 710 CURVE SMOOTH",
"147 710 OFFCURVE",
"44 652 OFFCURVE",
"44 534 CURVE SMOOTH",
"44 293 OFFCURVE",
"409 361 OFFCURVE",
"409 173 CURVE SMOOTH",
"409 80 OFFCURVE",
"331 37 OFFCURVE",
"248 37 CURVE SMOOTH",
"185 37 OFFCURVE",
"131 62 OFFCURVE",
"99 97 CURVE",
"96 138 OFFCURVE",
"90 194 OFFCURVE",
"79 227 CURVE",
"47 227 LINE",
"34 84 LINE",
"78 29 OFFCURVE",
"171 -10 OFFCURVE",
"283 -10 CURVE SMOOTH"
);
},
{
closed = 1;
nodes = (
"324 -281 OFFCURVE",
"364 -197 OFFCURVE",
"364 -128 CURVE SMOOTH",
"364 -88 OFFCURVE",
"340 -53 OFFCURVE",
"290 -53 CURVE SMOOTH",
"253 -53 OFFCURVE",
"222 -77 OFFCURVE",
"222 -116 CURVE SMOOTH",
"222 -155 OFFCURVE",
"257 -178 OFFCURVE",
"291 -178 CURVE",
"285 -222 OFFCURVE",
"254 -268 OFFCURVE",
"229 -294 CURVE",
"273 -327 LINE"
);
}
);
width = 582;
}
);
leftKerningGroup = S;
note = Scommaaccent;
rightKerningGroup = S;
unicode = 0218;
},
{
glyphname = Sdotaccent;
lastChange = "2015-10-27 10:05:38 +0000";
layers = (
{
layerId = "79FE4770-DCAD-4138-A5DB-2166FBC61C29";
name = Bold;
paths = (
{
closed = 1;
nodes = (
"432 -10 OFFCURVE",
"547 63 OFFCURVE",
"547 191 CURVE SMOOTH",
"547 452 OFFCURVE",
"182 406 OFFCURVE",
"182 555 CURVE SMOOTH",
"182 629 OFFCURVE",
"239 663 OFFCURVE",
"328 663 CURVE SMOOTH",
"380 663 OFFCURVE",
"426 649 OFFCURVE",
"456 624 CURVE",
"459 581 OFFCURVE",
"467 539 OFFCURVE",
"477 507 CURVE",
"510 507 LINE",
"522 637 LINE",
"471 687 OFFCURVE",
"401 710 OFFCURVE",
"298 710 CURVE SMOOTH",
"147 710 OFFCURVE",
"44 652 OFFCURVE",
"44 534 CURVE SMOOTH",
"44 293 OFFCURVE",
"409 361 OFFCURVE",
"409 173 CURVE SMOOTH",
"409 80 OFFCURVE",
"331 37 OFFCURVE",
"248 37 CURVE SMOOTH",
"185 37 OFFCURVE",
"131 62 OFFCURVE",
"99 97 CURVE",
"96 138 OFFCURVE",
"90 194 OFFCURVE",
"79 227 CURVE",
"47 227 LINE",
"34 84 LINE",
"78 29 OFFCURVE",
"171 -10 OFFCURVE",
"283 -10 CURVE SMOOTH"
);
},
{
closed = 1;
nodes = (
"338 785 OFFCURVE",
"360 809 OFFCURVE",
"360 841 CURVE SMOOTH",
"360 874 OFFCURVE",
"338 898 OFFCURVE",
"305 898 CURVE SMOOTH",
"270 898 OFFCURVE",
"249 874 OFFCURVE",
"249 841 CURVE SMOOTH",
"249 809 OFFCURVE",
"270 785 OFFCURVE",
"305 785 CURVE SMOOTH"
);
}
);
width = 582;
}
);
leftKerningGroup = S;
note = Sdotaccent;
rightKerningGroup = S;
unicode = 1E60;
},
{
glyphname = Sdotbelow;
lastChange = "2015-10-27 10:05:37 +0000";
layers = (
{
layerId = "79FE4770-DCAD-4138-A5DB-2166FBC61C29";
name = Bold;
paths = (
{
closed = 1;
nodes = (
"432 -10 OFFCURVE",
"547 63 OFFCURVE",
"547 191 CURVE SMOOTH",
"547 452 OFFCURVE",
"182 406 OFFCURVE",
"182 555 CURVE SMOOTH",
"182 629 OFFCURVE",
"239 663 OFFCURVE",
"328 663 CURVE SMOOTH",
"380 663 OFFCURVE",
"426 649 OFFCURVE",
"456 624 CURVE",
"459 581 OFFCURVE",
"467 539 OFFCURVE",
"477 507 CURVE",
"510 507 LINE",
"522 637 LINE",
"471 687 OFFCURVE",
"401 710 OFFCURVE",
"298 710 CURVE SMOOTH",
"147 710 OFFCURVE",
"44 652 OFFCURVE",
"44 534 CURVE SMOOTH",
"44 293 OFFCURVE",
"409 361 OFFCURVE",
"409 173 CURVE SMOOTH",
"409 80 OFFCURVE",
"331 37 OFFCURVE",
"248 37 CURVE SMOOTH",
"185 37 OFFCURVE",
"131 62 OFFCURVE",
"99 97 CURVE",
"96 138 OFFCURVE",
"90 194 OFFCURVE",
"79 227 CURVE",
"47 227 LINE",
"34 84 LINE",
"78 29 OFFCURVE",
"171 -10 OFFCURVE",
"283 -10 CURVE SMOOTH"
);
},
{
closed = 1;
nodes = (
"328 -169 OFFCURVE",
"350 -145 OFFCURVE",
"350 -113 CURVE SMOOTH",
"350 -80 OFFCURVE",
"328 -56 OFFCURVE",
"294 -56 CURVE SMOOTH",
"260 -56 OFFCURVE",
"238 -80 OFFCURVE",
"238 -113 CURVE SMOOTH",
"238 -145 OFFCURVE",
"260 -169 OFFCURVE",
"294 -169 CURVE SMOOTH"
);
}
);
width = 582;
}
);
leftKerningGroup = S;
note = Sdotbelow;
rightKerningGroup = S;
unicode = 1E62;
},
{
glyphname = Germandbls;
lastChange = "2015-10-27 10:05:37 +0000";
layers = (
{
layerId = "79FE4770-DCAD-4138-A5DB-2166FBC61C29";
name = Bold;
paths = (
{
closed = 1;
nodes = (
"636 -10 OFFCURVE",
"717 89 OFFCURVE",
"717 205 CURVE SMOOTH",
"717 311 OFFCURVE",
"630 384 OFFCURVE",
"485 400 CURVE",
"633 553 LINE",
"609 627 OFFCURVE",
"520 710 OFFCURVE",
"371 710 CURVE SMOOTH",
"181 710 OFFCURVE",
"94 622 OFFCURVE",
"94 479 CURVE SMOOTH",
"94 37 LINE",
"66 31 OFFCURVE",
"38 24 OFFCURVE",
"13 17 CURVE",
"13 0 LINE",
"281 0 LINE",
"281 20 LINE",
"270 26 OFFCURVE",
"239 34 OFFCURVE",
"227 37 CURVE",
"227 515 LINE SMOOTH",
"227 608 OFFCURVE",
"277 663 OFFCURVE",
"366 663 CURVE SMOOTH",
"447 663 OFFCURVE",
"503 622 OFFCURVE",
"527 572 CURVE",
"347 384 LINE",
"347 358 LINE",
"429 358 LINE SMOOTH",
"531 358 OFFCURVE",
"583 295 OFFCURVE",
"583 205 CURVE SMOOTH",
"583 104 OFFCURVE",
"532 34 OFFCURVE",
"442 34 CURVE SMOOTH",
"402 34 OFFCURVE",
"359 41 OFFCURVE",
"318 55 CURVE",
"318 8 LINE",
"354 -4 OFFCURVE",
"397 -10 OFFCURVE",
"446 -10 CURVE SMOOTH"
);
}
);
width = 747;
}
);
note = uni1E9E;
unicode = 1E9E;
},
{
glyphname = Schwa;
lastChange = "2015-10-27 10:05:37 +0000";
layers = (
{
layerId = "79FE4770-DCAD-4138-A5DB-2166FBC61C29";
name = Bold;
paths = (
{
closed = 1;
nodes = (
"568 -10 OFFCURVE",
"709 111 OFFCURVE",
"709 344 CURVE SMOOTH",
"709 559 OFFCURVE",
"566 710 OFFCURVE",
"327 710 CURVE SMOOTH",
"184 710 OFFCURVE",
"100 665 OFFCURVE",
"54 631 CURVE",
"71 588 LINE",
"155 643 OFFCURVE",
"228 661 OFFCURVE",
"312 661 CURVE SMOOTH",
"488 661 OFFCURVE",
"578 498 OFFCURVE",
"578 329 CURVE SMOOTH",
"578 176 OFFCURVE",
"507 34 OFFCURVE",
"345 34 CURVE SMOOTH",
"216 34 OFFCURVE",
"164 173 OFFCURVE",
"164 296 CURVE",
"588 296 LINE",
"588 343 LINE",
"33 343 LINE",
"33 312 LINE SMOOTH",
"33 138 OFFCURVE",
"128 -10 OFFCURVE",
"350 -10 CURVE SMOOTH"
);
}
);
width = 743;
}
);
note = uni018F;
unicode = 018F;
},
{
glyphname = T;
lastChange = "2015-10-27 10:05:38 +0000";
layers = (
{
layerId = "79FE4770-DCAD-4138-A5DB-2166FBC61C29";
name = Bold;
paths = (
{
closed = 1;
nodes = (
"487 0 LINE",
"487 16 LINE",
"460 24 OFFCURVE",
"424 32 OFFCURVE",
"400 36 CURVE",
"400 654 LINE",
"566 654 LINE",
"568 625 OFFCURVE",
"588 536 OFFCURVE",
"601 515 CURVE",
"631 515 LINE",
"631 700 LINE",
"33 700 LINE",
"33 515 LINE",
"63 515 LINE",
"76 536 OFFCURVE",
"96 625 OFFCURVE",
"98 654 CURVE",
"264 654 LINE",
"264 37 LINE",
"234 30 OFFCURVE",
"204 24 OFFCURVE",
"178 17 CURVE",
"178 0 LINE"
);
}
);
width = 665;
}
);
leftKerningGroup = T;
note = T;
rightKerningGroup = T;
unicode = 0054;
},
{
glyphname = Tbar;
lastChange = "2015-10-27 10:05:37 +0000";
layers = (
{
layerId = "79FE4770-DCAD-4138-A5DB-2166FBC61C29";
name = Bold;
paths = (
{
closed = 1;
nodes = (
"487 0 LINE",
"487 16 LINE",
"460 24 OFFCURVE",
"424 32 OFFCURVE",
"400 36 CURVE",
"400 654 LINE",
"566 654 LINE",
"568 625 OFFCURVE",
"588 536 OFFCURVE",
"601 515 CURVE",
"631 515 LINE",
"631 700 LINE",
"33 700 LINE",
"33 515 LINE",
"63 515 LINE",
"76 536 OFFCURVE",
"96 625 OFFCURVE",
"98 654 CURVE",
"264 654 LINE",
"264 37 LINE",
"234 30 OFFCURVE",
"204 24 OFFCURVE",
"178 17 CURVE",
"178 0 LINE"
);
},
{
closed = 1;
nodes = (
"550 306 LINE",
"550 350 LINE",
"123 350 LINE",
"123 306 LINE"
);
}
);
width = 665;
}
);
leftKerningGroup = T;
note = Tbar;
rightKerningGroup = T;
unicode = 0166;
},
{
glyphname = Tcaron;
lastChange = "2015-10-27 10:05:37 +0000";
layers = (
{
layerId = "79FE4770-DCAD-4138-A5DB-2166FBC61C29";
name = Bold;
paths = (
{
closed = 1;
nodes = (
"487 0 LINE",
"487 16 LINE",
"460 24 OFFCURVE",
"424 32 OFFCURVE",
"400 36 CURVE",
"400 654 LINE",
"566 654 LINE",
"568 625 OFFCURVE",
"588 536 OFFCURVE",
"601 515 CURVE",
"631 515 LINE",
"631 700 LINE",
"33 700 LINE",
"33 515 LINE",
"63 515 LINE",
"76 536 OFFCURVE",
"96 625 OFFCURVE",
"98 654 CURVE",
"264 654 LINE",
"264 37 LINE",
"234 30 OFFCURVE",
"204 24 OFFCURVE",
"178 17 CURVE",
"178 0 LINE"
);
},
{
closed = 1;
nodes = (
"361 786 LINE",
"387 824 OFFCURVE",
"465 894 OFFCURVE",
"508 922 CURVE",
"454 963 LINE",
"414 932 OFFCURVE",
"357 877 OFFCURVE",
"332 841 CURVE",
"328 841 LINE",
"304 877 OFFCURVE",
"246 932 OFFCURVE",
"206 963 CURVE",
"152 922 LINE",
"195 894 OFFCURVE",
"273 824 OFFCURVE",
"299 786 CURVE"
);
}
);
width = 665;
}
);
leftKerningGroup = T;
note = Tcaron;
rightKerningGroup = T;
unicode = 0164;
},
{
glyphname = Tcedilla;
lastChange = "2015-10-27 10:05:37 +0000";
layers = (
{
layerId = "79FE4770-DCAD-4138-A5DB-2166FBC61C29";
name = Bold;
paths = (
{
closed = 1;
nodes = (
"487 0 LINE",
"487 16 LINE",
"460 24 OFFCURVE",
"424 32 OFFCURVE",
"400 36 CURVE",
"400 654 LINE",
"566 654 LINE",
"568 625 OFFCURVE",
"588 536 OFFCURVE",
"601 515 CURVE",
"631 515 LINE",
"631 700 LINE",
"33 700 LINE",
"33 515 LINE",
"63 515 LINE",
"76 536 OFFCURVE",
"96 625 OFFCURVE",
"98 654 CURVE",
"264 654 LINE",
"264 37 LINE",
"234 30 OFFCURVE",
"204 24 OFFCURVE",
"178 17 CURVE",
"178 0 LINE"
);
},
{
closed = 1;
nodes = (
"376 -241 OFFCURVE",
"438 -208 OFFCURVE",
"438 -141 CURVE SMOOTH",
"438 -99 OFFCURVE",
"405 -64 OFFCURVE",
"332 -62 CURVE SMOOTH",
"329 -62 OFFCURVE",
"324 -62 OFFCURVE",
"322 -62 CURVE",
"361 20 LINE",
"302 20 LINE",
"257 -70 LINE",
"282 -102 LINE",
"289 -101 OFFCURVE",
"297 -100 OFFCURVE",
"305 -100 CURVE SMOOTH",
"335 -100 OFFCURVE",
"370 -109 OFFCURVE",
"370 -141 CURVE SMOOTH",
"370 -181 OFFCURVE",
"334 -195 OFFCURVE",
"291 -195 CURVE SMOOTH",
"265 -195 OFFCURVE",
"237 -189 OFFCURVE",
"217 -179 CURVE",
"196 -214 LINE",
"225 -232 OFFCURVE",
"266 -241 OFFCURVE",
"301 -241 CURVE SMOOTH"
);
}
);
width = 665;
}
);
leftKerningGroup = T;
note = Tcedilla;
rightKerningGroup = T;
unicode = 0162;
},
{
glyphname = Tcommaaccent;
lastChange = "2015-10-27 10:05:38 +0000";
layers = (
{
layerId = "79FE4770-DCAD-4138-A5DB-2166FBC61C29";
name = Bold;
paths = (
{
closed = 1;
nodes = (
"487 0 LINE",
"487 16 LINE",
"460 24 OFFCURVE",
"424 32 OFFCURVE",
"400 36 CURVE",
"400 654 LINE",
"566 654 LINE",
"568 625 OFFCURVE",
"588 536 OFFCURVE",
"601 515 CURVE",
"631 515 LINE",
"631 700 LINE",
"33 700 LINE",
"33 515 LINE",
"63 515 LINE",
"76 536 OFFCURVE",
"96 625 OFFCURVE",
"98 654 CURVE",
"264 654 LINE",
"264 37 LINE",
"234 30 OFFCURVE",
"204 24 OFFCURVE",
"178 17 CURVE",
"178 0 LINE"
);
},
{
closed = 1;
nodes = (
"363 -300 OFFCURVE",
"402 -220 OFFCURVE",
"402 -151 CURVE SMOOTH",
"402 -111 OFFCURVE",
"381 -77 OFFCURVE",
"330 -77 CURVE SMOOTH",
"295 -77 OFFCURVE",
"263 -99 OFFCURVE",
"263 -138 CURVE SMOOTH",
"263 -177 OFFCURVE",
"290 -199 OFFCURVE",
"330 -200 CURVE",
"324 -243 OFFCURVE",
"294 -287 OFFCURVE",
"269 -314 CURVE",
"312 -346 LINE"
);
}
);
width = 665;
}
);
leftKerningGroup = T;
note = Tcommaaccent;
rightKerningGroup = T;
unicode = 021A;
},
{
glyphname = Tdotbelow;
lastChange = "2015-10-27 10:05:37 +0000";
layers = (
{
layerId = "79FE4770-DCAD-4138-A5DB-2166FBC61C29";
name = Bold;
paths = (
{
closed = 1;
nodes = (
"487 0 LINE",
"487 16 LINE",
"460 24 OFFCURVE",
"424 32 OFFCURVE",
"400 36 CURVE",
"400 654 LINE",
"566 654 LINE",
"568 625 OFFCURVE",
"588 536 OFFCURVE",
"601 515 CURVE",
"631 515 LINE",
"631 700 LINE",
"33 700 LINE",
"33 515 LINE",
"63 515 LINE",
"76 536 OFFCURVE",
"96 625 OFFCURVE",
"98 654 CURVE",
"264 654 LINE",
"264 37 LINE",
"234 30 OFFCURVE",
"204 24 OFFCURVE",
"178 17 CURVE",
"178 0 LINE"
);
},
{
closed = 1;
nodes = (
"365 -169 OFFCURVE",
"387 -145 OFFCURVE",
"387 -113 CURVE SMOOTH",
"387 -80 OFFCURVE",
"365 -56 OFFCURVE",
"331 -56 CURVE SMOOTH",
"297 -56 OFFCURVE",
"275 -80 OFFCURVE",
"275 -113 CURVE SMOOTH",
"275 -145 OFFCURVE",
"297 -169 OFFCURVE",
"331 -169 CURVE SMOOTH"
);
}
);
width = 665;
}
);
leftKerningGroup = T;
note = Tdotbelow;
rightKerningGroup = T;
unicode = 1E6C;
},
{
glyphname = Tlinebelow;
lastChange = "2015-10-27 10:05:37 +0000";
layers = (
{
layerId = "79FE4770-DCAD-4138-A5DB-2166FBC61C29";
name = Bold;
paths = (
{
closed = 1;
nodes = (
"487 0 LINE",
"487 16 LINE",
"460 24 OFFCURVE",
"424 32 OFFCURVE",
"400 36 CURVE",
"400 654 LINE",
"566 654 LINE",
"568 625 OFFCURVE",
"588 536 OFFCURVE",
"601 515 CURVE",
"631 515 LINE",
"631 700 LINE",
"33 700 LINE",
"33 515 LINE",
"63 515 LINE",
"76 536 OFFCURVE",
"96 625 OFFCURVE",
"98 654 CURVE",
"264 654 LINE",
"264 37 LINE",
"234 30 OFFCURVE",
"204 24 OFFCURVE",
"178 17 CURVE",
"178 0 LINE"
);
},
{
closed = 1;
nodes = (
"516 -107 LINE",
"516 -64 LINE",
"145 -64 LINE",
"145 -107 LINE"
);
}
);
width = 665;
}
);
leftKerningGroup = T;
note = Tlinebelow;
rightKerningGroup = T;
unicode = 1E6E;
},
{
glyphname = U;
lastChange = "2015-10-27 10:05:37 +0000";
layers = (
{
layerId = "79FE4770-DCAD-4138-A5DB-2166FBC61C29";
name = Bold;
paths = (
{
closed = 1;
nodes = (
"585 -10 OFFCURVE",
"680 66 OFFCURVE",
"680 218 CURVE SMOOTH",
"680 662 LINE",
"696 664 OFFCURVE",
"726 672 OFFCURVE",
"761 684 CURVE",
"761 700 LINE",
"543 700 LINE",
"543 684 LINE",
"571 674 OFFCURVE",
"597 668 OFFCURVE",
"624 664 CURVE",
"624 205 LINE SMOOTH",
"624 79 OFFCURVE",
"534 37 OFFCURVE",
"435 37 CURVE SMOOTH",
"334 37 OFFCURVE",
"246 75 OFFCURVE",
"246 205 CURVE SMOOTH",
"246 662 LINE",
"274 668 OFFCURVE",
"302 674 OFFCURVE",
"326 682 CURVE",
"326 700 LINE",
"30 700 LINE",
"30 684 LINE",
"57 674 OFFCURVE",
"85 668 OFFCURVE",
"110 663 CURVE",
"110 218 LINE SMOOTH",
"110 58 OFFCURVE",
"217 -10 OFFCURVE",
"401 -10 CURVE SMOOTH"
);
}
);
width = 791;
}
);
leftKerningGroup = U;
note = U;
rightKerningGroup = U;
unicode = 0055;
},
{
glyphname = Uacute;
lastChange = "2015-10-27 10:05:37 +0000";
layers = (
{
layerId = "79FE4770-DCAD-4138-A5DB-2166FBC61C29";
name = Bold;
paths = (
{
closed = 1;
nodes = (
"585 -10 OFFCURVE",
"680 66 OFFCURVE",
"680 218 CURVE SMOOTH",
"680 662 LINE",
"696 664 OFFCURVE",
"726 672 OFFCURVE",
"761 684 CURVE",
"761 700 LINE",
"543 700 LINE",
"543 684 LINE",
"571 674 OFFCURVE",
"597 668 OFFCURVE",
"624 664 CURVE",
"624 205 LINE SMOOTH",
"624 79 OFFCURVE",
"534 37 OFFCURVE",
"435 37 CURVE SMOOTH",
"334 37 OFFCURVE",
"246 75 OFFCURVE",
"246 205 CURVE SMOOTH",
"246 662 LINE",
"274 668 OFFCURVE",
"302 674 OFFCURVE",
"326 682 CURVE",
"326 700 LINE",
"30 700 LINE",
"30 684 LINE",
"57 674 OFFCURVE",
"85 668 OFFCURVE",
"110 663 CURVE",
"110 218 LINE SMOOTH",
"110 58 OFFCURVE",
"217 -10 OFFCURVE",
"401 -10 CURVE SMOOTH"
);
},
{
closed = 1;
nodes = (
"500 875 LINE SMOOTH",
"529 892 OFFCURVE",
"544 909 OFFCURVE",
"544 930 CURVE SMOOTH",
"544 947 OFFCURVE",
"533 967 OFFCURVE",
"503 967 CURVE SMOOTH",
"473 967 OFFCURVE",
"450 943 OFFCURVE",
"444 936 CURVE",
"324 817 LINE",
"346 786 LINE"
);
}
);
width = 791;
}
);
leftKerningGroup = U;
note = Uacute;
rightKerningGroup = U;
unicode = 00DA;
},
{
glyphname = Ubreve;
lastChange = "2015-10-27 10:05:38 +0000";
layers = (
{
layerId = "79FE4770-DCAD-4138-A5DB-2166FBC61C29";
name = Bold;
paths = (
{
closed = 1;
nodes = (
"585 -10 OFFCURVE",
"680 66 OFFCURVE",
"680 218 CURVE SMOOTH",
"680 662 LINE",
"696 664 OFFCURVE",
"726 672 OFFCURVE",
"761 684 CURVE",
"761 700 LINE",
"543 700 LINE",
"543 684 LINE",
"571 674 OFFCURVE",
"597 668 OFFCURVE",
"624 664 CURVE",
"624 205 LINE SMOOTH",
"624 79 OFFCURVE",
"534 37 OFFCURVE",
"435 37 CURVE SMOOTH",
"334 37 OFFCURVE",
"246 75 OFFCURVE",
"246 205 CURVE SMOOTH",
"246 662 LINE",
"274 668 OFFCURVE",
"302 674 OFFCURVE",
"326 682 CURVE",
"326 700 LINE",
"30 700 LINE",
"30 684 LINE",
"57 674 OFFCURVE",
"85 668 OFFCURVE",
"110 663 CURVE",
"110 218 LINE SMOOTH",
"110 58 OFFCURVE",
"217 -10 OFFCURVE",
"401 -10 CURVE SMOOTH"
);
},
{
closed = 1;
nodes = (
"497 779 OFFCURVE",
"563 821 OFFCURVE",
"576 910 CURVE",
"500 910 LINE",
"492 836 OFFCURVE",
"445 826 OFFCURVE",
"404 826 CURVE SMOOTH",
"363 826 OFFCURVE",
"315 836 OFFCURVE",
"307 910 CURVE",
"231 910 LINE",
"245 821 OFFCURVE",
"310 779 OFFCURVE",
"404 779 CURVE SMOOTH"
);
}
);
width = 791;
}
);
leftKerningGroup = U;
note = Ubreve;
rightKerningGroup = U;
unicode = 016C;
},
{
glyphname = Ucaron;
lastChange = "2015-10-27 10:05:37 +0000";
layers = (
{
layerId = "79FE4770-DCAD-4138-A5DB-2166FBC61C29";
name = Bold;
paths = (
{
closed = 1;
nodes = (
"585 -10 OFFCURVE",
"680 66 OFFCURVE",
"680 218 CURVE SMOOTH",
"680 662 LINE",
"696 664 OFFCURVE",
"726 672 OFFCURVE",
"761 684 CURVE",
"761 700 LINE",
"543 700 LINE",
"543 684 LINE",
"571 674 OFFCURVE",
"597 668 OFFCURVE",
"624 664 CURVE",
"624 205 LINE SMOOTH",
"624 79 OFFCURVE",
"534 37 OFFCURVE",
"435 37 CURVE SMOOTH",
"334 37 OFFCURVE",
"246 75 OFFCURVE",
"246 205 CURVE SMOOTH",
"246 662 LINE",
"274 668 OFFCURVE",
"302 674 OFFCURVE",
"326 682 CURVE",
"326 700 LINE",
"30 700 LINE",
"30 684 LINE",
"57 674 OFFCURVE",
"85 668 OFFCURVE",
"110 663 CURVE",
"110 218 LINE SMOOTH",
"110 58 OFFCURVE",
"217 -10 OFFCURVE",
"401 -10 CURVE SMOOTH"
);
},
{
closed = 1;
nodes = (
"424 786 LINE",
"450 824 OFFCURVE",
"528 894 OFFCURVE",
"571 922 CURVE",
"517 963 LINE",
"477 932 OFFCURVE",
"420 877 OFFCURVE",
"395 841 CURVE",
"391 841 LINE",
"367 877 OFFCURVE",
"309 932 OFFCURVE",
"269 963 CURVE",
"215 922 LINE",
"258 894 OFFCURVE",
"336 824 OFFCURVE",
"362 786 CURVE"
);
}
);
width = 791;
}
);
leftKerningGroup = U;
note = Ucaron;
rightKerningGroup = U;
unicode = 01D3;
},
{
glyphname = Ucircumflex;
lastChange = "2015-10-27 10:05:37 +0000";
layers = (
{
layerId = "79FE4770-DCAD-4138-A5DB-2166FBC61C29";
name = Bold;
paths = (
{
closed = 1;
nodes = (
"585 -10 OFFCURVE",
"680 66 OFFCURVE",
"680 218 CURVE SMOOTH",
"680 662 LINE",
"696 664 OFFCURVE",
"726 672 OFFCURVE",
"761 684 CURVE",
"761 700 LINE",
"543 700 LINE",
"543 684 LINE",
"571 674 OFFCURVE",
"597 668 OFFCURVE",
"624 664 CURVE",
"624 205 LINE SMOOTH",
"624 79 OFFCURVE",
"534 37 OFFCURVE",
"435 37 CURVE SMOOTH",
"334 37 OFFCURVE",
"246 75 OFFCURVE",
"246 205 CURVE SMOOTH",
"246 662 LINE",
"274 668 OFFCURVE",
"302 674 OFFCURVE",
"326 682 CURVE",
"326 700 LINE",
"30 700 LINE",
"30 684 LINE",
"57 674 OFFCURVE",
"85 668 OFFCURVE",
"110 663 CURVE",
"110 218 LINE SMOOTH",
"110 58 OFFCURVE",
"217 -10 OFFCURVE",
"401 -10 CURVE SMOOTH"
);
},
{
closed = 1;
nodes = (
"311 813 OFFCURVE",
"369 868 OFFCURVE",
"393 904 CURVE",
"397 904 LINE",
"422 868 OFFCURVE",
"479 813 OFFCURVE",
"519 782 CURVE",
"573 823 LINE",
"530 851 OFFCURVE",
"452 922 OFFCURVE",
"426 959 CURVE",
"364 959 LINE",
"338 922 OFFCURVE",
"260 851 OFFCURVE",
"217 823 CURVE",
"271 782 LINE"
);
}
);
width = 791;
}
);
leftKerningGroup = U;
note = Ucircumflex;
rightKerningGroup = U;
unicode = 00DB;
},
{
glyphname = Udieresis;
lastChange = "2015-10-27 10:05:38 +0000";
layers = (
{
layerId = "79FE4770-DCAD-4138-A5DB-2166FBC61C29";
name = Bold;
paths = (
{
closed = 1;
nodes = (
"585 -10 OFFCURVE",
"680 66 OFFCURVE",
"680 218 CURVE SMOOTH",
"680 662 LINE",
"696 664 OFFCURVE",
"726 672 OFFCURVE",
"761 684 CURVE",
"761 700 LINE",
"543 700 LINE",
"543 684 LINE",
"571 674 OFFCURVE",
"597 668 OFFCURVE",
"624 664 CURVE",
"624 205 LINE SMOOTH",
"624 79 OFFCURVE",
"534 37 OFFCURVE",
"435 37 CURVE SMOOTH",
"334 37 OFFCURVE",
"246 75 OFFCURVE",
"246 205 CURVE SMOOTH",
"246 662 LINE",
"274 668 OFFCURVE",
"302 674 OFFCURVE",
"326 682 CURVE",
"326 700 LINE",
"30 700 LINE",
"30 684 LINE",
"57 674 OFFCURVE",
"85 668 OFFCURVE",
"110 663 CURVE",
"110 218 LINE SMOOTH",
"110 58 OFFCURVE",
"217 -10 OFFCURVE",
"401 -10 CURVE SMOOTH"
);
},
{
closed = 1;
nodes = (
"332 785 OFFCURVE",
"354 809 OFFCURVE",
"354 841 CURVE SMOOTH",
"354 874 OFFCURVE",
"332 898 OFFCURVE",
"297 898 CURVE SMOOTH",
"264 898 OFFCURVE",
"242 874 OFFCURVE",
"242 841 CURVE SMOOTH",
"242 809 OFFCURVE",
"264 785 OFFCURVE",
"297 785 CURVE SMOOTH"
);
},
{
closed = 1;
nodes = (
"565 785 OFFCURVE",
"587 809 OFFCURVE",
"587 841 CURVE SMOOTH",
"587 874 OFFCURVE",
"565 898 OFFCURVE",
"531 898 CURVE SMOOTH",
"496 898 OFFCURVE",
"475 874 OFFCURVE",
"475 841 CURVE SMOOTH",
"475 809 OFFCURVE",
"496 785 OFFCURVE",
"531 785 CURVE SMOOTH"
);
}
);
width = 791;
}
);
leftKerningGroup = U;
note = Udieresis;
rightKerningGroup = U;
unicode = 00DC;
},
{
glyphname = Udieresisacute;
lastChange = "2015-10-27 10:05:37 +0000";
layers = (
{
layerId = "79FE4770-DCAD-4138-A5DB-2166FBC61C29";
name = Bold;
paths = (
{
closed = 1;
nodes = (
"585 -10 OFFCURVE",
"680 66 OFFCURVE",
"680 218 CURVE SMOOTH",
"680 662 LINE",
"696 664 OFFCURVE",
"726 672 OFFCURVE",
"761 684 CURVE",
"761 700 LINE",
"543 700 LINE",
"543 684 LINE",
"571 674 OFFCURVE",
"597 668 OFFCURVE",
"624 664 CURVE",
"624 205 LINE SMOOTH",
"624 79 OFFCURVE",
"534 37 OFFCURVE",
"435 37 CURVE SMOOTH",
"334 37 OFFCURVE",
"246 75 OFFCURVE",
"246 205 CURVE SMOOTH",
"246 662 LINE",
"274 668 OFFCURVE",
"302 674 OFFCURVE",
"326 682 CURVE",
"326 700 LINE",
"30 700 LINE",
"30 684 LINE",
"57 674 OFFCURVE",
"85 668 OFFCURVE",
"110 663 CURVE",
"110 218 LINE SMOOTH",
"110 58 OFFCURVE",
"217 -10 OFFCURVE",
"401 -10 CURVE SMOOTH"
);
},
{
closed = 1;
nodes = (
"334 785 OFFCURVE",
"356 809 OFFCURVE",
"356 841 CURVE SMOOTH",
"356 873 OFFCURVE",
"334 898 OFFCURVE",
"300 898 CURVE SMOOTH",
"265 898 OFFCURVE",
"244 873 OFFCURVE",
"244 841 CURVE SMOOTH",
"244 809 OFFCURVE",
"265 785 OFFCURVE",
"300 785 CURVE SMOOTH"
);
},
{
closed = 1;
nodes = (
"567 785 OFFCURVE",
"589 809 OFFCURVE",
"589 841 CURVE SMOOTH",
"589 873 OFFCURVE",
"567 898 OFFCURVE",
"533 898 CURVE SMOOTH",
"499 898 OFFCURVE",
"477 873 OFFCURVE",
"477 841 CURVE SMOOTH",
"477 809 OFFCURVE",
"499 785 OFFCURVE",
"533 785 CURVE SMOOTH"
);
},
{
closed = 1;
nodes = (
"525 1008 LINE SMOOTH",
"554 1025 OFFCURVE",
"569 1042 OFFCURVE",
"569 1063 CURVE SMOOTH",
"569 1080 OFFCURVE",
"555 1102 OFFCURVE",
"525 1102 CURVE SMOOTH",
"495 1102 OFFCURVE",
"474 1076 OFFCURVE",
"469 1070 CURVE",
"362 960 LINE",
"384 929 LINE"
);
}
);
width = 791;
}
);
leftKerningGroup = U;
note = Udieresisacute;
rightKerningGroup = U;
unicode = 01D7;
},
{
glyphname = Udieresiscaron;
lastChange = "2015-10-27 10:05:37 +0000";
layers = (
{
layerId = "79FE4770-DCAD-4138-A5DB-2166FBC61C29";
name = Bold;
paths = (
{
closed = 1;
nodes = (
"585 -10 OFFCURVE",
"680 66 OFFCURVE",
"680 218 CURVE SMOOTH",
"680 662 LINE",
"696 664 OFFCURVE",
"726 672 OFFCURVE",
"761 684 CURVE",
"761 700 LINE",
"543 700 LINE",
"543 684 LINE",
"571 674 OFFCURVE",
"597 668 OFFCURVE",
"624 664 CURVE",
"624 205 LINE SMOOTH",
"624 79 OFFCURVE",
"534 37 OFFCURVE",
"435 37 CURVE SMOOTH",
"334 37 OFFCURVE",
"246 75 OFFCURVE",
"246 205 CURVE SMOOTH",
"246 662 LINE",
"274 668 OFFCURVE",
"302 674 OFFCURVE",
"326 682 CURVE",
"326 700 LINE",
"30 700 LINE",
"30 684 LINE",
"57 674 OFFCURVE",
"85 668 OFFCURVE",
"110 663 CURVE",
"110 218 LINE SMOOTH",
"110 58 OFFCURVE",
"217 -10 OFFCURVE",
"401 -10 CURVE SMOOTH"
);
},
{
closed = 1;
nodes = (
"333 785 OFFCURVE",
"355 808 OFFCURVE",
"355 841 CURVE SMOOTH",
"355 873 OFFCURVE",
"333 897 OFFCURVE",
"299 897 CURVE SMOOTH",
"265 897 OFFCURVE",
"244 873 OFFCURVE",
"244 841 CURVE SMOOTH",
"244 808 OFFCURVE",
"265 785 OFFCURVE",
"299 785 CURVE SMOOTH"
);
},
{
closed = 1;
nodes = (
"567 785 OFFCURVE",
"589 808 OFFCURVE",
"589 841 CURVE SMOOTH",
"589 873 OFFCURVE",
"567 897 OFFCURVE",
"532 897 CURVE SMOOTH",
"498 897 OFFCURVE",
"477 873 OFFCURVE",
"477 841 CURVE SMOOTH",
"477 808 OFFCURVE",
"498 785 OFFCURVE",
"532 785 CURVE SMOOTH"
);
},
{
closed = 1;
nodes = (
"447 911 LINE",
"473 949 OFFCURVE",
"551 1019 OFFCURVE",
"594 1047 CURVE",
"539 1088 LINE",
"499 1057 OFFCURVE",
"443 1002 OFFCURVE",
"418 966 CURVE",
"414 966 LINE",
"389 1002 OFFCURVE",
"332 1057 OFFCURVE",
"292 1088 CURVE",
"238 1047 LINE",
"280 1019 OFFCURVE",
"359 949 OFFCURVE",
"385 911 CURVE"
);
}
);
width = 791;
}
);
leftKerningGroup = U;
note = Udieresiscaron;
rightKerningGroup = U;
unicode = 01D9;
},
{
glyphname = Udieresisgrave;
lastChange = "2015-10-27 10:05:37 +0000";
layers = (
{
layerId = "79FE4770-DCAD-4138-A5DB-2166FBC61C29";
name = Bold;
paths = (
{
closed = 1;
nodes = (
"585 -10 OFFCURVE",
"680 66 OFFCURVE",
"680 218 CURVE SMOOTH",
"680 662 LINE",
"696 664 OFFCURVE",
"726 672 OFFCURVE",
"761 684 CURVE",
"761 700 LINE",
"543 700 LINE",
"543 684 LINE",
"571 674 OFFCURVE",
"597 668 OFFCURVE",
"624 664 CURVE",
"624 205 LINE SMOOTH",
"624 79 OFFCURVE",
"534 37 OFFCURVE",
"435 37 CURVE SMOOTH",
"334 37 OFFCURVE",
"246 75 OFFCURVE",
"246 205 CURVE SMOOTH",
"246 662 LINE",
"274 668 OFFCURVE",
"302 674 OFFCURVE",
"326 682 CURVE",
"326 700 LINE",
"30 700 LINE",
"30 684 LINE",
"57 674 OFFCURVE",
"85 668 OFFCURVE",
"110 663 CURVE",
"110 218 LINE SMOOTH",
"110 58 OFFCURVE",
"217 -10 OFFCURVE",
"401 -10 CURVE SMOOTH"
);
},
{
closed = 1;
nodes = (
"333 785 OFFCURVE",
"355 808 OFFCURVE",
"355 841 CURVE SMOOTH",
"355 873 OFFCURVE",
"333 897 OFFCURVE",
"299 897 CURVE SMOOTH",
"265 897 OFFCURVE",
"244 873 OFFCURVE",
"244 841 CURVE SMOOTH",
"244 808 OFFCURVE",
"265 785 OFFCURVE",
"299 785 CURVE SMOOTH"
);
},
{
closed = 1;
nodes = (
"461 932 LINE",
"370 1025 LINE SMOOTH",
"364 1031 OFFCURVE",
"339 1056 OFFCURVE",
"311 1056 CURVE SMOOTH",
"286 1056 OFFCURVE",
"272 1037 OFFCURVE",
"272 1019 CURVE SMOOTH",
"272 999 OFFCURVE",
"287 984 OFFCURVE",
"315 968 CURVE SMOOTH",
"439 900 LINE"
);
},
{
closed = 1;
nodes = (
"567 785 OFFCURVE",
"589 808 OFFCURVE",
"589 841 CURVE SMOOTH",
"589 873 OFFCURVE",
"567 897 OFFCURVE",
"532 897 CURVE SMOOTH",
"498 897 OFFCURVE",
"477 873 OFFCURVE",
"477 841 CURVE SMOOTH",
"477 808 OFFCURVE",
"498 785 OFFCURVE",
"532 785 CURVE SMOOTH"
);
}
);
width = 791;
}
);
leftKerningGroup = U;
note = Udieresisgrave;
rightKerningGroup = U;
unicode = 01DB;
},
